<svg class="main-svg" xmlns="http://www.w3.org/2000/svg" xmlns:xlink="http://www.w3.org/1999/xlink" width="600" height="250" style="" viewBox="0 0 600 250"><rect x="0" y="0" width="600" height="250" style="fill: rgb(255, 255, 255); fill-opacity: 1;"/><defs id="defs-cf5ab6"><g class="clips"><clipPath id="clipcf5ab6xyplot" class="plotclip"><rect width="177.05333333333334" height="187"/></clipPath><clipPath id="clipcf5ab6x2y2plot" class="plotclip"><rect width="177.05333333333334" height="187"/></clipPath><clipPath id="clipcf5ab6x3y3plot" class="plotclip"><rect width="177.05333333333334" height="187"/></clipPath><clipPath class="axesclip" id="clipcf5ab6x"><rect x="58" y="0" width="177.05333333333334" height="250"/></clipPath><clipPath class="axesclip" id="clipcf5ab6y"><rect x="0" y="43" width="600" height="187"/></clipPath><clipPath class="axesclip" id="clipcf5ab6xy"><rect x="58" y="43" width="177.05333333333334" height="187"/></clipPath><clipPath class="axesclip" id="clipcf5ab6y2"><rect x="0" y="43" width="600" height="187"/></clipPath><clipPath class="axesclip" id="clipcf5ab6xy2"><rect x="58" y="43" width="177.05333333333334" height="187"/></clipPath><clipPath class="axesclip" id="clipcf5ab6y3"><rect x="0" y="43" width="600" height="187"/></clipPath><clipPath class="axesclip" id="clipcf5ab6xy3"><rect x="58" y="43" width="177.05333333333334" height="187"/></clipPath><clipPath class="axesclip" id="clipcf5ab6x2"><rect x="240.47333333333333" y="0" width="177.05333333333334" height="250"/></clipPath><clipPath class="axesclip" id="clipcf5ab6x2y"><rect x="240.47333333333333" y="43" width="177.05333333333334" height="187"/></clipPath><clipPath class="axesclip" id="clipcf5ab6x2y2"><rect x="240.47333333333333" y="43" width="177.05333333333334" height="187"/></clipPath><clipPath class="axesclip" id="clipcf5ab6x2y3"><rect x="240.47333333333333" y="43" width="177.05333333333334" height="187"/></clipPath><clipPath class="axesclip" id="clipcf5ab6x3"><rect x="422.94666666666666" y="0" width="177.05333333333334" height="250"/></clipPath><clipPath class="axesclip" id="clipcf5ab6x3y"><rect x="422.94666666666666" y="43" width="177.05333333333334" height="187"/></clipPath><clipPath class="axesclip" id="clipcf5ab6x3y2"><rect x="422.94666666666666" y="43" width="177.05333333333334" height="187"/></clipPath><clipPath class="axesclip" id="clipcf5ab6x3y3"><rect x="422.94666666666666" y="43" width="177.05333333333334" height="187"/></clipPath></g><g class="gradients"/><g class="patterns"/></defs><g class="bglayer"><rect class="bg" x="58" y="43" width="177.05333333333334" height="187" style="fill: rgb(229, 236, 246); fill-opacity: 1; stroke-width: 0;"/><rect class="bg" x="240.47333333333333" y="43" width="177.05333333333334" height="187" style="fill: rgb(229, 236, 246); fill-opacity: 1; stroke-width: 0;"/><rect class="bg" x="422.94666666666666" y="43" width="177.05333333333334" height="187" style="fill: rgb(229, 236, 246); fill-opacity: 1; stroke-width: 0;"/></g><g class="layer-below"><g class="imagelayer"/><g class="shapelayer"/></g><g class="cartesianlayer"><g class="subplot xy"><g class="layer-subplot"><g class="shapelayer"/><g class="imagelayer"/></g><g class="minor-gridlayer"><g class="x"/><g class="y"/></g><g class="gridlayer"><g class="x"><path class="xgrid crisp" transform="translate(63.75,0)" d="M0,43v187" style="stroke: rgb(255, 255, 255); stroke-opacity: 1; stroke-width: 1px;"/><path class="xgrid crisp" transform="translate(121.22999999999999,0)" d="M0,43v187" style="stroke: rgb(255, 255, 255); stroke-opacity: 1; stroke-width: 1px;"/><path class="xgrid crisp" transform="translate(178.72,0)" d="M0,43v187" style="stroke: rgb(255, 255, 255); stroke-opacity: 1; stroke-width: 1px;"/></g><g class="y"><path class="ygrid crisp" transform="translate(0,219.69)" d="M58,0h177.05333333333334" style="stroke: rgb(255, 255, 255); stroke-opacity: 1; stroke-width: 1px;"/><path class="ygrid crisp" transform="translate(0,184.05)" d="M58,0h177.05333333333334" style="stroke: rgb(255, 255, 255); stroke-opacity: 1; stroke-width: 1px;"/><path class="ygrid crisp" transform="translate(0,148.41)" d="M58,0h177.05333333333334" style="stroke: rgb(255, 255, 255); stroke-opacity: 1; stroke-width: 1px;"/><path class="ygrid crisp" transform="translate(0,112.76)" d="M58,0h177.05333333333334" style="stroke: rgb(255, 255, 255); stroke-opacity: 1; stroke-width: 1px;"/><path class="ygrid crisp" transform="translate(0,77.12)" d="M58,0h177.05333333333334" style="stroke: rgb(255, 255, 255); stroke-opacity: 1; stroke-width: 1px;"/></g></g><g class="zerolinelayer"/><path class="xlines-below"/><path class="ylines-below"/><g class="overlines-below"/><g class="xaxislayer-below"/><g class="yaxislayer-below"/><g class="overaxes-below"/><g class="plot" transform="translate(58,43)" clip-path="url(#clipcf5ab6xyplot)"><g class="scatterlayer mlayer"><g class="trace scatter tracea562f3" style="stroke-miterlimit: 2; opacity: 1;"><g class="fills"/><g class="errorbars"/><g class="lines"><path class="js-line" d="M0,182.84L5.17,182.89L5.75,14.45L6.9,87.41L7.47,99.59L9.2,117.24L9.77,120.47L13.22,132.02L13.8,133.39L17.82,141.34L18.4,142.31L25.29,149.61L25.87,150.06L28.74,151.51L29.32,152.34L41.39,158.17L41.96,158.22L59.21,162.58L59.78,162.64L62.66,163.18L63.23,11.81L64.38,79.96L64.96,91.9L67.26,112.44L67.83,116.25L71.28,128.48L71.86,129.98L77.6,139.61L78.18,140.14L81.05,143.37L81.63,144.04L96,152.36L96.57,152.51L99.45,153.65L100.02,154.04L104.62,155.65L105.2,155.92L120.14,159.93L120.72,11.39L121.87,79.01L122.44,89.81L124.17,106.71L124.74,109.98L129.34,125.61L129.92,127.11L133.94,134.2L134.51,135.21L137.39,139.22L137.96,139.8L141.41,142.7L141.99,143L144.86,144.85L145.44,145.36L147.16,146.53L147.74,146.8L157.51,151.43L158.08,151.56L171.3,155.77L171.88,155.94L177.05,157.02" style="vector-effect: non-scaling-stroke; fill: none; stroke: rgb(99, 110, 250); stroke-opacity: 1; stroke-width: 2px; opacity: 1;"/></g><g class="points"/><g class="text"/></g><g class="trace scatter trace127f76" style="stroke-miterlimit: 2; opacity: 1;"><g class="fills"/><g class="errorbars"/><g class="lines"><path class="js-line" d="M0,116.25L5.17,116.29L5.75,-52.49L6.9,-1.38L7.47,6.47L9.2,20.75L9.77,23.37L15.52,40.95L16.1,41.78L18.97,46.83L19.54,47.21L23.57,54.42L24.14,55.05L27.02,58.05L27.59,58.46L28.74,58.76L29.32,59.75L44.26,68.31L44.84,69.49L50.59,71.71L51.16,71.82L54.04,73.23L54.61,73.51L57.48,74.54L58.06,74.59L62.66,76.01L63.23,-58.12L64.38,-3.85L64.96,3.83L67.26,24.02L67.83,26.07L71.28,37.1L71.86,38.27L74.16,43.94L74.73,44.72L77.03,48.6L77.6,49.07L82.2,54.9L82.78,55.15L86.23,58.14L86.8,58.29L88.53,59.58L89.1,59.61L91.4,61.17L91.98,61.4L98.3,66.56L98.87,66.75L107.5,69.76L108.07,69.79L109.8,70.54L110.37,70.58L115.54,71.58L116.12,71.69L118.99,73.1L119.57,73.37L120.14,73.41L120.72,-58.9L121.87,-7.84L122.44,0.27L124.74,19.09L125.32,22.22L128.19,34.28L128.77,35.6L131.07,41.27L131.64,42.46L134.51,47.88L135.09,48.43L137.39,51.09L137.96,51.85L141.99,55.06L142.56,56L146.59,60.27L147.16,60.55L152.33,62.92L152.91,63.43L159.81,66.91L160.38,67.79L163.26,68.8L163.83,69.15L167.28,69.83L167.86,70.1L170.73,71.45L171.3,71.46L177.05,72.6" style="vector-effect: non-scaling-stroke; fill: none; stroke: rgb(239, 85, 59); stroke-opacity: 1; stroke-width: 2px; opacity: 1;"/></g><g class="points"/><g class="text"/></g></g></g><g class="overplot"/><path class="xlines-above crisp" d="M0,0" style="fill: none;"/><path class="ylines-above crisp" d="M0,0" style="fill: none;"/><g class="overlines-above"/><g class="xaxislayer-above"><g class="xtick"><text text-anchor="middle" x="0" y="246" transform="translate(63.75,0)" style="font-family: Helvetica; font-size: 15px; fill: rgb(42, 63, 95); fill-opacity: 1; white-space: pre; opacity: 1;">2000</text></g><g class="xtick"><text text-anchor="middle" x="0" y="246" style="font-family: Helvetica; font-size: 15px; fill: rgb(42, 63, 95); fill-opacity: 1; white-space: pre; opacity: 1;" transform="translate(121.22999999999999,0)">2100</text></g><g class="xtick"><text text-anchor="middle" x="0" y="246" style="font-family: Helvetica; font-size: 15px; fill: rgb(42, 63, 95); fill-opacity: 1; white-space: pre; opacity: 1;" transform="translate(178.72,0)">2200</text></g></g><g class="yaxislayer-above"><g class="ytick"><text text-anchor="end" x="57" y="5.25" transform="translate(0,219.69)" style="font-family: Helvetica; font-size: 15px; fill: rgb(42, 63, 95); fill-opacity: 1; white-space: pre; opacity: 1;">0.05</text></g><g class="ytick"><text text-anchor="end" x="57" y="5.25" style="font-family: Helvetica; font-size: 15px; fill: rgb(42, 63, 95); fill-opacity: 1; white-space: pre; opacity: 1;" transform="translate(0,184.05)">0.1</text></g><g class="ytick"><text text-anchor="end" x="57" y="5.25" style="font-family: Helvetica; font-size: 15px; fill: rgb(42, 63, 95); fill-opacity: 1; white-space: pre; opacity: 1;" transform="translate(0,148.41)">0.15</text></g><g class="ytick"><text text-anchor="end" x="57" y="5.25" style="font-family: Helvetica; font-size: 15px; fill: rgb(42, 63, 95); fill-opacity: 1; white-space: pre; opacity: 1;" transform="translate(0,112.76)">0.2</text></g><g class="ytick"><text text-anchor="end" x="57" y="5.25" style="font-family: Helvetica; font-size: 15px; fill: rgb(42, 63, 95); fill-opacity: 1; white-space: pre; opacity: 1;" transform="translate(0,77.12)">0.25</text></g></g><g class="overaxes-above"/></g><g class="subplot x2y2"><g class="layer-subplot"><g class="shapelayer"/><g class="imagelayer"/></g><g class="minor-gridlayer"><g class="x2"/><g class="y2"/></g><g class="gridlayer"><g class="x2"><path class="x2grid crisp" transform="translate(246.22333333333333,0)" d="M0,43v187" style="stroke: rgb(255, 255, 255); stroke-opacity: 1; stroke-width: 1px;"/><path class="x2grid crisp" transform="translate(303.7033333333333,0)" d="M0,43v187" style="stroke: rgb(255, 255, 255); stroke-opacity: 1; stroke-width: 1px;"/><path class="x2grid crisp" transform="translate(361.1933333333333,0)" d="M0,43v187" style="stroke: rgb(255, 255, 255); stroke-opacity: 1; stroke-width: 1px;"/></g><g class="y2"><path class="y2grid crisp" transform="translate(0,219.69)" d="M240.47333333333333,0h177.05333333333334" style="stroke: rgb(255, 255, 255); stroke-opacity: 1; stroke-width: 1px;"/><path class="y2grid crisp" transform="translate(0,184.05)" d="M240.47333333333333,0h177.05333333333334" style="stroke: rgb(255, 255, 255); stroke-opacity: 1; stroke-width: 1px;"/><path class="y2grid crisp" transform="translate(0,148.41)" d="M240.47333333333333,0h177.05333333333334" style="stroke: rgb(255, 255, 255); stroke-opacity: 1; stroke-width: 1px;"/><path class="y2grid crisp" transform="translate(0,112.76)" d="M240.47333333333333,0h177.05333333333334" style="stroke: rgb(255, 255, 255); stroke-opacity: 1; stroke-width: 1px;"/><path class="y2grid crisp" transform="translate(0,77.12)" d="M240.47333333333333,0h177.05333333333334" style="stroke: rgb(255, 255, 255); stroke-opacity: 1; stroke-width: 1px;"/></g></g><g class="zerolinelayer"/><path class="xlines-below"/><path class="ylines-below"/><g class="overlines-below"/><g class="xaxislayer-below"/><g class="yaxislayer-below"/><g class="overaxes-below"/><g class="plot" transform="translate(240.47333333333333,43)" clip-path="url(#clipcf5ab6x2y2plot)"><g class="scatterlayer mlayer"><g class="trace scatter trace24caa2" style="stroke-miterlimit: 2; opacity: 1;"><g class="fills"/><g class="errorbars"/><g class="lines"><path class="js-line" d="M0,184.12L5.17,184.18L5.75,-1877.82L6.9,0.49L7.47,62.69L9.2,90.64L9.77,95.56L10.35,68.22L10.92,101.44L11.5,95.18L12.07,107.49L14.95,117.08L15.52,118.16L18.4,124.52L18.97,124.86L24.14,132.76L24.72,133.16L32.19,140.33L32.77,140.81L35.64,142.44L36.22,142.64L45.99,147.71L46.56,148.16L50.01,149.7L50.59,149.89L55.76,151.62L56.34,151.85L62.66,153.8L63.23,-2102.22L64.38,-22.71L64.96,27.47L66.11,78.48L66.68,84.26L70.13,106.06L70.71,107.54L72.43,114.09L73.01,87.55L74.16,118.18L74.73,119.55L84.5,132.53L85.08,133.03L89.68,137.03L90.25,137.54L94.28,140.48L94.85,140.77L97.15,142.06L97.72,142.3L112.1,148.22L112.67,148.46L119.57,150.51L120.14,150.6L120.72,-1935.17L121.29,-411.18L122.44,60.92L123.02,71.73L125.32,94.07L125.89,96.78L128.19,107.46L128.77,109.2L133.36,120.14L133.94,120.95L136.81,124.91L137.39,125.45L139.11,127.24L139.69,96.38L140.84,129.62L141.41,130.49L143.71,132.47L144.29,132.89L148.89,136.22L149.46,136.54L158.08,141.35L158.66,141.53L162.68,143.08L163.26,143.37L169.01,145.76L169.58,145.96L175.9,148.14L176.48,148.32L177.05,148.7" style="vector-effect: non-scaling-stroke; fill: none; stroke: rgb(99, 110, 250); stroke-opacity: 1; stroke-width: 2px; opacity: 1;"/></g><g class="points"/><g class="text"/></g><g class="trace scatter trace9b37a0" style="stroke-miterlimit: 2; opacity: 1;"><g class="fills"/><g class="errorbars"/><g class="lines"><path class="js-line" d="M0,113.9L5.17,113.98L5.75,-91.16L7.47,-4.35L8.05,2.28L10.92,22.89L11.5,24.7L15.52,36.79L16.1,37.84L21.27,46.79L21.84,47.81L27.59,54.06L28.17,54.33L31.62,57.11L32.19,57.78L34.49,58.95L35.07,59.26L39.09,61.68L39.66,62.31L45.41,65.09L45.99,65.09L47.71,66.11L48.29,66.34L55.19,69.07L55.76,69.5L62.66,71.46L63.23,-86.87L64.96,-6.69L65.53,2.33L68.41,24.89L68.98,27.21L71.28,35.2L71.86,36.07L73.58,39.25L74.16,40.39L75.31,42.31L75.88,43.35L79.33,49.98L79.9,50.05L81.05,50.95L81.63,52.14L85.65,56.82L86.23,57.07L87.95,58.23L88.53,58.64L91.98,60.27L92.55,60.7L94.28,62.09L94.85,63.22L100.02,66.29L100.6,67.17L104.62,68.75L105.2,68.83L112.1,71L112.67,71.15L114.97,71.85L115.54,71.91L120.14,73.54L120.72,-91.91L122.44,-9.46L123.02,-1.66L125.32,16.83L125.89,20.16L129.92,34.36L130.49,35.74L135.66,44.67L136.24,45.48L137.96,47.55L138.54,48.73L141.41,52.35L141.99,52.76L145.44,55.44L146.01,55.7L148.31,58.73L148.89,59.24L153.48,62.12L154.06,62.26L157.51,64.52L158.08,64.62L163.26,66.08L163.83,66.12L166.71,67.5L167.28,67.72L177.05,70.86" style="vector-effect: non-scaling-stroke; fill: none; stroke: rgb(239, 85, 59); stroke-opacity: 1; stroke-width: 2px; opacity: 1;"/></g><g class="points"/><g class="text"/></g></g></g><g class="overplot"/><path class="xlines-above crisp" d="M0,0" style="fill: none;"/><path class="ylines-above crisp" d="M0,0" style="fill: none;"/><g class="overlines-above"/><g class="xaxislayer-above"><g class="x2tick"><text text-anchor="middle" x="0" y="246" transform="translate(246.22333333333333,0)" style="font-family: Helvetica; font-size: 15px; fill: rgb(42, 63, 95); fill-opacity: 1; white-space: pre; opacity: 1;">2000</text></g><g class="x2tick"><text text-anchor="middle" x="0" y="246" style="font-family: Helvetica; font-size: 15px; fill: rgb(42, 63, 95); fill-opacity: 1; white-space: pre; opacity: 1;" transform="translate(303.7033333333333,0)">2100</text></g><g class="x2tick"><text text-anchor="middle" x="0" y="246" style="font-family: Helvetica; font-size: 15px; fill: rgb(42, 63, 95); fill-opacity: 1; white-space: pre; opacity: 1;" transform="translate(361.1933333333333,0)">2200</text></g></g><g class="yaxislayer-above"/><g class="overaxes-above"/></g><g class="subplot x3y3"><g class="layer-subplot"><g class="shapelayer"/><g class="imagelayer"/></g><g class="minor-gridlayer"><g class="x3"/><g class="y3"/></g><g class="gridlayer"><g class="x3"><path class="x3grid crisp" transform="translate(428.69666666666666,0)" d="M0,43v187" style="stroke: rgb(255, 255, 255); stroke-opacity: 1; stroke-width: 1px;"/><path class="x3grid crisp" transform="translate(486.1766666666667,0)" d="M0,43v187" style="stroke: rgb(255, 255, 255); stroke-opacity: 1; stroke-width: 1px;"/><path class="x3grid crisp" transform="translate(543.6666666666666,0)" d="M0,43v187" style="stroke: rgb(255, 255, 255); stroke-opacity: 1; stroke-width: 1px;"/></g><g class="y3"><path class="y3grid crisp" transform="translate(0,219.69)" d="M422.94666666666666,0h177.05333333333334" style="stroke: rgb(255, 255, 255); stroke-opacity: 1; stroke-width: 1px;"/><path class="y3grid crisp" transform="translate(0,184.05)" d="M422.94666666666666,0h177.05333333333334" style="stroke: rgb(255, 255, 255); stroke-opacity: 1; stroke-width: 1px;"/><path class="y3grid crisp" transform="translate(0,148.41)" d="M422.94666666666666,0h177.05333333333334" style="stroke: rgb(255, 255, 255); stroke-opacity: 1; stroke-width: 1px;"/><path class="y3grid crisp" transform="translate(0,112.76)" d="M422.94666666666666,0h177.05333333333334" style="stroke: rgb(255, 255, 255); stroke-opacity: 1; stroke-width: 1px;"/><path class="y3grid crisp" transform="translate(0,77.12)" d="M422.94666666666666,0h177.05333333333334" style="stroke: rgb(255, 255, 255); stroke-opacity: 1; stroke-width: 1px;"/></g></g><g class="zerolinelayer"/><path class="xlines-below"/><path class="ylines-below"/><g class="overlines-below"/><g class="xaxislayer-below"/><g class="yaxislayer-below"/><g class="overaxes-below"/><g class="plot" transform="translate(422.94666666666666,43)" clip-path="url(#clipcf5ab6x3y3plot)"><g class="scatterlayer mlayer"><g class="trace scatter tracecc526c" style="stroke-miterlimit: 2; opacity: 1;"><g class="fills"/><g class="errorbars"/><g class="lines"><path class="js-line" d="M0,183.11L5.17,183.12L5.75,-303.01L6.9,30.6L7.47,54.34L9.77,86.58L10.35,90.82L14.37,107.45L14.95,109.07L18.4,118.96L18.97,119.76L20.69,122.37L21.27,123.13L24.72,127.63L25.29,128.53L31.04,133.57L31.62,133.95L36.79,137.37L37.37,138.01L39.66,139.4L40.24,139.79L46.56,143.71L47.14,143.92L57.48,147.65L58.06,147.84L62.66,150.05L63.23,-402.72L64.38,42.13L64.96,58.66L67.26,84.85L67.83,88.28L70.71,102.7L71.28,104.71L74.16,112.87L74.73,113.88L79.33,122.39L79.9,123.31L82.2,126.37L82.78,127.19L90.25,134.34L90.83,134.8L92.55,136.44L93.13,136.68L101.17,141.56L101.75,141.84L109.22,144.97L109.8,145.18L115.54,146.99L116.12,147.23L120.14,148.49L120.72,-269.14L121.87,42.29L122.44,26.07L123.59,73.58L124.17,79.6L126.47,92.51L127.04,95.09L129.92,105.94L130.49,107.53L133.36,113.38L133.94,114.89L142.56,127.58L143.14,128.15L148.89,133.86L149.46,134.3L158.08,140.04L158.66,140.33L167.28,144.44L167.86,144.57L172.45,146.43L173.03,146.81L177.05,147.92" style="vector-effect: non-scaling-stroke; fill: none; stroke: rgb(99, 110, 250); stroke-opacity: 1; stroke-width: 2px; opacity: 1;"/></g><g class="points"/><g class="text"/></g><g class="trace scatter trace6b3626" style="stroke-miterlimit: 2; opacity: 1;"><g class="fills"/><g class="errorbars"/><g class="lines"><path class="js-line" d="M0,115.93L5.17,116L5.75,-110.12L7.47,-15.82L8.05,-6.97L9.77,11.54L10.35,14.18L12.65,25.08L13.22,27.13L16.67,36.92L17.25,38.45L18.97,41.84L19.54,43.13L22.99,47.95L23.57,49.65L26.44,53.64L27.02,53.82L33.92,58.37L34.49,58.68L36.22,59.25L36.79,59.71L38.51,60.62L39.09,60.81L41.39,61.66L41.96,61.87L43.11,63.63L43.69,63.78L47.14,64.9L47.71,65.32L58.06,69.08L58.63,69.18L62.08,70.41L62.66,70.54L63.23,-109.39L64.38,-30.19L64.96,-15.51L67.83,16.25L68.41,18.86L72.43,35.62L73.01,36.55L73.58,37.17L74.16,39.13L75.88,42.11L76.45,42.46L82.78,51.7L83.35,52.26L85.65,55L86.23,55.2L87.95,55.92L88.53,56.44L90.25,57.91L90.83,58.1L94.85,60.41L95.42,60.56L100.6,62.72L101.17,63.04L102.9,64.63L103.47,65.43L112.1,69.19L112.67,69.35L120.14,71.9L120.72,-110.18L122.44,-15.58L123.02,-6.96L125.32,13.73L125.89,17.49L129.34,31.48L129.92,33.17L136.24,46.77L136.81,47.26L140.84,51.1L141.41,51.2L143.14,52.47L143.71,53.48L145.44,54.64L146.01,55.59L148.31,57.23L148.89,57.36L152.91,59.53L153.48,60.06L156.93,62.18L157.51,62.48L159.81,63.48L160.38,63.55L162.11,64.37L162.68,65.07L165.56,66.75L166.13,66.81L169.58,68.21L170.16,68.61L177.05,70.44" style="vector-effect: non-scaling-stroke; fill: none; stroke: rgb(239, 85, 59); stroke-opacity: 1; stroke-width: 2px; opacity: 1;"/></g><g class="points"/><g class="text"/></g></g></g><g class="overplot"/><path class="xlines-above crisp" d="M0,0" style="fill: none;"/><path class="ylines-above crisp" d="M0,0" style="fill: none;"/><g class="overlines-above"/><g class="xaxislayer-above"><g class="x3tick"><text text-anchor="middle" x="0" y="246" transform="translate(428.69666666666666,0)" style="font-family: Helvetica; font-size: 15px; fill: rgb(42, 63, 95); fill-opacity: 1; white-space: pre; opacity: 1;">2000</text></g><g class="x3tick"><text text-anchor="middle" x="0" y="246" style="font-family: Helvetica; font-size: 15px; fill: rgb(42, 63, 95); fill-opacity: 1; white-space: pre; opacity: 1;" transform="translate(486.1766666666667,0)">2100</text></g><g class="x3tick"><text text-anchor="middle" x="0" y="246" style="font-family: Helvetica; font-size: 15px; fill: rgb(42, 63, 95); fill-opacity: 1; white-space: pre; opacity: 1;" transform="translate(543.6666666666666,0)">2200</text></g></g><g class="yaxislayer-above"/><g class="overaxes-above"/></g></g><g class="polarlayer"/><g class="smithlayer"/><g class="ternarylayer"/><g class="geolayer"/><g class="funnelarealayer"/><g class="pielayer"/><g class="iciclelayer"/><g class="treemaplayer"/><g class="sunburstlayer"/><g class="glimages"/><defs id="topdefs-cf5ab6"><g class="clips"/><clipPath id="legendcf5ab6"><rect width="373" height="34" x="0" y="0"/></clipPath></defs><g class="layer-above"><g class="imagelayer"/><g class="shapelayer"/></g><g class="infolayer"><g class="legend" pointer-events="all" transform="translate(227,0)"><rect class="bg" shape-rendering="crispEdges" width="373" height="34" x="0" y="0" style="stroke: rgb(68, 68, 68); stroke-opacity: 1; fill: rgb(255, 255, 255); fill-opacity: 1; stroke-width: 0px;"/><g class="scrollbox" transform="" clip-path="url(#legendcf5ab6)"><text class="legendtitletext" text-anchor="start" x="2" y="23.400000000000002" style="font-family: Helvetica; font-size: 18px; fill: rgb(42, 63, 95); fill-opacity: 1; white-space: pre;">Parameter Set Group</text><g class="groups" transform=""><g class="traces" transform="translate(181.09375,16.25)" style="opacity: 1;"><text class="legendtext" text-anchor="start" x="40" y="5.85" style="font-family: Helvetica; font-size: 15px; fill: rgb(42, 63, 95); fill-opacity: 1; white-space: pre;">HPO</text><g class="layers" style="opacity: 1;"><g class="legendfill"/><g class="legendlines"><path class="js-line" d="M5,0h30" style="fill: none; stroke: rgb(99, 110, 250); stroke-opacity: 1; stroke-width: 2px;"/></g><g class="legendsymbols"><g class="legendpoints"/></g></g><rect class="legendtoggle" x="0" y="-11.25" width="75.015625" height="22.5" style="fill: rgb(0, 0, 0); fill-opacity: 0;"/></g></g><g class="groups" transform="translate(77.515625,0)"><g class="traces" transform="translate(181.09375,16.25)" style="opacity: 1;"><text class="legendtext" text-anchor="start" x="40" y="5.85" style="font-family: Helvetica; font-size: 15px; fill: rgb(42, 63, 95); fill-opacity: 1; white-space: pre;">Reference</text><g class="layers" style="opacity: 1;"><g class="legendfill"/><g class="legendlines"><path class="js-line" d="M5,0h30" style="fill: none; stroke: rgb(239, 85, 59); stroke-opacity: 1; stroke-width: 2px;"/></g><g class="legendsymbols"><g class="legendpoints"/></g></g><rect class="legendtoggle" x="0" y="-11.25" width="111.71875" height="22.5" style="fill: rgb(0, 0, 0); fill-opacity: 0;"/></g></g></g><rect class="scrollbar" rx="20" ry="3" width="0" height="0" x="0" y="0" style="fill: rgb(128, 139, 164); fill-opacity: 1;"/></g><g class="g-gtitle"/><g class="g-xtitle"/><g class="g-x2title"/><g class="g-x3title"/><g class="g-ytitle" transform="translate(16.302734375,0)"><text class="ytitle" transform="rotate(-90,0.19687499999999858,136.5)" x="0.19687499999999858" y="136.5" text-anchor="middle" style="font-family: Helvetica; font-size: 18px; fill: rgb(42, 63, 95); opacity: 1; font-weight: normal; white-space: pre;">RPD</text></g><g class="g-y2title"/><g class="g-y3title"/><g class="annotation" data-index="0" style="opacity: 1;"><g class="annotation-text-g" transform="rotate(0,146.52666666666667,32)"><g class="cursor-pointer" transform="translate(125,21)"><rect class="bg" x="0.5" y="0.5" width="43" height="21" style="stroke-width: 1px; stroke: rgb(0, 0, 0); stroke-opacity: 0; fill: rgb(0, 0, 0); fill-opacity: 0;"/><text class="annotation-text" text-anchor="middle" x="22.234375" y="16" style="font-family: Helvetica; font-size: 15px; fill: rgb(42, 63, 95); fill-opacity: 1; white-space: pre;">C=0.1</text></g></g></g><g class="annotation" data-index="1" style="opacity: 1;"><g class="annotation-text-g" transform="rotate(0,329,32)"><g class="cursor-pointer" transform="translate(303,21)"><rect class="bg" x="0.5" y="0.5" width="52" height="21" style="stroke-width: 1px; stroke: rgb(0, 0, 0); stroke-opacity: 0; fill: rgb(0, 0, 0); fill-opacity: 0;"/><text class="annotation-text" text-anchor="middle" x="26.40625" y="16" style="font-family: Helvetica; font-size: 15px; fill: rgb(42, 63, 95); fill-opacity: 1; white-space: pre;">C=0.25</text></g></g></g><g class="annotation" data-index="2" style="opacity: 1;"><g class="annotation-text-g" transform="rotate(0,511.47333333333336,32)"><g class="cursor-pointer" transform="translate(489,21)"><rect class="bg" x="0.5" y="0.5" width="43" height="21" style="stroke-width: 1px; stroke: rgb(0, 0, 0); stroke-opacity: 0; fill: rgb(0, 0, 0); fill-opacity: 0;"/><text class="annotation-text" text-anchor="middle" x="22.234375" y="16" style="font-family: Helvetica; font-size: 15px; fill: rgb(42, 63, 95); fill-opacity: 1; white-space: pre;">C=0.5</text></g></g></g></g></svg>