<svg class="main-svg" xmlns="http://www.w3.org/2000/svg" xmlns:xlink="http://www.w3.org/1999/xlink" width="450" height="350" style="" viewBox="0 0 450 350"><rect x="0" y="0" width="450" height="350" style="fill: rgb(255, 255, 255); fill-opacity: 1;"/><defs id="defs-103204"><g class="clips"><clipPath id="clip103204xyplot" class="plotclip"><rect width="392" height="256"/></clipPath><clipPath class="axesclip" id="clip103204x"><rect x="58" y="0" width="392" height="350"/></clipPath><clipPath class="axesclip" id="clip103204y"><rect x="0" y="47" width="450" height="256"/></clipPath><clipPath class="axesclip" id="clip103204xy"><rect x="58" y="47" width="392" height="256"/></clipPath></g><g class="gradients"/><g class="patterns"/></defs><g class="bglayer"><rect class="bg" x="58" y="47" width="392" height="256" style="fill: rgb(229, 236, 246); fill-opacity: 1; stroke-width: 0;"/></g><g class="layer-below"><g class="imagelayer"/><g class="shapelayer"/></g><g class="cartesianlayer"><g class="subplot xy"><g class="layer-subplot"><g class="shapelayer"/><g class="imagelayer"/></g><g class="minor-gridlayer"><g class="x"/><g class="y"/></g><g class="gridlayer"><g class="x"><path class="xgrid crisp" transform="translate(67.61,0)" d="M0,47v256" style="stroke: rgb(255, 255, 255); stroke-opacity: 1; stroke-width: 1px;"/><path class="xgrid crisp" transform="translate(115.65,0)" d="M0,47v256" style="stroke: rgb(255, 255, 255); stroke-opacity: 1; stroke-width: 1px;"/><path class="xgrid crisp" transform="translate(163.69,0)" d="M0,47v256" style="stroke: rgb(255, 255, 255); stroke-opacity: 1; stroke-width: 1px;"/><path class="xgrid crisp" transform="translate(211.73,0)" d="M0,47v256" style="stroke: rgb(255, 255, 255); stroke-opacity: 1; stroke-width: 1px;"/><path class="xgrid crisp" transform="translate(259.76,0)" d="M0,47v256" style="stroke: rgb(255, 255, 255); stroke-opacity: 1; stroke-width: 1px;"/><path class="xgrid crisp" transform="translate(307.8,0)" d="M0,47v256" style="stroke: rgb(255, 255, 255); stroke-opacity: 1; stroke-width: 1px;"/><path class="xgrid crisp" transform="translate(355.84,0)" d="M0,47v256" style="stroke: rgb(255, 255, 255); stroke-opacity: 1; stroke-width: 1px;"/><path class="xgrid crisp" transform="translate(403.88,0)" d="M0,47v256" style="stroke: rgb(255, 255, 255); stroke-opacity: 1; stroke-width: 1px;"/></g><g class="y"><path class="ygrid crisp" transform="translate(0,271)" d="M58,0h392" style="stroke: rgb(255, 255, 255); stroke-opacity: 1; stroke-width: 1px;"/><path class="ygrid crisp" transform="translate(0,239)" d="M58,0h392" style="stroke: rgb(255, 255, 255); stroke-opacity: 1; stroke-width: 1px;"/><path class="ygrid crisp" transform="translate(0,207)" d="M58,0h392" style="stroke: rgb(255, 255, 255); stroke-opacity: 1; stroke-width: 1px;"/><path class="ygrid crisp" transform="translate(0,175)" d="M58,0h392" style="stroke: rgb(255, 255, 255); stroke-opacity: 1; stroke-width: 1px;"/><path class="ygrid crisp" transform="translate(0,143)" d="M58,0h392" style="stroke: rgb(255, 255, 255); stroke-opacity: 1; stroke-width: 1px;"/><path class="ygrid crisp" transform="translate(0,111)" d="M58,0h392" style="stroke: rgb(255, 255, 255); stroke-opacity: 1; stroke-width: 1px;"/><path class="ygrid crisp" transform="translate(0,79)" d="M58,0h392" style="stroke: rgb(255, 255, 255); stroke-opacity: 1; stroke-width: 1px;"/></g></g><g class="zerolinelayer"/><path class="xlines-below"/><path class="ylines-below"/><g class="overlines-below"/><g class="xaxislayer-below"/><g class="yaxislayer-below"/><g class="overaxes-below"/><g class="plot" transform="translate(58,47)" clip-path="url(#clip103204xyplot)"><g class="scatterlayer mlayer"><g class="trace scatter tracebf7f78" style="stroke-miterlimit: 2; opacity: 1;"><g class="fills"/><g class="errorbars"/><g class="lines"><path class="js-line" d="M0,261.98L8.65,262.02L9.61,-550.96L10.57,19.68L11.53,132.83L13.45,172.18L14.41,177.96L16.33,187.93L17.29,181.72L18.25,193.02L19.22,192.73L21.14,199.73L22.1,201.54L26.9,208.36L27.86,209.5L31.71,213.36L32.67,214.04L38.43,218.3L39.39,218.88L43.24,221.15L44.2,221.52L57.65,226.96L58.61,227.25L72.06,231.03L73.02,231.21L84.55,233.78L85.51,233.91L104.73,237.13L105.69,-648.74L106.65,58.06L107.61,127.11L109.53,168.42L110.49,174.18L113.37,186.17L114.33,189.55L117.22,196.26L118.18,198.12L121.06,203.21L122.02,196.13L122.98,205.43L123.94,206.59L131.63,213.38L132.59,214.11L140.27,218.9L141.24,219.34L151.8,223.87L152.76,224.41L159.49,226.49L160.45,226.75L168.14,228.69L169.1,228.91L182.55,231.78L183.51,231.92L197.92,234.32L198.88,234.48L200.8,234.73L201.76,-558.9L203.69,129.91L204.65,150.28L206.57,174.19L207.53,178.86L211.37,190.26L212.33,192.61L215.22,197.8L216.18,199.28L220.98,205.39L221.94,206.36L230.59,213.4L231.55,214.07L232.51,214.7L233.47,205.76L234.43,215.67L235.39,216.43L242.12,219.57L243.08,219.94L246.92,221.63L247.88,221.99L260.37,226.05L261.33,226.22L283.43,231L284.39,231.13L296.88,233.2L297.84,-522.73L298.8,33.06L299.76,135.56L301.69,166.61L302.65,163.14L304.57,180.74L305.53,175.03L307.45,189.17L308.41,191.89L312.25,198.76L313.22,200.14L316.1,204.23L317.06,205.34L329.55,214.97L330.51,215.62L343,221.65L343.96,221.95L375.67,229.96L376.63,230.12L392,233.06" style="vector-effect: non-scaling-stroke; fill: none; stroke: rgb(99, 110, 250); stroke-opacity: 1; stroke-width: 2px; opacity: 1;"/></g><g class="points"/><g class="text"/></g><g class="trace scatter traced604c5" style="stroke-miterlimit: 2; opacity: 1;"><g class="fills"/><g class="errorbars"/><g class="lines"><path class="js-line" d="M0,200.93L8.65,200.99L9.61,21.42L11.53,83L12.49,93.26L15.37,109.6L16.33,112.95L22.1,125.3L23.06,126.82L25.94,130.71L26.9,131.72L31.71,136.77L32.67,137.86L40.35,144.14L41.31,144.79L44.2,146.56L45.16,146.88L57.65,151.55L58.61,151.66L73.98,156.29L74.94,156.78L97.04,161.42L98,161.56L104.73,162.61L105.69,21.24L107.61,81.37L108.57,91.87L112.41,113.68L113.37,116.55L118.18,127.03L119.14,128.85L125.86,136.31L126.82,137.11L129.71,139.63L130.67,140.47L143.16,148.09L144.12,148.37L147,149.25L147.96,149.64L161.41,154.43L162.37,154.87L182.55,159.93L183.51,160.01L196.96,162.26L197.92,162.49L200.8,162.86L201.76,19.26L203.69,79.73L204.65,89.95L207.53,106.59L208.49,109.96L212.33,120.99L213.29,122.93L217.14,129.24L218.1,130.34L225.78,138.43L226.75,138.98L230.59,141.66L231.55,142.18L241.16,147.09L242.12,147.41L251.73,151.56L252.69,151.73L268.06,156.29L269.02,156.36L280.55,158.75L281.51,158.93L286.31,159.95L287.27,160.21L296.88,161.55L297.84,21.59L299.76,80.66L300.73,90.62L302.65,104.56L303.61,108.81L307.45,119.92L308.41,122.13L318.02,134.85L318.98,135.66L326.67,140.86L327.63,141.32L333.39,145.2L334.35,145.73L354.53,153.27L355.49,153.39L360.29,154.54L361.25,154.78L372.78,157.78L373.75,157.92L378.55,159.25L379.51,159.36L389.12,161.19L390.08,161.32L392,161.62" style="vector-effect: non-scaling-stroke; fill: none; stroke: rgb(239, 85, 59); stroke-opacity: 1; stroke-width: 2px; opacity: 1;"/></g><g class="points"/><g class="text"/></g></g></g><g class="overplot"/><path class="xlines-above crisp" d="M0,0" style="fill: none;"/><path class="ylines-above crisp" d="M0,0" style="fill: none;"/><g class="overlines-above"/><g class="xaxislayer-above"><g class="xtick"><text text-anchor="middle" x="0" y="319" transform="translate(67.61,0)" style="font-family: Helvetica; font-size: 15px; fill: rgb(42, 63, 95); fill-opacity: 1; white-space: pre; opacity: 1;">2000</text></g><g class="xtick"><text text-anchor="middle" x="0" y="319" style="font-family: Helvetica; font-size: 15px; fill: rgb(42, 63, 95); fill-opacity: 1; white-space: pre; opacity: 1;" transform="translate(115.65,0)">2050</text></g><g class="xtick"><text text-anchor="middle" x="0" y="319" style="font-family: Helvetica; font-size: 15px; fill: rgb(42, 63, 95); fill-opacity: 1; white-space: pre; opacity: 1;" transform="translate(163.69,0)">2100</text></g><g class="xtick"><text text-anchor="middle" x="0" y="319" style="font-family: Helvetica; font-size: 15px; fill: rgb(42, 63, 95); fill-opacity: 1; white-space: pre; opacity: 1;" transform="translate(211.73,0)">2150</text></g><g class="xtick"><text text-anchor="middle" x="0" y="319" style="font-family: Helvetica; font-size: 15px; fill: rgb(42, 63, 95); fill-opacity: 1; white-space: pre; opacity: 1;" transform="translate(259.76,0)">2200</text></g><g class="xtick"><text text-anchor="middle" x="0" y="319" style="font-family: Helvetica; font-size: 15px; fill: rgb(42, 63, 95); fill-opacity: 1; white-space: pre; opacity: 1;" transform="translate(307.8,0)">2250</text></g><g class="xtick"><text text-anchor="middle" x="0" y="319" style="font-family: Helvetica; font-size: 15px; fill: rgb(42, 63, 95); fill-opacity: 1; white-space: pre; opacity: 1;" transform="translate(355.84,0)">2300</text></g><g class="xtick"><text text-anchor="middle" x="0" y="319" style="font-family: Helvetica; font-size: 15px; fill: rgb(42, 63, 95); fill-opacity: 1; white-space: pre; opacity: 1;" transform="translate(403.88,0)">2350</text></g></g><g class="yaxislayer-above"><g class="ytick"><text text-anchor="end" x="57" y="5.25" transform="translate(0,303)" style="font-family: Helvetica; font-size: 15px; fill: rgb(42, 63, 95); fill-opacity: 1; white-space: pre; opacity: 1;">0.05</text></g><g class="ytick"><text text-anchor="end" x="57" y="5.25" style="font-family: Helvetica; font-size: 15px; fill: rgb(42, 63, 95); fill-opacity: 1; white-space: pre; opacity: 1;" transform="translate(0,271)">0.1</text></g><g class="ytick"><text text-anchor="end" x="57" y="5.25" style="font-family: Helvetica; font-size: 15px; fill: rgb(42, 63, 95); fill-opacity: 1; white-space: pre; opacity: 1;" transform="translate(0,239)">0.15</text></g><g class="ytick"><text text-anchor="end" x="57" y="5.25" style="font-family: Helvetica; font-size: 15px; fill: rgb(42, 63, 95); fill-opacity: 1; white-space: pre; opacity: 1;" transform="translate(0,207)">0.2</text></g><g class="ytick"><text text-anchor="end" x="57" y="5.25" style="font-family: Helvetica; font-size: 15px; fill: rgb(42, 63, 95); fill-opacity: 1; white-space: pre; opacity: 1;" transform="translate(0,175)">0.25</text></g><g class="ytick"><text text-anchor="end" x="57" y="5.25" style="font-family: Helvetica; font-size: 15px; fill: rgb(42, 63, 95); fill-opacity: 1; white-space: pre; opacity: 1;" transform="translate(0,143)">0.3</text></g><g class="ytick"><text text-anchor="end" x="57" y="5.25" style="font-family: Helvetica; font-size: 15px; fill: rgb(42, 63, 95); fill-opacity: 1; white-space: pre; opacity: 1;" transform="translate(0,111)">0.35</text></g><g class="ytick"><text text-anchor="end" x="57" y="5.25" style="font-family: Helvetica; font-size: 15px; fill: rgb(42, 63, 95); fill-opacity: 1; white-space: pre; opacity: 1;" transform="translate(0,79)">0.4</text></g><g class="ytick"><text text-anchor="end" x="57" y="5.25" style="font-family: Helvetica; font-size: 15px; fill: rgb(42, 63, 95); fill-opacity: 1; white-space: pre; opacity: 1;" transform="translate(0,47)">0.45</text></g></g><g class="overaxes-above"/></g></g><g class="polarlayer"/><g class="smithlayer"/><g class="ternarylayer"/><g class="geolayer"/><g class="funnelarealayer"/><g class="pielayer"/><g class="iciclelayer"/><g class="treemaplayer"/><g class="sunburstlayer"/><g class="glimages"/><defs id="topdefs-103204"><g class="clips"/><clipPath id="legend103204"><rect width="373" height="34" x="0" y="0"/></clipPath></defs><g class="layer-above"><g class="imagelayer"/><g class="shapelayer"/></g><g class="infolayer"><g class="legend" pointer-events="all" transform="translate(77,0.19999999999998863)"><rect class="bg" shape-rendering="crispEdges" style="stroke: rgb(68, 68, 68); stroke-opacity: 1; fill: rgb(255, 255, 255); fill-opacity: 1; stroke-width: 0px;" width="373" height="34" x="0" y="0"/><g class="scrollbox" transform="" clip-path="url(#legend103204)"><text class="legendtitletext" text-anchor="start" x="2" y="23.400000000000002" style="font-family: Helvetica; font-size: 18px; fill: rgb(42, 63, 95); fill-opacity: 1; white-space: pre;">Parameter Set Group</text><g class="groups"><g class="traces" transform="translate(181.09375,16.25)" style="opacity: 1;"><text class="legendtext" text-anchor="start" x="40" y="5.85" style="font-family: Helvetica; font-size: 15px; fill: rgb(42, 63, 95); fill-opacity: 1; white-space: pre;">HPO</text><g class="layers" style="opacity: 1;"><g class="legendfill"/><g class="legendlines"><path class="js-line" d="M5,0h30" style="fill: none; stroke: rgb(99, 110, 250); stroke-opacity: 1; stroke-width: 2px;"/></g><g class="legendsymbols"><g class="legendpoints"/></g></g><rect class="legendtoggle" x="0" y="-11.25" width="75.015625" height="22.5" style="fill: rgb(0, 0, 0); fill-opacity: 0;"/></g><g class="traces" transform="translate(258.609375,16.25)" style="opacity: 1;"><text class="legendtext" text-anchor="start" x="40" y="5.85" style="font-family: Helvetica; font-size: 15px; fill: rgb(42, 63, 95); fill-opacity: 1; white-space: pre;">Reference</text><g class="layers" style="opacity: 1;"><g class="legendfill"/><g class="legendlines"><path class="js-line" d="M5,0h30" style="fill: none; stroke: rgb(239, 85, 59); stroke-opacity: 1; stroke-width: 2px;"/></g><g class="legendsymbols"><g class="legendpoints"/></g></g><rect class="legendtoggle" x="0" y="-11.25" width="111.71875" height="22.5" style="fill: rgb(0, 0, 0); fill-opacity: 0;"/></g></g></g><rect class="scrollbar" rx="20" ry="3" width="0" height="0" style="fill: rgb(128, 139, 164); fill-opacity: 1;" x="0" y="0"/></g><g class="g-gtitle"/><g class="g-xtitle" transform="translate(0,-4.100000000000023)"><text class="xtitle" x="254" y="350.1" text-anchor="middle" style="font-family: Helvetica; font-size: 18px; fill: rgb(42, 63, 95); opacity: 1; font-weight: normal; white-space: pre;">Iteration</text></g><g class="g-ytitle" transform="translate(16.302734375,0)"><text class="ytitle" transform="rotate(-90,0.19687499999999858,175)" x="0.19687499999999858" y="175" text-anchor="middle" style="font-family: Helvetica; font-size: 18px; fill: rgb(42, 63, 95); opacity: 1; font-weight: normal; white-space: pre;">RPD</text></g></g></svg>