<svg class="main-svg" xmlns="http://www.w3.org/2000/svg" xmlns:xlink="http://www.w3.org/1999/xlink" width="400" height="350" style="" viewBox="0 0 400 350"><rect x="0" y="0" width="400" height="350" style="fill: rgb(255, 255, 255); fill-opacity: 1;"/><defs id="defs-0936d1"><g class="clips"><clipPath id="clip0936d1xyplot" class="plotclip"><rect width="363" height="256"/></clipPath><clipPath class="axesclip" id="clip0936d1x"><rect x="37" y="0" width="363" height="350"/></clipPath><clipPath class="axesclip" id="clip0936d1y"><rect x="0" y="47" width="400" height="256"/></clipPath><clipPath class="axesclip" id="clip0936d1xy"><rect x="37" y="47" width="363" height="256"/></clipPath></g><g class="gradients"/><g class="patterns"/></defs><g class="bglayer"><rect class="bg" x="37" y="47" width="363" height="256" style="fill: rgb(229, 236, 246); fill-opacity: 1; stroke-width: 0;"/></g><g class="layer-below"><g class="imagelayer"/><g class="shapelayer"/></g><g class="cartesianlayer"><g class="subplot xy"><g class="layer-subplot"><g class="shapelayer"/><g class="imagelayer"/></g><g class="minor-gridlayer"><g class="x"/><g class="y"/></g><g class="gridlayer"><g class="x"><path class="xgrid crisp" transform="translate(49.68,0)" d="M0,47v256" style="stroke: rgb(255, 255, 255); stroke-opacity: 1; stroke-width: 1px;"/><path class="xgrid crisp" transform="translate(108.1,0)" d="M0,47v256" style="stroke: rgb(255, 255, 255); stroke-opacity: 1; stroke-width: 1px;"/><path class="xgrid crisp" transform="translate(166.51,0)" d="M0,47v256" style="stroke: rgb(255, 255, 255); stroke-opacity: 1; stroke-width: 1px;"/><path class="xgrid crisp" transform="translate(224.93,0)" d="M0,47v256" style="stroke: rgb(255, 255, 255); stroke-opacity: 1; stroke-width: 1px;"/><path class="xgrid crisp" transform="translate(283.34000000000003,0)" d="M0,47v256" style="stroke: rgb(255, 255, 255); stroke-opacity: 1; stroke-width: 1px;"/><path class="xgrid crisp" transform="translate(341.75,0)" d="M0,47v256" style="stroke: rgb(255, 255, 255); stroke-opacity: 1; stroke-width: 1px;"/></g><g class="y"><path class="ygrid crisp" transform="translate(0,256.45)" d="M37,0h363" style="stroke: rgb(255, 255, 255); stroke-opacity: 1; stroke-width: 1px;"/><path class="ygrid crisp" transform="translate(0,209.91)" d="M37,0h363" style="stroke: rgb(255, 255, 255); stroke-opacity: 1; stroke-width: 1px;"/><path class="ygrid crisp" transform="translate(0,163.36)" d="M37,0h363" style="stroke: rgb(255, 255, 255); stroke-opacity: 1; stroke-width: 1px;"/><path class="ygrid crisp" transform="translate(0,116.82)" d="M37,0h363" style="stroke: rgb(255, 255, 255); stroke-opacity: 1; stroke-width: 1px;"/><path class="ygrid crisp" transform="translate(0,70.27)" d="M37,0h363" style="stroke: rgb(255, 255, 255); stroke-opacity: 1; stroke-width: 1px;"/></g></g><g class="zerolinelayer"><path class="yzl zl crisp" transform="translate(0,303)" d="M37,0h363" style="stroke: rgb(255, 255, 255); stroke-opacity: 1; stroke-width: 2px;"/></g><path class="xlines-below"/><path class="ylines-below"/><g class="overlines-below"/><g class="xaxislayer-below"/><g class="yaxislayer-below"/><g class="overaxes-below"/><g class="plot" transform="translate(37,47)" clip-path="url(#clip0936d1xyplot)"><g class="scatterlayer mlayer"><g class="trace scatter tracef77128" style="stroke-miterlimit: 2; opacity: 1;"><g class="fills"/><g class="errorbars"/><g class="lines"><path class="js-line" d="M1,255.77L3.34,255.53L4.5,256L8.01,255.53L9.18,256L11.51,256L12.68,36.31L15.02,192.47L16.19,203.4L17.36,216.67L18.52,218.53L20.86,229.93L22.03,231.1L23.2,237.61L24.37,236.45L25.53,239.94L26.7,239.71L30.21,240.64L31.38,242.27L34.88,244.13L36.05,244.6L37.22,247.85L38.39,242.73L40.72,247.85L41.89,246.23L44.23,249.48L45.39,245.06L47.73,249.72L48.9,248.79L50.07,248.09L51.24,250.65L52.4,249.72L53.57,249.95L54.74,249.48L55.91,250.18L58.25,250.65L59.41,250.41L61.75,249.95L62.92,250.88L65.26,249.25L66.42,249.48L68.76,253.21L69.93,250.65L73.43,252.51L74.6,252.04L75.77,252.28L76.94,250.88L78.11,250.88L79.28,252.28L80.44,252.74L81.61,249.95L82.78,251.58L83.95,250.88L87.45,254.14L88.62,253.44L89.79,253.67L90.96,252.04L92.13,251.11L93.29,252.51L95.63,254.14L96.8,252.51L97.97,253.44L99.14,253.21L100.3,252.74L101.47,253.67L103.81,252.97L104.98,252.74L108.48,251.58L109.65,252.97L110.82,252.04L111.99,252.74L113.16,254.6L114.32,253.21L115.49,252.51L116.66,253.21L117.83,255.07L119,253.21L122.5,253.21L123.67,254.37L126.01,252.51L127.17,252.97L128.34,254.6L129.51,29.56L131.85,188.51L133.02,200.15L136.52,225.51L137.69,227.84L141.19,235.52L142.36,236.22L143.53,232.96L144.7,239.71L145.87,240.17L147.04,242.73L148.2,242.5L149.37,244.13L150.54,243.2L151.71,244.36L152.88,245.76L154.05,245.53L155.21,246.92L156.38,245.99L157.55,244.83L158.72,246.23L159.89,250.18L161.06,249.95L163.39,247.85L164.56,250.18L165.73,247.85L166.9,249.72L168.06,249.72L169.23,248.79L170.4,248.55L171.57,250.41L172.74,252.28L173.91,250.18L175.07,250.41L176.24,251.81L177.41,251.35L178.58,251.81L180.92,250.41L182.08,252.04L183.25,252.28L184.42,251.58L185.59,252.51L186.76,251.81L187.93,252.28L189.09,250.18L190.26,252.04L191.43,251.81L192.6,252.04L193.77,250.41L196.1,252.51L197.27,251.81L198.44,252.28L199.61,251.11L200.78,250.41L201.94,252.04L204.28,253.21L205.45,251.58L206.62,253.67L207.79,253.44L210.12,252.04L211.29,252.51L214.8,253.67L215.96,252.97L217.13,252.51L218.3,254.37L219.47,255.07L220.64,253.44L221.81,252.28L222.97,252.97L224.14,254.6L225.31,253.91L226.48,252.97L227.65,253.21L229.98,253.67L231.15,252.97L234.66,254.6L235.83,253.91L238.16,253.91L239.33,252.74L240.5,252.04L241.67,252.97L244,254.14L245.17,253.67L246.34,23.27L247.51,132.89L248.68,186.18L249.84,203.17L251.01,209.22L252.18,220.16L253.35,226.21L254.52,227.37L255.69,225.28L256.85,229.47L258.02,229.47L259.19,237.38L260.36,242.27L261.53,242.27L262.7,243.67L263.86,241.57L265.03,241.8L266.2,240.87L267.37,242.97L268.54,241.11L269.71,245.53L270.87,245.29L272.04,246.46L273.21,245.76L274.38,244.83L275.55,247.62L276.72,246.46L277.88,248.09L279.05,249.25L280.22,247.16L281.39,249.95L282.56,250.41L283.72,247.85L284.89,249.25L286.06,248.32L287.23,248.55L288.4,250.41L289.57,250.18L293.07,248.32L294.24,250.88L296.58,247.62L297.74,248.09L300.08,250.88L301.25,251.81L302.42,251.58L303.59,250.18L304.75,254.6L305.92,251.81L307.09,251.11L308.26,253.44L309.43,250.18L310.6,250.41L311.76,252.74L312.93,252.51L314.1,250.18L315.27,253.67L316.44,253.91L317.61,252.74L319.94,252.97L321.11,253.67L322.28,251.58L323.45,252.28L324.61,252.28L325.78,251.35L326.95,251.58L328.12,252.97L329.29,252.04L330.46,252.74L332.79,253.67L333.96,254.84L335.13,254.84L336.3,253.21L337.47,253.21L338.63,254.6L339.8,255.77L340.97,254.14L342.14,252.51L343.31,252.28L344.48,252.74L345.64,254.37L346.81,252.97L347.98,253.21L350.32,253.91L351.49,253.91L352.65,255.07L353.82,253.91L354.99,253.21L356.16,254.6L359.66,253.91L360.83,254.6" style="vector-effect: non-scaling-stroke; fill: none; stroke: rgb(99, 110, 250); stroke-opacity: 1; stroke-width: 2px; opacity: 1;"/></g><g class="points"/><g class="text"/></g><g class="trace scatter trace7b506e" style="stroke-miterlimit: 2; opacity: 1;"><g class="fills"/><g class="errorbars"/><g class="lines"><path class="js-line" d="M1,256L3.34,255.77L4.5,255.77L11.51,256L12.68,25.37L15.02,162.21L16.19,184.32L17.36,204.33L18.52,207.36L19.69,220.63L20.86,222.95L22.03,223.19L23.2,229.24L24.37,234.12L25.53,235.52L26.7,236.92L27.87,234.59L30.21,243.9L31.38,242.73L32.54,240.87L33.71,243.9L34.88,240.87L36.05,242.27L38.39,248.32L39.55,244.6L41.89,246.23L43.06,248.32L44.23,246.23L45.39,247.85L46.56,248.09L47.73,247.16L48.9,248.79L50.07,247.16L51.24,248.32L52.4,250.65L53.57,250.88L54.74,249.95L55.91,246.92L57.08,249.72L60.58,251.11L61.75,250.65L62.92,251.35L64.09,248.79L67.59,251.35L68.76,250.41L71.1,252.74L72.27,250.65L75.77,252.28L76.94,252.28L78.11,250.41L79.28,251.58L82.78,252.04L83.95,251.11L85.12,251.11L86.28,253.21L87.45,253.21L88.62,251.11L89.79,252.28L90.96,251.35L92.13,253.44L93.29,252.97L94.46,252.97L95.63,251.81L96.8,252.74L97.97,252.04L99.14,252.04L100.3,253.67L101.47,254.14L102.64,252.97L103.81,252.28L104.98,253.21L106.15,253.21L107.31,254.84L110.82,252.04L111.99,252.97L113.16,254.37L114.32,253.44L117.83,253.21L119,254.6L120.17,254.14L121.33,254.6L122.5,253.44L123.67,253.67L127.17,254.37L128.34,253.21L129.51,28.16L130.68,108.92L131.85,164.77L133.02,182.92L135.35,215.97L136.52,214.57L138.86,229.47L140.03,229.93L142.36,235.29L143.53,238.55L144.7,239.24L145.87,239.01L147.04,243.2L148.2,242.27L149.37,244.6L150.54,245.06L151.71,244.36L152.88,244.83L154.05,245.76L155.21,244.13L156.38,246.69L157.55,245.29L158.72,246.69L159.89,243.9L162.22,249.95L163.39,249.95L164.56,247.85L165.73,249.25L166.9,249.95L168.06,249.72L169.23,248.32L170.4,248.79L171.57,247.62L172.74,247.85L173.91,251.11L175.07,250.18L176.24,252.74L177.41,249.48L178.58,251.35L179.75,249.48L180.92,252.04L182.08,251.58L183.25,250.41L184.42,252.04L185.59,253.21L186.76,252.51L189.09,251.58L190.26,250.65L192.6,251.58L193.77,250.18L194.94,252.74L196.1,252.51L197.27,250.65L198.44,250.41L200.78,253.44L201.94,252.74L203.11,253.67L204.28,253.44L205.45,250.18L206.62,252.04L207.79,253.21L208.95,251.81L211.29,253.67L212.46,252.51L213.63,252.28L214.8,253.44L215.96,253.67L217.13,251.81L219.47,253.67L220.64,253.21L222.97,253.44L224.14,254.14L228.82,254.37L229.98,253.67L231.15,252.28L232.32,254.37L233.49,252.51L234.66,253.67L235.83,254.84L236.99,254.37L238.16,255.07L239.33,253.67L240.5,255.07L241.67,252.74L242.83,255.3L244,254.84L245.17,252.97L246.34,23.51L248.68,161.05L249.84,185.02L252.18,212.95L253.35,220.63L255.69,226.91L256.85,230.17L258.02,229.24L259.19,236.68L260.36,238.55L261.53,237.61L262.7,235.05L263.86,237.61L265.03,241.8L266.2,243.2L267.37,241.11L268.54,244.13L269.71,241.8L270.87,243.2L273.21,246.69L274.38,246.92L275.55,246.92L276.72,245.53L277.88,247.62L279.05,246.69L281.39,246.92L282.56,246.46L283.72,247.62L284.89,250.41L286.06,248.09L287.23,247.85L288.4,248.09L289.57,249.48L290.73,248.32L291.9,249.95L293.07,250.88L294.24,247.62L295.41,250.41L296.58,249.25L297.74,249.02L298.91,250.18L300.08,251.58L301.25,251.81L305.92,250.18L307.09,250.65L308.26,253.21L309.43,251.35L311.76,252.97L312.93,251.58L314.1,252.04L315.27,251.11L316.44,250.88L317.61,251.58L319.94,253.21L321.11,252.74L324.61,252.74L325.78,254.37L326.95,254.37L328.12,253.21L329.29,251.11L330.46,253.67L333.96,253.67L335.13,252.04L336.3,253.21L337.47,252.97L338.63,253.91L339.8,252.97L340.97,253.44L342.14,252.74L344.48,254.14L345.64,254.14L346.81,254.37L347.98,251.35L349.15,251.35L350.32,252.28L353.82,254.14L354.99,254.6L357.33,253.21L358.5,252.97L359.66,253.21L360.83,254.6" style="vector-effect: non-scaling-stroke; fill: none; stroke: rgb(239, 85, 59); stroke-opacity: 1; stroke-width: 2px; opacity: 1;"/></g><g class="points"/><g class="text"/></g><g class="trace scatter traceba72a0" style="stroke-miterlimit: 2; opacity: 1;"><g class="fills"/><g class="errorbars"/><g class="lines"><path class="js-line" d="M1,256L11.51,255.53L12.68,32.12L15.02,147.78L16.19,176.87L18.52,200.61L19.69,217.13L22.03,226.91L23.2,228.07L24.37,227.37L25.53,232.96L26.7,238.55L27.87,239.01L29.04,238.31L30.21,238.78L31.38,241.11L32.54,239.24L34.88,242.97L36.05,243.2L38.39,244.36L39.55,243.2L40.72,243.67L41.89,246.92L44.23,244.6L45.39,247.85L46.56,246.69L47.73,246.69L50.07,248.09L51.24,247.16L53.57,249.72L54.74,249.02L58.25,249.02L59.41,248.09L60.58,251.35L61.75,251.35L62.92,249.95L64.09,252.04L65.26,251.58L66.42,249.25L67.59,250.88L68.76,250.65L72.27,253.44L73.43,252.51L74.6,249.25L75.77,249.72L76.94,249.02L78.11,252.51L79.28,253.91L80.44,252.97L81.61,252.74L82.78,251.11L83.95,252.74L85.12,252.04L87.45,249.95L88.62,251.58L89.79,254.14L90.96,253.21L92.13,251.81L93.29,252.97L94.46,251.58L95.63,254.14L96.8,252.74L97.97,253.21L99.14,253.44L100.3,252.51L101.47,252.74L102.64,254.84L104.98,251.58L106.15,252.28L107.31,253.44L108.48,252.28L113.16,253.67L114.32,253.21L116.66,252.74L117.83,253.91L119,254.14L120.17,252.74L121.33,252.04L122.5,252.74L128.34,253.67L129.51,20.71L131.85,146.62L133.02,177.11L134.18,198.05L135.35,204.57L136.52,212.95L137.69,215.74L140.03,228.54L141.19,230.4L142.36,233.89L143.53,233.43L144.7,230.4L145.87,238.78L147.04,238.78L148.2,241.57L150.54,244.13L151.71,243.2L152.88,246.23L154.05,245.99L155.21,247.39L156.38,246.46L158.72,245.53L159.89,248.09L162.22,246.23L163.39,249.02L164.56,244.13L165.73,249.25L166.9,248.79L168.06,247.16L169.23,248.55L170.4,247.62L171.57,248.09L172.74,249.72L173.91,249.02L175.07,250.41L177.41,250.41L178.58,251.58L179.75,252.74L180.92,248.79L182.08,250.18L183.25,249.48L184.42,252.97L185.59,251.58L186.76,249.02L187.93,249.25L189.09,252.04L190.26,251.11L191.43,252.97L192.6,251.35L193.77,251.58L194.94,250.88L196.1,250.88L197.27,252.51L198.44,252.28L199.61,253.21L203.11,252.51L204.28,252.74L205.45,251.58L206.62,252.28L208.95,251.11L210.12,251.11L211.29,252.28L212.46,250.65L214.8,254.37L215.96,252.97L217.13,251.58L218.3,254.14L221.81,253.44L222.97,253.21L224.14,252.04L225.31,253.91L227.65,254.14L228.82,252.28L231.15,253.67L232.32,253.44L233.49,252.74L234.66,253.21L236.99,253.44L238.16,253.67L241.67,254.14L242.83,253.21L245.17,253.91L246.34,24.67L248.68,150.81L249.84,173.38L252.18,203.87L253.35,212.25L255.69,225.75L256.85,225.28L258.02,233.43L259.19,235.99L260.36,231.8L261.53,236.22L262.7,241.11L263.86,241.57L265.03,239.94L266.2,242.5L267.37,241.34L268.54,243.43L269.71,246.46L270.87,242.27L272.04,245.06L273.21,245.06L275.55,241.8L276.72,247.16L277.88,247.39L279.05,249.02L280.22,249.02L281.39,250.65L282.56,251.11L283.72,249.48L284.89,246.92L286.06,246.46L287.23,250.18L288.4,250.41L289.57,249.48L290.73,251.11L291.9,248.79L293.07,248.79L295.41,250.18L296.58,251.11L297.74,252.04L298.91,250.18L301.25,251.35L302.42,251.35L304.75,253.67L305.92,252.97L307.09,250.65L308.26,251.35L310.6,251.58L311.76,251.58L314.1,251.11L315.27,252.97L316.44,252.04L317.61,252.74L319.94,251.35L321.11,252.97L322.28,253.91L323.45,252.97L324.61,252.28L325.78,252.97L330.46,251.11L331.62,251.81L335.13,251.58L336.3,254.37L338.63,252.74L339.8,253.21L340.97,254.84L342.14,253.44L343.31,252.04L344.48,252.28L345.64,253.91L346.81,253.67L352.65,254.14L353.82,254.14L357.33,253.44L358.5,254.14L360.83,253.44" style="vector-effect: non-scaling-stroke; fill: none; stroke: rgb(0, 204, 150); stroke-opacity: 1; stroke-width: 2px; opacity: 1;"/></g><g class="points"/><g class="text"/></g></g></g><g class="overplot"/><path class="xlines-above crisp" d="M0,0" style="fill: none;"/><path class="ylines-above crisp" d="M0,0" style="fill: none;"/><g class="overlines-above"/><g class="xaxislayer-above"><g class="xtick"><text text-anchor="middle" x="0" y="319" transform="translate(49.68,0)" style="font-family: Helvetica; font-size: 15px; fill: rgb(42, 63, 95); fill-opacity: 1; white-space: pre; opacity: 1;">2000</text></g><g class="xtick"><text text-anchor="middle" x="0" y="319" style="font-family: Helvetica; font-size: 15px; fill: rgb(42, 63, 95); fill-opacity: 1; white-space: pre; opacity: 1;" transform="translate(108.1,0)">2050</text></g><g class="xtick"><text text-anchor="middle" x="0" y="319" style="font-family: Helvetica; font-size: 15px; fill: rgb(42, 63, 95); fill-opacity: 1; white-space: pre; opacity: 1;" transform="translate(166.51,0)">2100</text></g><g class="xtick"><text text-anchor="middle" x="0" y="319" style="font-family: Helvetica; font-size: 15px; fill: rgb(42, 63, 95); fill-opacity: 1; white-space: pre; opacity: 1;" transform="translate(224.93,0)">2150</text></g><g class="xtick"><text text-anchor="middle" x="0" y="319" style="font-family: Helvetica; font-size: 15px; fill: rgb(42, 63, 95); fill-opacity: 1; white-space: pre; opacity: 1;" transform="translate(283.34000000000003,0)">2200</text></g><g class="xtick"><text text-anchor="middle" x="0" y="319" style="font-family: Helvetica; font-size: 15px; fill: rgb(42, 63, 95); fill-opacity: 1; white-space: pre; opacity: 1;" transform="translate(341.75,0)">2250</text></g></g><g class="yaxislayer-above"><g class="ytick"><text text-anchor="end" x="36" y="5.25" transform="translate(0,303)" style="font-family: Helvetica; font-size: 15px; fill: rgb(42, 63, 95); fill-opacity: 1; white-space: pre; opacity: 1;">0</text></g><g class="ytick"><text text-anchor="end" x="36" y="5.25" style="font-family: Helvetica; font-size: 15px; fill: rgb(42, 63, 95); fill-opacity: 1; white-space: pre; opacity: 1;" transform="translate(0,256.45)">1</text></g><g class="ytick"><text text-anchor="end" x="36" y="5.25" style="font-family: Helvetica; font-size: 15px; fill: rgb(42, 63, 95); fill-opacity: 1; white-space: pre; opacity: 1;" transform="translate(0,209.91)">2</text></g><g class="ytick"><text text-anchor="end" x="36" y="5.25" style="font-family: Helvetica; font-size: 15px; fill: rgb(42, 63, 95); fill-opacity: 1; white-space: pre; opacity: 1;" transform="translate(0,163.36)">3</text></g><g class="ytick"><text text-anchor="end" x="36" y="5.25" style="font-family: Helvetica; font-size: 15px; fill: rgb(42, 63, 95); fill-opacity: 1; white-space: pre; opacity: 1;" transform="translate(0,116.82)">4</text></g><g class="ytick"><text text-anchor="end" x="36" y="5.25" style="font-family: Helvetica; font-size: 15px; fill: rgb(42, 63, 95); fill-opacity: 1; white-space: pre; opacity: 1;" transform="translate(0,70.27)">5</text></g></g><g class="overaxes-above"/></g></g><g class="polarlayer"/><g class="smithlayer"/><g class="ternarylayer"/><g class="geolayer"/><g class="funnelarealayer"/><g class="pielayer"/><g class="iciclelayer"/><g class="treemaplayer"/><g class="sunburstlayer"/><g class="glimages"/><defs id="topdefs-0936d1"><g class="clips"/><clipPath id="legend0936d1"><rect width="375" height="34" x="0" y="0"/></clipPath></defs><g class="layer-above"><g class="imagelayer"/><g class="shapelayer"><path data-index="0" fill-rule="evenodd" d="M38,151.73000000000002L399,151.73000000000002" clip-path="url(#clip0936d1xy)" style="opacity: 1; stroke: rgb(0, 0, 0); stroke-opacity: 1; fill: rgb(0, 0, 0); fill-opacity: 0; stroke-dasharray: 9px, 9px; stroke-width: 2px;"/><path data-index="1" fill-rule="evenodd" d="M38,151.73000000000002L399,151.73000000000002" clip-path="url(#clip0936d1xy)" style="opacity: 1; stroke: rgb(0, 0, 0); stroke-opacity: 1; fill: rgb(0, 0, 0); fill-opacity: 0; stroke-dasharray: 9px, 9px; stroke-width: 2px;"/><path data-index="2" fill-rule="evenodd" d="M38,151.73000000000002L399,151.73000000000002" clip-path="url(#clip0936d1xy)" style="opacity: 1; stroke: rgb(0, 0, 0); stroke-opacity: 1; fill: rgb(0, 0, 0); fill-opacity: 0; stroke-dasharray: 9px, 9px; stroke-width: 2px;"/></g></g><g class="infolayer"><g class="legend" pointer-events="all" transform="translate(25,0.19999999999998863)"><rect class="bg" shape-rendering="crispEdges" style="stroke: rgb(68, 68, 68); stroke-opacity: 1; fill: rgb(255, 255, 255); fill-opacity: 1; stroke-width: 0px;" width="375" height="34" x="0" y="0"/><g class="scrollbox" transform="" clip-path="url(#legend0936d1)"><text class="legendtitletext" text-anchor="start" x="2" y="23.400000000000002" style="font-family: Helvetica; font-size: 18px; fill: rgb(42, 63, 95); fill-opacity: 1; white-space: pre;">Dynamic intensity C</text><g class="groups"><g class="traces" transform="translate(169.046875,16.25)" style="opacity: 1;"><text class="legendtext" text-anchor="start" x="40" y="5.85" style="font-family: Helvetica; font-size: 15px; fill: rgb(42, 63, 95); fill-opacity: 1; white-space: pre;">0.1</text><g class="layers" style="opacity: 1;"><g class="legendfill"/><g class="legendlines"><path class="js-line" d="M5,0h30" style="fill: none; stroke: rgb(99, 110, 250); stroke-opacity: 1; stroke-width: 2px;"/></g><g class="legendsymbols"><g class="legendpoints"/></g></g><rect class="legendtoggle" x="0" y="-11.25" width="63.359375" height="22.5" style="fill: rgb(0, 0, 0); fill-opacity: 0;"/></g><g class="traces" transform="translate(234.90625,16.25)" style="opacity: 1;"><text class="legendtext" text-anchor="start" x="40" y="5.85" style="font-family: Helvetica; font-size: 15px; fill: rgb(42, 63, 95); fill-opacity: 1; white-space: pre;">0.25</text><g class="layers" style="opacity: 1;"><g class="legendfill"/><g class="legendlines"><path class="js-line" d="M5,0h30" style="fill: none; stroke: rgb(239, 85, 59); stroke-opacity: 1; stroke-width: 2px;"/></g><g class="legendsymbols"><g class="legendpoints"/></g></g><rect class="legendtoggle" x="0" y="-11.25" width="71.703125" height="22.5" style="fill: rgb(0, 0, 0); fill-opacity: 0;"/></g><g class="traces" transform="translate(309.109375,16.25)" style="opacity: 1;"><text class="legendtext" text-anchor="start" x="40" y="5.85" style="font-family: Helvetica; font-size: 15px; fill: rgb(42, 63, 95); fill-opacity: 1; white-space: pre;">0.5</text><g class="layers" style="opacity: 1;"><g class="legendfill"/><g class="legendlines"><path class="js-line" d="M5,0h30" style="fill: none; stroke: rgb(0, 204, 150); stroke-opacity: 1; stroke-width: 2px;"/></g><g class="legendsymbols"><g class="legendpoints"/></g></g><rect class="legendtoggle" x="0" y="-11.25" width="63.359375" height="22.5" style="fill: rgb(0, 0, 0); fill-opacity: 0;"/></g></g></g><rect class="scrollbar" rx="20" ry="3" width="0" height="0" style="fill: rgb(128, 139, 164); fill-opacity: 1;" x="0" y="0"/></g><g class="g-gtitle"/><g class="g-xtitle" transform="translate(0,-4.100000000000023)"><text class="xtitle" x="218.5" y="350.1" text-anchor="middle" style="font-family: Helvetica; font-size: 18px; fill: rgb(42, 63, 95); opacity: 1; font-weight: normal; white-space: pre;">Iteration</text></g><g class="g-ytitle" transform="translate(16.443359375,0)"><text class="ytitle" transform="rotate(-90,0.05624999999999858,175)" x="0.05624999999999858" y="175" text-anchor="middle" style="font-family: Helvetica; font-size: 18px; fill: rgb(42, 63, 95); opacity: 1; font-weight: normal; white-space: pre;">Swaps</text></g></g></svg>