<svg class="main-svg" xmlns="http://www.w3.org/2000/svg" xmlns:xlink="http://www.w3.org/1999/xlink" width="450" height="350" style="" viewBox="0 0 450 350"><rect x="0" y="0" width="450" height="350" style="fill: rgb(255, 255, 255); fill-opacity: 1;"/><defs id="defs-fd97b9"><g class="clips"><clipPath id="clipfd97b9xyplot" class="plotclip"><rect width="392" height="256"/></clipPath><clipPath class="axesclip" id="clipfd97b9x"><rect x="58" y="0" width="392" height="350"/></clipPath><clipPath class="axesclip" id="clipfd97b9y"><rect x="0" y="47" width="450" height="256"/></clipPath><clipPath class="axesclip" id="clipfd97b9xy"><rect x="58" y="47" width="392" height="256"/></clipPath></g><g class="gradients"/><g class="patterns"/></defs><g class="bglayer"><rect class="bg" x="58" y="47" width="392" height="256" style="fill: rgb(229, 236, 246); fill-opacity: 1; stroke-width: 0;"/></g><g class="layer-below"><g class="imagelayer"/><g class="shapelayer"/></g><g class="cartesianlayer"><g class="subplot xy"><g class="layer-subplot"><g class="shapelayer"/><g class="imagelayer"/></g><g class="minor-gridlayer"><g class="x"/><g class="y"/></g><g class="gridlayer"><g class="x"><path class="xgrid crisp" transform="translate(67.61,0)" d="M0,47v256" style="stroke: rgb(255, 255, 255); stroke-opacity: 1; stroke-width: 1px;"/><path class="xgrid crisp" transform="translate(115.65,0)" d="M0,47v256" style="stroke: rgb(255, 255, 255); stroke-opacity: 1; stroke-width: 1px;"/><path class="xgrid crisp" transform="translate(163.69,0)" d="M0,47v256" style="stroke: rgb(255, 255, 255); stroke-opacity: 1; stroke-width: 1px;"/><path class="xgrid crisp" transform="translate(211.73,0)" d="M0,47v256" style="stroke: rgb(255, 255, 255); stroke-opacity: 1; stroke-width: 1px;"/><path class="xgrid crisp" transform="translate(259.76,0)" d="M0,47v256" style="stroke: rgb(255, 255, 255); stroke-opacity: 1; stroke-width: 1px;"/><path class="xgrid crisp" transform="translate(307.8,0)" d="M0,47v256" style="stroke: rgb(255, 255, 255); stroke-opacity: 1; stroke-width: 1px;"/><path class="xgrid crisp" transform="translate(355.84,0)" d="M0,47v256" style="stroke: rgb(255, 255, 255); stroke-opacity: 1; stroke-width: 1px;"/><path class="xgrid crisp" transform="translate(403.88,0)" d="M0,47v256" style="stroke: rgb(255, 255, 255); stroke-opacity: 1; stroke-width: 1px;"/></g><g class="y"><path class="ygrid crisp" transform="translate(0,291.43)" d="M58,0h392" style="stroke: rgb(255, 255, 255); stroke-opacity: 1; stroke-width: 1px;"/><path class="ygrid crisp" transform="translate(0,263.90999999999997)" d="M58,0h392" style="stroke: rgb(255, 255, 255); stroke-opacity: 1; stroke-width: 1px;"/><path class="ygrid crisp" transform="translate(0,236.4)" d="M58,0h392" style="stroke: rgb(255, 255, 255); stroke-opacity: 1; stroke-width: 1px;"/><path class="ygrid crisp" transform="translate(0,208.88)" d="M58,0h392" style="stroke: rgb(255, 255, 255); stroke-opacity: 1; stroke-width: 1px;"/><path class="ygrid crisp" transform="translate(0,181.36)" d="M58,0h392" style="stroke: rgb(255, 255, 255); stroke-opacity: 1; stroke-width: 1px;"/><path class="ygrid crisp" transform="translate(0,153.85)" d="M58,0h392" style="stroke: rgb(255, 255, 255); stroke-opacity: 1; stroke-width: 1px;"/><path class="ygrid crisp" transform="translate(0,126.33)" d="M58,0h392" style="stroke: rgb(255, 255, 255); stroke-opacity: 1; stroke-width: 1px;"/><path class="ygrid crisp" transform="translate(0,98.81)" d="M58,0h392" style="stroke: rgb(255, 255, 255); stroke-opacity: 1; stroke-width: 1px;"/><path class="ygrid crisp" transform="translate(0,71.3)" d="M58,0h392" style="stroke: rgb(255, 255, 255); stroke-opacity: 1; stroke-width: 1px;"/></g></g><g class="zerolinelayer"/><path class="xlines-below"/><path class="ylines-below"/><g class="overlines-below"/><g class="xaxislayer-below"/><g class="yaxislayer-below"/><g class="overaxes-below"/><g class="plot" transform="translate(58,47)" clip-path="url(#clipfd97b9xyplot)"><g class="scatterlayer mlayer"><g class="trace scatter trace37eea6" style="stroke-miterlimit: 2; opacity: 1;"><g class="fills"/><g class="errorbars"/><g class="lines"><path class="js-line" d="M0,242.54L8.65,242.64L9.61,-82.46L11.53,58.36L12.49,81.87L14.41,109.39L15.37,115.92L18.25,129.97L19.22,134.45L22.1,144.45L23.06,147.09L28.82,161.22L29.78,162.44L33.63,168.67L34.59,169.95L35.55,170.47L36.51,171.9L43.24,179.28L44.2,179.6L56.69,188.87L57.65,189.22L62.45,192.14L63.41,192.59L78.78,197.93L79.75,198.53L83.59,199.83L84.55,200.03L95.12,202.64L96.08,202.75L104.73,204.6L105.69,-87.56L107.61,43.98L108.57,67.01L111.45,98.96L112.41,106.66L114.33,118.85L115.29,122.56L117.22,129.53L118.18,133.65L121.06,142.65L122.02,145.03L125.86,151.59L126.82,154.22L129.71,159.1L130.67,160.12L133.55,163.81L134.51,165.2L138.35,169.08L139.31,169.42L142.2,171.88L143.16,172.41L146.04,174.34L147,174.92L149.88,177.5L150.84,177.98L155.65,181.3L156.61,181.73L158.53,182.66L159.49,183.31L188.31,195.22L189.27,195.41L195.04,196.64L196,196.99L200.8,198.31L201.76,-88.37L203.69,42.13L204.65,62.99L206.57,88.81L207.53,95.61L211.37,116.59L212.33,120.84L215.22,129.35L216.18,132.08L219.06,139.28L220.02,141.24L222.9,147.49L223.86,148.67L228.67,157.04L229.63,158.35L235.39,164.33L236.35,165.07L242.12,169.21L243.08,170.2L245,171.93L245.96,172.45L254.61,177.79L255.57,178.54L258.45,180.26L259.41,180.45L271.9,185.21L272.86,185.48L278.63,187.66L279.59,188.18L295.92,192.71L296.88,192.85L297.84,-83.59L298.8,8.46L300.73,66.44L301.69,80L305.53,108.13L306.49,113.6L312.25,135.77L313.22,137.8L316.1,144.62L317.06,146.4L318.98,148.62L319.94,149.83L324.75,155.27L325.71,157.25L329.55,161.38L330.51,162.28L337.24,169.35L338.2,170.09L347.8,175.51L348.76,175.89L363.18,182.84L364.14,182.99L392,191.93" style="vector-effect: non-scaling-stroke; fill: none; stroke: rgb(99, 110, 250); stroke-opacity: 1; stroke-width: 2px; opacity: 1;"/></g><g class="points"/><g class="text"/></g><g class="trace scatter trace4c7cfc" style="stroke-miterlimit: 2; opacity: 1;"><g class="fills"/><g class="errorbars"/><g class="lines"><path class="js-line" d="M0,245.01L8.65,245.13L9.61,-3734.65L11.53,-109.41L12.49,10.65L14.41,49.78L15.37,64.6L16.33,74.09L17.29,21.31L18.25,85.43L19.22,73.34L20.18,97.11L21.14,101.8L26.9,121L27.86,122.72L32.67,132.54L33.63,134.5L40.35,145.88L41.31,146.66L48.04,154.5L49,155.16L55.73,162.34L56.69,162.72L69.18,170.82L70.14,171.17L78.78,176.35L79.75,177.24L84.55,178.95L85.51,179.15L91.27,181.26L92.24,181.77L98.96,184.58L99.92,184.86L104.73,186.49L105.69,-4167.75L108.57,-57.34L109.53,26.65L112.41,59.95L113.37,67.62L116.25,90.6L117.22,94.36L119.14,100.1L120.1,106.06L121.06,109.85L122.02,58.62L122.98,114.73L123.94,117.75L126.82,123.49L127.78,125.86L131.63,132.01L132.59,133.45L136.43,139.66L137.39,141.26L139.31,143.54L140.27,144.43L154.69,158.88L155.65,159.56L163.33,164.29L164.29,164.7L171.02,167.76L171.98,168.45L174.86,169.76L175.82,170.09L179.67,172.29L180.63,172.46L184.47,173.82L185.43,174.57L190.24,177.02L191.2,177.15L200.8,180.31L201.76,-3845.33L203.69,-134.57L204.65,7.22L207.53,55.61L208.49,63.52L212.33,89.2L213.29,94.29L221.94,119.64L222.9,121.52L230.59,133.32L231.55,134.55L232.51,135.22L233.47,75.67L234.43,137.05L235.39,139.83L237.31,142.05L238.27,143.22L246.92,150.96L247.88,151.74L258.45,159.73L259.41,159.96L264.22,162.45L265.18,162.81L269.98,165.16L270.94,165.58L273.82,166.97L274.78,167.51L296.88,176.89L297.84,-3344.8L299.76,-96.14L300.73,0.54L301.69,22.74L302.65,-22.36L303.61,48.08L304.57,55.71L305.53,5.84L306.49,70L309.37,88.66L310.33,92.02L317.06,114.45L318.02,116.3L322.82,128.46L323.78,129.26L329.55,138.47L330.51,139.44L333.39,143.2L334.35,144.73L338.2,149.39L339.16,149.81L349.73,157.74L350.69,158.2L360.29,164.06L361.25,164.39L368.94,168.33L369.9,169.09L378.55,173.48L379.51,173.84L389.12,177.66L390.08,178.35L392,178.79" style="vector-effect: non-scaling-stroke; fill: none; stroke: rgb(239, 85, 59); stroke-opacity: 1; stroke-width: 2px; opacity: 1;"/></g><g class="points"/><g class="text"/></g><g class="trace scatter trace6a2a68" style="stroke-miterlimit: 2; opacity: 1;"><g class="fills"/><g class="errorbars"/><g class="lines"><path class="js-line" d="M0,243.06L8.65,243.07L9.61,-695.17L11.53,-51.3L12.49,-5.48L15.37,44.16L16.33,56.76L19.22,76.16L20.18,81.43L24.02,97.04L24.98,100.16L29.78,116.92L30.75,119.25L43.24,138.88L44.2,139.81L52.84,148.17L53.8,148.77L60.53,154.11L61.49,154.79L63.41,156.35L64.37,156.93L67.25,159.45L68.22,160.26L71.1,162.65L72.06,163.3L78.78,167.42L79.75,167.9L85.51,170.08L86.47,170.57L98,175.45L98.96,175.93L104.73,179.26L105.69,-887.62L107.61,-29.04L108.57,2.86L111.45,45.81L112.41,53.4L117.22,82.87L118.18,87.87L122.98,104.68L123.94,107.5L127.78,116.45L128.75,119.38L133.55,127.64L134.51,129.83L147,145.73L147.96,146.2L153.73,152.23L154.69,152.98L159.49,156.04L160.45,156.75L162.37,158.41L163.33,159.06L173.9,165.61L174.86,166.14L177.75,167.17L178.71,168.04L181.59,169.24L182.55,169.45L195.04,174.08L196,174.36L200.8,176.24L201.76,-629.82L203.69,-28.74L204.65,-60.03L205.61,15.67L208.49,51.52L209.45,58.21L217.14,94.11L218.1,97.19L220.98,103.75L221.94,106.34L227.71,118.92L228.67,120.24L234.43,131.38L235.39,132.67L246.92,146.42L247.88,147.36L252.69,151.42L253.65,152.34L257.49,155.78L258.45,156.22L267.1,161.73L268.06,162.22L272.86,165.04L273.82,165.31L283.43,169.99L284.39,170.38L294,174.54L294.96,174.68L296.88,175.25L297.84,-901.83L299.76,-33.24L300.73,-5.19L303.61,36.9L304.57,47.7L307.45,66.63L308.41,72.28L313.22,93.18L314.18,96.26L320.9,113.59L321.86,115.05L328.59,126.16L329.55,127.56L331.47,131.08L332.43,132.2L343.96,145.29L344.92,146.18L347.8,148.8L348.76,149.38L357.41,154.54L358.37,155.43L367.02,161.01L367.98,161.51L372.78,164.03L373.75,164.41L379.51,167.38L380.47,168.06L392,173.37" style="vector-effect: non-scaling-stroke; fill: none; stroke: rgb(0, 204, 150); stroke-opacity: 1; stroke-width: 2px; opacity: 1;"/></g><g class="points"/><g class="text"/></g></g></g><g class="overplot"/><path class="xlines-above crisp" d="M0,0" style="fill: none;"/><path class="ylines-above crisp" d="M0,0" style="fill: none;"/><g class="overlines-above"/><g class="xaxislayer-above"><g class="xtick"><text text-anchor="middle" x="0" y="319" transform="translate(67.61,0)" style="font-family: Helvetica; font-size: 15px; fill: rgb(42, 63, 95); fill-opacity: 1; white-space: pre; opacity: 1;">2000</text></g><g class="xtick"><text text-anchor="middle" x="0" y="319" style="font-family: Helvetica; font-size: 15px; fill: rgb(42, 63, 95); fill-opacity: 1; white-space: pre; opacity: 1;" transform="translate(115.65,0)">2050</text></g><g class="xtick"><text text-anchor="middle" x="0" y="319" style="font-family: Helvetica; font-size: 15px; fill: rgb(42, 63, 95); fill-opacity: 1; white-space: pre; opacity: 1;" transform="translate(163.69,0)">2100</text></g><g class="xtick"><text text-anchor="middle" x="0" y="319" style="font-family: Helvetica; font-size: 15px; fill: rgb(42, 63, 95); fill-opacity: 1; white-space: pre; opacity: 1;" transform="translate(211.73,0)">2150</text></g><g class="xtick"><text text-anchor="middle" x="0" y="319" style="font-family: Helvetica; font-size: 15px; fill: rgb(42, 63, 95); fill-opacity: 1; white-space: pre; opacity: 1;" transform="translate(259.76,0)">2200</text></g><g class="xtick"><text text-anchor="middle" x="0" y="319" style="font-family: Helvetica; font-size: 15px; fill: rgb(42, 63, 95); fill-opacity: 1; white-space: pre; opacity: 1;" transform="translate(307.8,0)">2250</text></g><g class="xtick"><text text-anchor="middle" x="0" y="319" style="font-family: Helvetica; font-size: 15px; fill: rgb(42, 63, 95); fill-opacity: 1; white-space: pre; opacity: 1;" transform="translate(355.84,0)">2300</text></g><g class="xtick"><text text-anchor="middle" x="0" y="319" style="font-family: Helvetica; font-size: 15px; fill: rgb(42, 63, 95); fill-opacity: 1; white-space: pre; opacity: 1;" transform="translate(403.88,0)">2350</text></g></g><g class="yaxislayer-above"><g class="ytick"><text text-anchor="end" x="57" y="5.25" transform="translate(0,291.43)" style="font-family: Helvetica; font-size: 15px; fill: rgb(42, 63, 95); fill-opacity: 1; white-space: pre; opacity: 1;">0.04</text></g><g class="ytick"><text text-anchor="end" x="57" y="5.25" style="font-family: Helvetica; font-size: 15px; fill: rgb(42, 63, 95); fill-opacity: 1; white-space: pre; opacity: 1;" transform="translate(0,263.90999999999997)">0.06</text></g><g class="ytick"><text text-anchor="end" x="57" y="5.25" style="font-family: Helvetica; font-size: 15px; fill: rgb(42, 63, 95); fill-opacity: 1; white-space: pre; opacity: 1;" transform="translate(0,236.4)">0.08</text></g><g class="ytick"><text text-anchor="end" x="57" y="5.25" style="font-family: Helvetica; font-size: 15px; fill: rgb(42, 63, 95); fill-opacity: 1; white-space: pre; opacity: 1;" transform="translate(0,208.88)">0.1</text></g><g class="ytick"><text text-anchor="end" x="57" y="5.25" style="font-family: Helvetica; font-size: 15px; fill: rgb(42, 63, 95); fill-opacity: 1; white-space: pre; opacity: 1;" transform="translate(0,181.36)">0.12</text></g><g class="ytick"><text text-anchor="end" x="57" y="5.25" style="font-family: Helvetica; font-size: 15px; fill: rgb(42, 63, 95); fill-opacity: 1; white-space: pre; opacity: 1;" transform="translate(0,153.85)">0.14</text></g><g class="ytick"><text text-anchor="end" x="57" y="5.25" style="font-family: Helvetica; font-size: 15px; fill: rgb(42, 63, 95); fill-opacity: 1; white-space: pre; opacity: 1;" transform="translate(0,126.33)">0.16</text></g><g class="ytick"><text text-anchor="end" x="57" y="5.25" style="font-family: Helvetica; font-size: 15px; fill: rgb(42, 63, 95); fill-opacity: 1; white-space: pre; opacity: 1;" transform="translate(0,98.81)">0.18</text></g><g class="ytick"><text text-anchor="end" x="57" y="5.25" style="font-family: Helvetica; font-size: 15px; fill: rgb(42, 63, 95); fill-opacity: 1; white-space: pre; opacity: 1;" transform="translate(0,71.3)">0.2</text></g></g><g class="overaxes-above"/></g></g><g class="polarlayer"/><g class="smithlayer"/><g class="ternarylayer"/><g class="geolayer"/><g class="funnelarealayer"/><g class="pielayer"/><g class="iciclelayer"/><g class="treemaplayer"/><g class="sunburstlayer"/><g class="glimages"/><defs id="topdefs-fd97b9"><g class="clips"/><clipPath id="legendfd97b9"><rect width="375" height="34" x="0" y="0"/></clipPath></defs><g class="layer-above"><g class="imagelayer"/><g class="shapelayer"/></g><g class="infolayer"><g class="legend" pointer-events="all" transform="translate(75,0.19999999999998863)"><rect class="bg" shape-rendering="crispEdges" width="375" height="34" x="0" y="0" style="stroke: rgb(68, 68, 68); stroke-opacity: 1; fill: rgb(255, 255, 255); fill-opacity: 1; stroke-width: 0px;"/><g class="scrollbox" transform="" clip-path="url(#legendfd97b9)"><text class="legendtitletext" text-anchor="start" x="2" y="23.400000000000002" style="font-family: Helvetica; font-size: 18px; fill: rgb(42, 63, 95); fill-opacity: 1; white-space: pre;">Dynamic intensity C</text><g class="groups"><g class="traces" transform="translate(169.046875,16.25)" style="opacity: 1;"><text class="legendtext" text-anchor="start" x="40" y="5.85" style="font-family: Helvetica; font-size: 15px; fill: rgb(42, 63, 95); fill-opacity: 1; white-space: pre;">0.1</text><g class="layers" style="opacity: 1;"><g class="legendfill"/><g class="legendlines"><path class="js-line" d="M5,0h30" style="fill: none; stroke: rgb(99, 110, 250); stroke-opacity: 1; stroke-width: 2px;"/></g><g class="legendsymbols"><g class="legendpoints"/></g></g><rect class="legendtoggle" x="0" y="-11.25" width="63.359375" height="22.5" style="fill: rgb(0, 0, 0); fill-opacity: 0;"/></g><g class="traces" transform="translate(234.90625,16.25)" style="opacity: 1;"><text class="legendtext" text-anchor="start" x="40" y="5.85" style="font-family: Helvetica; font-size: 15px; fill: rgb(42, 63, 95); fill-opacity: 1; white-space: pre;">0.25</text><g class="layers" style="opacity: 1;"><g class="legendfill"/><g class="legendlines"><path class="js-line" d="M5,0h30" style="fill: none; stroke: rgb(239, 85, 59); stroke-opacity: 1; stroke-width: 2px;"/></g><g class="legendsymbols"><g class="legendpoints"/></g></g><rect class="legendtoggle" x="0" y="-11.25" width="71.703125" height="22.5" style="fill: rgb(0, 0, 0); fill-opacity: 0;"/></g><g class="traces" transform="translate(309.109375,16.25)" style="opacity: 1;"><text class="legendtext" text-anchor="start" x="40" y="5.85" style="font-family: Helvetica; font-size: 15px; fill: rgb(42, 63, 95); fill-opacity: 1; white-space: pre;">0.5</text><g class="layers" style="opacity: 1;"><g class="legendfill"/><g class="legendlines"><path class="js-line" d="M5,0h30" style="fill: none; stroke: rgb(0, 204, 150); stroke-opacity: 1; stroke-width: 2px;"/></g><g class="legendsymbols"><g class="legendpoints"/></g></g><rect class="legendtoggle" x="0" y="-11.25" width="63.359375" height="22.5" style="fill: rgb(0, 0, 0); fill-opacity: 0;"/></g></g></g><rect class="scrollbar" rx="20" ry="3" width="0" height="0" x="0" y="0" style="fill: rgb(128, 139, 164); fill-opacity: 1;"/></g><g class="g-gtitle"/><g class="g-xtitle" transform="translate(0,-4.100000000000023)"><text class="xtitle" x="254" y="350.1" text-anchor="middle" style="font-family: Helvetica; font-size: 18px; fill: rgb(42, 63, 95); opacity: 1; font-weight: normal; white-space: pre;">Iteration</text></g><g class="g-ytitle" transform="translate(16.302734375,0)"><text class="ytitle" transform="rotate(-90,0.19687499999999858,175)" x="0.19687499999999858" y="175" text-anchor="middle" style="font-family: Helvetica; font-size: 18px; fill: rgb(42, 63, 95); opacity: 1; font-weight: normal; white-space: pre;">RPD</text></g></g></svg>