<svg class="main-svg" xmlns="http://www.w3.org/2000/svg" xmlns:xlink="http://www.w3.org/1999/xlink" width="400" height="350" style="" viewBox="0 0 400 350"><rect x="0" y="0" width="400" height="350" style="fill: rgb(255, 255, 255); fill-opacity: 1;"/><defs id="defs-cc9bfc"><g class="clips"><clipPath id="clipcc9bfcxyplot" class="plotclip"><rect width="363" height="256"/></clipPath><clipPath class="axesclip" id="clipcc9bfcx"><rect x="37" y="0" width="363" height="350"/></clipPath><clipPath class="axesclip" id="clipcc9bfcy"><rect x="0" y="47" width="400" height="256"/></clipPath><clipPath class="axesclip" id="clipcc9bfcxy"><rect x="37" y="47" width="363" height="256"/></clipPath></g><g class="gradients"/><g class="patterns"/></defs><g class="bglayer"><rect class="bg" x="37" y="47" width="363" height="256" style="fill: rgb(229, 236, 246); fill-opacity: 1; stroke-width: 0;"/></g><g class="layer-below"><g class="imagelayer"/><g class="shapelayer"/></g><g class="cartesianlayer"><g class="subplot xy"><g class="layer-subplot"><g class="shapelayer"/><g class="imagelayer"/></g><g class="minor-gridlayer"><g class="x"/><g class="y"/></g><g class="gridlayer"><g class="x"><path class="xgrid crisp" transform="translate(48.79,0)" d="M0,47v256" style="stroke: rgb(255, 255, 255); stroke-opacity: 1; stroke-width: 1px;"/><path class="xgrid crisp" transform="translate(107.71,0)" d="M0,47v256" style="stroke: rgb(255, 255, 255); stroke-opacity: 1; stroke-width: 1px;"/><path class="xgrid crisp" transform="translate(166.64,0)" d="M0,47v256" style="stroke: rgb(255, 255, 255); stroke-opacity: 1; stroke-width: 1px;"/><path class="xgrid crisp" transform="translate(225.57,0)" d="M0,47v256" style="stroke: rgb(255, 255, 255); stroke-opacity: 1; stroke-width: 1px;"/><path class="xgrid crisp" transform="translate(284.5,0)" d="M0,47v256" style="stroke: rgb(255, 255, 255); stroke-opacity: 1; stroke-width: 1px;"/><path class="xgrid crisp" transform="translate(343.43,0)" d="M0,47v256" style="stroke: rgb(255, 255, 255); stroke-opacity: 1; stroke-width: 1px;"/></g><g class="y"><path class="ygrid crisp" transform="translate(0,256.45)" d="M37,0h363" style="stroke: rgb(255, 255, 255); stroke-opacity: 1; stroke-width: 1px;"/><path class="ygrid crisp" transform="translate(0,209.91)" d="M37,0h363" style="stroke: rgb(255, 255, 255); stroke-opacity: 1; stroke-width: 1px;"/><path class="ygrid crisp" transform="translate(0,163.36)" d="M37,0h363" style="stroke: rgb(255, 255, 255); stroke-opacity: 1; stroke-width: 1px;"/><path class="ygrid crisp" transform="translate(0,116.82)" d="M37,0h363" style="stroke: rgb(255, 255, 255); stroke-opacity: 1; stroke-width: 1px;"/><path class="ygrid crisp" transform="translate(0,70.27)" d="M37,0h363" style="stroke: rgb(255, 255, 255); stroke-opacity: 1; stroke-width: 1px;"/></g></g><g class="zerolinelayer"><path class="yzl zl crisp" transform="translate(0,303)" d="M37,0h363" style="stroke: rgb(255, 255, 255); stroke-opacity: 1; stroke-width: 2px;"/></g><path class="xlines-below"/><path class="ylines-below"/><g class="overlines-below"/><g class="xaxislayer-below"/><g class="yaxislayer-below"/><g class="overaxes-below"/><g class="plot" transform="translate(37,47)" clip-path="url(#clipcc9bfcxyplot)"><g class="scatterlayer mlayer"><g class="trace scatter trace12bf4f" style="stroke-miterlimit: 2; opacity: 1;"><g class="fills"/><g class="errorbars"/><g class="lines"><path class="js-line" d="M0,255.07L2.36,253.91L3.54,254.14L7.07,254.6L8.25,255.3L10.61,253.91L11.79,26.3L14.14,157.09L15.32,180.83L17.68,204.57L18.86,213.64L20.04,219.23L21.21,218.53L22.39,226.68L23.57,222.25L24.75,227.61L25.93,228.31L28.29,234.36L29.46,231.56L30.64,237.38L31.82,234.82L33,233.19L34.18,233.66L35.36,234.36L36.54,238.08L38.89,237.61L40.07,235.99L43.61,240.41L44.79,235.99L45.96,237.61L47.14,236.68L49.5,240.17L50.68,237.15L51.86,239.01L53.04,242.5L54.21,238.78L55.39,242.97L56.57,242.04L57.75,243.43L60.11,238.78L61.29,244.13L64.82,241.11L66,243.67L67.18,242.5L68.36,244.6L70.71,242.27L71.89,241.11L73.07,241.8L74.25,243.9L75.43,243.67L76.61,244.83L78.96,242.73L80.14,245.99L82.5,244.36L83.68,245.29L84.86,245.99L86.04,247.62L88.39,249.95L89.57,246.69L90.75,243.67L91.93,244.36L93.11,243.67L94.29,245.06L95.46,247.62L96.64,244.13L97.82,245.76L99,245.29L100.18,245.53L101.36,244.83L103.71,248.32L104.89,246.46L106.07,245.53L107.25,246.92L108.43,247.62L109.61,247.39L110.79,244.83L111.96,244.83L113.14,245.99L114.32,245.06L116.68,244.83L117.86,247.39L120.21,246.69L121.39,248.55L122.57,249.25L123.75,247.16L124.93,248.32L126.11,247.39L127.29,245.99L128.46,249.25L129.64,23.97L130.82,100.07L132,158.25L133.18,176.17L135.54,203.4L136.71,205.5L137.89,212.48L139.07,214.34L140.25,223.88L141.43,224.58L142.61,229.24L143.79,228.54L144.96,225.28L146.14,227.61L149.68,233.19L150.86,232.73L152.04,236.45L153.21,235.29L154.39,231.1L155.57,233.19L156.75,234.36L157.93,236.68L159.11,234.82L160.29,239.24L161.46,235.29L162.64,237.61L163.82,239.94L165,238.08L167.36,239.71L168.54,242.73L169.71,238.55L170.89,237.61L173.25,239.71L174.43,238.31L175.61,238.31L176.79,242.5L179.14,241.8L180.32,239.01L181.5,239.01L182.68,242.73L183.86,242.5L185.04,241.11L186.21,240.41L187.39,242.04L189.75,242.5L190.93,245.06L193.29,242.04L194.46,245.06L195.64,244.6L196.82,246.69L198,247.39L199.18,246.69L200.36,242.97L201.54,241.8L203.89,242.73L205.07,243.43L206.25,247.16L207.43,242.27L208.61,242.97L209.79,242.27L210.96,245.76L212.14,245.53L213.32,244.6L214.5,245.06L216.86,245.99L218.04,246.92L219.21,244.83L220.39,245.06L221.57,244.36L222.75,244.6L223.93,244.36L225.11,245.06L226.29,245.29L227.46,246.69L228.64,245.76L229.82,247.16L231,248.32L232.18,245.76L233.36,245.53L234.54,244.36L235.71,246.69L236.89,246.92L239.25,243.67L240.43,244.36L241.61,245.53L242.79,245.29L243.96,243.2L245.14,248.09L246.32,249.25L247.5,25.83L249.86,142.89L251.04,178.27L254.57,210.15L255.75,211.08L256.93,221.56L258.11,223.88L259.29,217.37L260.46,225.05L262.82,230.87L264,230.4L265.18,231.8L266.36,230.63L267.54,233.43L268.71,232.73L269.89,230.87L271.07,231.1L272.25,234.12L273.43,235.05L274.61,234.82L275.79,240.17L276.96,231.8L278.14,240.41L279.32,234.12L280.5,237.61L281.68,238.31L282.86,239.94L285.21,239.01L286.39,240.64L287.57,240.64L288.75,238.55L289.93,241.57L291.11,240.64L292.29,239.48L293.46,241.11L294.64,240.17L295.82,242.5L297,244.6L298.18,240.64L299.36,237.38L300.54,241.57L301.71,241.8L302.89,240.41L304.07,243.9L305.25,243.43L307.61,242.73L308.79,245.06L309.96,241.8L311.14,241.34L313.5,241.8L314.68,244.83L315.86,242.5L317.04,246.23L318.21,247.16L319.39,246.46L320.57,245.53L321.75,243.2L322.93,244.83L324.11,243.9L326.46,241.34L327.64,242.97L330,245.99L331.18,245.06L332.36,245.29L333.54,242.73L335.89,245.76L337.07,244.83L338.25,243.67L339.43,247.85L341.79,242.73L342.96,243.67L344.14,243.67L345.32,248.09L346.5,246.69L347.68,246.46L348.86,245.76L350.04,244.13L353.57,248.32L354.75,245.99L357.11,242.27L358.29,243.9L359.46,246.46L360.64,245.53L361.82,246.92L363,246.69" style="vector-effect: non-scaling-stroke; fill: none; stroke: rgb(99, 110, 250); stroke-opacity: 1; stroke-width: 2px; opacity: 1;"/></g><g class="points"/><g class="text"/></g><g class="trace scatter trace29fe08" style="stroke-miterlimit: 2; opacity: 1;"><g class="fills"/><g class="errorbars"/><g class="lines"><path class="js-line" d="M0,254.37L1.18,255.53L2.36,254.14L3.54,255.07L4.71,254.14L7.07,255.77L8.25,254.6L10.61,253.67L11.79,27.93L14.14,137.08L15.32,153.6L17.68,188.51L18.86,202.24L20.04,204.8L21.21,216.9L22.39,211.32L23.57,215.04L25.93,226.68L27.11,226.68L28.29,223.42L29.46,227.37L30.64,231.1L31.82,231.56L33,229L34.18,234.12L35.36,232.49L36.54,232.26L37.71,232.26L38.89,238.31L40.07,232.49L41.25,234.12L42.43,234.36L43.61,238.08L44.79,234.82L45.96,235.52L47.14,232.73L48.32,237.15L49.5,237.38L50.68,238.78L51.86,240.17L53.04,235.29L54.21,236.68L55.39,240.17L57.75,240.64L58.93,239.48L60.11,240.17L61.29,239.71L62.46,235.75L63.64,239.94L64.82,238.31L66,240.17L67.18,238.78L68.36,240.87L69.54,242.27L70.71,241.57L71.89,244.83L73.07,241.57L75.43,244.6L76.61,240.41L77.79,243.2L78.96,240.41L81.32,245.29L82.5,243.43L84.86,243.9L86.04,241.11L87.21,241.11L88.39,243.67L89.57,246.46L90.75,243.67L91.93,245.99L93.11,244.36L94.29,242.27L95.46,245.29L96.64,245.53L97.82,244.36L100.18,244.83L101.36,246.92L102.54,245.29L103.71,245.29L104.89,244.13L106.07,246.69L107.25,246.69L108.43,249.02L110.79,245.99L111.96,245.29L114.32,244.83L115.5,247.16L116.68,246.69L117.86,245.06L120.21,246.92L121.39,246.23L122.57,245.99L123.75,246.69L124.93,244.13L126.11,244.83L127.29,244.13L128.46,248.32L129.64,27.69L130.82,78.2L133.18,156.86L134.36,181.76L135.54,188.51L136.71,199.91L137.89,208.76L139.07,208.76L140.25,207.59L141.43,213.88L142.61,215.04L143.79,223.65L144.96,225.28L146.14,224.12L147.32,225.05L148.5,228.31L152.04,230.17L153.21,231.1L154.39,234.36L155.57,231.56L156.75,230.4L157.93,231.33L159.11,236.92L160.29,235.52L161.46,236.45L162.64,234.36L165,231.56L166.18,230.63L167.36,234.12L168.54,235.05L169.71,240.41L170.89,240.87L172.07,240.64L173.25,237.38L175.61,243.2L176.79,239.71L177.96,238.31L179.14,240.64L182.68,239.24L183.86,236.92L187.39,238.78L188.57,241.8L189.75,240.87L190.93,243.9L192.11,243.67L193.29,245.29L194.46,242.5L195.64,242.97L199.18,245.29L200.36,247.16L201.54,243.67L202.71,245.06L208.61,245.76L209.79,243.9L210.96,243.67L212.14,245.53L213.32,243.67L214.5,247.62L215.68,246.69L216.86,244.13L218.04,245.76L219.21,245.76L220.39,244.83L221.57,247.85L222.75,245.76L223.93,245.76L225.11,245.06L226.29,245.76L227.46,242.73L228.64,244.13L229.82,247.62L231,246.23L232.18,242.97L233.36,242.73L234.54,246.92L235.71,241.8L236.89,244.36L238.07,244.36L239.25,247.39L240.43,246.46L241.61,248.32L242.79,245.76L243.96,245.99L245.14,247.85L246.32,246.92L247.5,30.25L251.04,153.6L252.21,181.06L255.75,210.15L256.93,210.62L258.11,212.48L259.29,217.37L260.46,215.97L261.64,226.68L262.82,224.81L264,226.68L265.18,226.68L266.36,225.51L267.54,225.51L268.71,229.93L269.89,232.49L271.07,229.7L273.43,236.92L274.61,235.99L275.79,237.61L276.96,233.43L278.14,237.38L279.32,236.92L280.5,235.75L281.68,236.45L284.04,242.5L285.21,238.78L286.39,237.38L287.57,234.36L288.75,232.96L289.93,239.71L291.11,240.87L292.29,240.41L293.46,241.34L294.64,238.31L295.82,238.78L297,242.73L299.36,239.71L300.54,239.48L301.71,238.78L302.89,239.94L304.07,239.48L305.25,243.67L306.43,241.34L307.61,244.13L308.79,244.6L309.96,242.5L312.32,241.11L313.5,243.43L314.68,241.11L315.86,241.34L317.04,243.2L318.21,246.46L319.39,243.9L320.57,245.06L321.75,244.13L322.93,245.76L324.11,242.73L325.29,245.99L326.46,245.99L327.64,242.97L328.82,242.5L330,244.6L331.18,246.69L332.36,243.2L333.54,245.76L334.71,242.73L335.89,242.73L337.07,245.76L339.43,244.83L340.61,245.06L341.79,245.76L342.96,244.13L345.32,242.97L346.5,245.76L347.68,243.9L348.86,244.36L350.04,246.69L351.21,247.16L352.39,243.67L353.57,247.39L357.11,242.27L358.29,245.06L360.64,245.29L361.82,248.55L363,245.76" style="vector-effect: non-scaling-stroke; fill: none; stroke: rgb(239, 85, 59); stroke-opacity: 1; stroke-width: 2px; opacity: 1;"/></g><g class="points"/><g class="text"/></g><g class="trace scatter trace5bd228" style="stroke-miterlimit: 2; opacity: 1;"><g class="fills"/><g class="errorbars"/><g class="lines"><path class="js-line" d="M0,254.84L3.54,255.53L4.71,255.07L5.89,254.37L7.07,255.3L8.25,254.6L9.43,255.07L10.61,255.07L11.79,21.18L14.14,124.51L15.32,153.83L17.68,193.86L18.86,199.21L21.21,214.11L22.39,215.51L23.57,218.76L24.75,218.3L25.93,220.63L27.11,226.44L28.29,227.37L29.46,226.91L31.82,227.37L33,230.87L34.18,228.77L35.36,229L36.54,230.17L37.71,232.96L38.89,235.29L40.07,234.82L41.25,235.99L42.43,239.01L45.96,238.55L47.14,235.05L50.68,238.78L51.86,238.55L53.04,237.38L54.21,239.24L56.57,241.11L57.75,237.85L58.93,236.45L60.11,243.2L63.64,240.64L64.82,241.8L66,242.5L67.18,239.48L68.36,243.2L69.54,240.64L70.71,241.57L71.89,239.48L73.07,243.43L74.25,242.73L75.43,240.87L76.61,244.36L77.79,243.2L78.96,243.2L80.14,238.78L81.32,243.43L82.5,242.27L83.68,245.29L84.86,242.73L86.04,245.76L87.21,242.5L88.39,243.9L89.57,242.27L90.75,243.9L93.11,243.2L94.29,243.9L96.64,245.06L97.82,243.9L99,244.36L100.18,243.67L101.36,245.29L102.54,245.06L103.71,243.67L104.89,245.53L106.07,246.92L107.25,245.29L108.43,245.99L109.61,245.29L110.79,244.36L111.96,247.85L113.14,244.6L114.32,244.6L115.5,245.53L116.68,249.02L119.04,243.9L120.21,245.53L121.39,245.29L122.57,242.04L123.75,245.29L124.93,244.6L128.46,247.62L129.64,28.63L133.18,160.35L134.36,181.76L135.54,199.68L136.71,205.73L137.89,211.08L139.07,208.06L140.25,210.85L141.43,219.46L142.61,221.09L143.79,225.28L146.14,227.37L147.32,226.68L148.5,228.31L149.68,233.89L153.21,232.73L154.39,227.37L156.75,233.66L157.93,231.8L159.11,234.82L160.29,234.82L162.64,240.17L163.82,237.85L165,237.38L166.18,238.55L167.36,238.78L168.54,236.68L169.71,236.45L170.89,239.48L172.07,239.71L173.25,241.8L175.61,241.34L176.79,240.17L177.96,237.85L179.14,240.41L180.32,242.5L181.5,242.27L182.68,241.57L183.86,242.27L187.39,236.68L188.57,239.24L190.93,242.97L192.11,241.8L193.29,244.83L194.46,239.94L196.82,243.67L198,241.11L199.18,239.71L200.36,243.2L202.71,243.67L203.89,241.34L205.07,243.67L206.25,244.13L207.43,243.43L208.61,245.76L209.79,242.5L210.96,243.9L213.32,247.39L214.5,247.16L215.68,244.6L216.86,243.9L218.04,244.36L219.21,241.57L221.57,246.69L222.75,245.53L226.29,245.06L227.46,246.69L228.64,245.99L229.82,248.32L231,245.29L232.18,246.46L233.36,244.13L234.54,245.06L235.71,245.76L236.89,245.29L238.07,247.39L239.25,245.99L240.43,245.99L241.61,244.36L243.96,245.06L245.14,242.27L246.32,244.83L247.5,19.08L249.86,126.37L251.04,163.14L256.93,218.76L258.11,215.04L260.46,220.86L261.64,221.56L262.82,223.42L264,227.61L265.18,228.07L266.36,229.93L267.54,232.49L268.71,232.49L269.89,234.82L271.07,234.12L272.25,233.66L273.43,229.47L274.61,232.26L275.79,240.64L276.96,233.89L278.14,235.75L279.32,238.31L280.5,237.61L281.68,233.89L282.86,233.19L284.04,237.38L285.21,236.45L286.39,235.05L287.57,235.75L288.75,237.85L289.93,232.96L291.11,240.41L292.29,239.48L294.64,236.92L295.82,238.31L297,236.45L298.18,241.34L299.36,238.78L300.54,238.08L301.71,242.5L302.89,240.64L305.25,242.97L306.43,241.8L307.61,240.87L308.79,241.34L309.96,239.71L311.14,241.11L312.32,239.01L313.5,242.97L314.68,241.8L315.86,244.13L317.04,245.06L318.21,242.04L319.39,241.8L320.57,244.83L321.75,243.43L322.93,244.6L324.11,242.27L325.29,243.67L326.46,242.5L327.64,242.97L328.82,246.69L330,246.69L331.18,242.04L332.36,244.13L333.54,243.43L334.71,243.9L335.89,244.6L337.07,241.57L339.43,245.06L340.61,242.5L342.96,245.53L344.14,244.36L345.32,246.23L346.5,242.04L348.86,247.62L350.04,244.36L351.21,245.29L352.39,241.8L353.57,244.83L354.75,245.53L355.93,249.25L357.11,246.92L359.46,245.06L360.64,247.39L361.82,246.23L363,246.23" style="vector-effect: non-scaling-stroke; fill: none; stroke: rgb(0, 204, 150); stroke-opacity: 1; stroke-width: 2px; opacity: 1;"/></g><g class="points"/><g class="text"/></g></g></g><g class="overplot"/><path class="xlines-above crisp" d="M0,0" style="fill: none;"/><path class="ylines-above crisp" d="M0,0" style="fill: none;"/><g class="overlines-above"/><g class="xaxislayer-above"><g class="xtick"><text text-anchor="middle" x="0" y="319" transform="translate(48.79,0)" style="font-family: Helvetica; font-size: 15px; fill: rgb(42, 63, 95); fill-opacity: 1; white-space: pre; opacity: 1;">2000</text></g><g class="xtick"><text text-anchor="middle" x="0" y="319" style="font-family: Helvetica; font-size: 15px; fill: rgb(42, 63, 95); fill-opacity: 1; white-space: pre; opacity: 1;" transform="translate(107.71,0)">2050</text></g><g class="xtick"><text text-anchor="middle" x="0" y="319" style="font-family: Helvetica; font-size: 15px; fill: rgb(42, 63, 95); fill-opacity: 1; white-space: pre; opacity: 1;" transform="translate(166.64,0)">2100</text></g><g class="xtick"><text text-anchor="middle" x="0" y="319" style="font-family: Helvetica; font-size: 15px; fill: rgb(42, 63, 95); fill-opacity: 1; white-space: pre; opacity: 1;" transform="translate(225.57,0)">2150</text></g><g class="xtick"><text text-anchor="middle" x="0" y="319" style="font-family: Helvetica; font-size: 15px; fill: rgb(42, 63, 95); fill-opacity: 1; white-space: pre; opacity: 1;" transform="translate(284.5,0)">2200</text></g><g class="xtick"><text text-anchor="middle" x="0" y="319" style="font-family: Helvetica; font-size: 15px; fill: rgb(42, 63, 95); fill-opacity: 1; white-space: pre; opacity: 1;" transform="translate(343.43,0)">2250</text></g></g><g class="yaxislayer-above"><g class="ytick"><text text-anchor="end" x="36" y="5.25" transform="translate(0,303)" style="font-family: Helvetica; font-size: 15px; fill: rgb(42, 63, 95); fill-opacity: 1; white-space: pre; opacity: 1;">0</text></g><g class="ytick"><text text-anchor="end" x="36" y="5.25" style="font-family: Helvetica; font-size: 15px; fill: rgb(42, 63, 95); fill-opacity: 1; white-space: pre; opacity: 1;" transform="translate(0,256.45)">1</text></g><g class="ytick"><text text-anchor="end" x="36" y="5.25" style="font-family: Helvetica; font-size: 15px; fill: rgb(42, 63, 95); fill-opacity: 1; white-space: pre; opacity: 1;" transform="translate(0,209.91)">2</text></g><g class="ytick"><text text-anchor="end" x="36" y="5.25" style="font-family: Helvetica; font-size: 15px; fill: rgb(42, 63, 95); fill-opacity: 1; white-space: pre; opacity: 1;" transform="translate(0,163.36)">3</text></g><g class="ytick"><text text-anchor="end" x="36" y="5.25" style="font-family: Helvetica; font-size: 15px; fill: rgb(42, 63, 95); fill-opacity: 1; white-space: pre; opacity: 1;" transform="translate(0,116.82)">4</text></g><g class="ytick"><text text-anchor="end" x="36" y="5.25" style="font-family: Helvetica; font-size: 15px; fill: rgb(42, 63, 95); fill-opacity: 1; white-space: pre; opacity: 1;" transform="translate(0,70.27)">5</text></g></g><g class="overaxes-above"/></g></g><g class="polarlayer"/><g class="smithlayer"/><g class="ternarylayer"/><g class="geolayer"/><g class="funnelarealayer"/><g class="pielayer"/><g class="iciclelayer"/><g class="treemaplayer"/><g class="sunburstlayer"/><g class="glimages"/><defs id="topdefs-cc9bfc"><g class="clips"/><clipPath id="legendcc9bfc"><rect width="375" height="34" x="0" y="0"/></clipPath></defs><g class="layer-above"><g class="imagelayer"/><g class="shapelayer"/></g><g class="infolayer"><g class="legend" pointer-events="all" transform="translate(25,0.19999999999998863)"><rect class="bg" shape-rendering="crispEdges" style="stroke: rgb(68, 68, 68); stroke-opacity: 1; fill: rgb(255, 255, 255); fill-opacity: 1; stroke-width: 0px;" width="375" height="34" x="0" y="0"/><g class="scrollbox" transform="" clip-path="url(#legendcc9bfc)"><text class="legendtitletext" text-anchor="start" x="2" y="23.400000000000002" style="font-family: Helvetica; font-size: 18px; fill: rgb(42, 63, 95); fill-opacity: 1; white-space: pre;">Dynamic intensity C</text><g class="groups"><g class="traces" transform="translate(169.046875,16.25)" style="opacity: 1;"><text class="legendtext" text-anchor="start" x="40" y="5.85" style="font-family: Helvetica; font-size: 15px; fill: rgb(42, 63, 95); fill-opacity: 1; white-space: pre;">0.1</text><g class="layers" style="opacity: 1;"><g class="legendfill"/><g class="legendlines"><path class="js-line" d="M5,0h30" style="fill: none; stroke: rgb(99, 110, 250); stroke-opacity: 1; stroke-width: 2px;"/></g><g class="legendsymbols"><g class="legendpoints"/></g></g><rect class="legendtoggle" x="0" y="-11.25" width="63.359375" height="22.5" style="fill: rgb(0, 0, 0); fill-opacity: 0;"/></g><g class="traces" transform="translate(234.90625,16.25)" style="opacity: 1;"><text class="legendtext" text-anchor="start" x="40" y="5.85" style="font-family: Helvetica; font-size: 15px; fill: rgb(42, 63, 95); fill-opacity: 1; white-space: pre;">0.25</text><g class="layers" style="opacity: 1;"><g class="legendfill"/><g class="legendlines"><path class="js-line" d="M5,0h30" style="fill: none; stroke: rgb(239, 85, 59); stroke-opacity: 1; stroke-width: 2px;"/></g><g class="legendsymbols"><g class="legendpoints"/></g></g><rect class="legendtoggle" x="0" y="-11.25" width="71.703125" height="22.5" style="fill: rgb(0, 0, 0); fill-opacity: 0;"/></g><g class="traces" transform="translate(309.109375,16.25)" style="opacity: 1;"><text class="legendtext" text-anchor="start" x="40" y="5.85" style="font-family: Helvetica; font-size: 15px; fill: rgb(42, 63, 95); fill-opacity: 1; white-space: pre;">0.5</text><g class="layers" style="opacity: 1;"><g class="legendfill"/><g class="legendlines"><path class="js-line" d="M5,0h30" style="fill: none; stroke: rgb(0, 204, 150); stroke-opacity: 1; stroke-width: 2px;"/></g><g class="legendsymbols"><g class="legendpoints"/></g></g><rect class="legendtoggle" x="0" y="-11.25" width="63.359375" height="22.5" style="fill: rgb(0, 0, 0); fill-opacity: 0;"/></g></g></g><rect class="scrollbar" rx="20" ry="3" width="0" height="0" style="fill: rgb(128, 139, 164); fill-opacity: 1;" x="0" y="0"/></g><g class="g-gtitle"/><g class="g-xtitle" transform="translate(0,-4.100000000000023)"><text class="xtitle" x="218.5" y="350.1" text-anchor="middle" style="font-family: Helvetica; font-size: 18px; fill: rgb(42, 63, 95); opacity: 1; font-weight: normal; white-space: pre;">Iteration</text></g><g class="g-ytitle" transform="translate(16.443359375,0)"><text class="ytitle" transform="rotate(-90,0.05624999999999858,175)" x="0.05624999999999858" y="175" text-anchor="middle" style="font-family: Helvetica; font-size: 18px; fill: rgb(42, 63, 95); opacity: 1; font-weight: normal; white-space: pre;">Swaps</text></g></g></svg>