<svg class="main-svg" xmlns="http://www.w3.org/2000/svg" xmlns:xlink="http://www.w3.org/1999/xlink" width="650" height="250" style="" viewBox="0 0 650 250"><rect x="0" y="0" width="650" height="250" style="fill: rgb(255, 255, 255); fill-opacity: 1;"/><defs id="defs-2b2e4b"><g class="clips"><clipPath id="clip2b2e4bxyplot" class="plotclip"><rect width="296.875" height="231"/></clipPath><clipPath id="clip2b2e4bx2y2plot" class="plotclip"><rect width="296.875" height="231"/></clipPath><clipPath class="axesclip" id="clip2b2e4bx"><rect x="25" y="0" width="296.875" height="250"/></clipPath><clipPath class="axesclip" id="clip2b2e4by"><rect x="0" y="2" width="650" height="231"/></clipPath><clipPath class="axesclip" id="clip2b2e4bxy"><rect x="25" y="2" width="296.875" height="231"/></clipPath><clipPath class="axesclip" id="clip2b2e4by2"><rect x="0" y="2" width="650" height="231"/></clipPath><clipPath class="axesclip" id="clip2b2e4bxy2"><rect x="25" y="2" width="296.875" height="231"/></clipPath><clipPath class="axesclip" id="clip2b2e4bx2"><rect x="353.125" y="0" width="296.875" height="250"/></clipPath><clipPath class="axesclip" id="clip2b2e4bx2y"><rect x="353.125" y="2" width="296.875" height="231"/></clipPath><clipPath class="axesclip" id="clip2b2e4bx2y2"><rect x="353.125" y="2" width="296.875" height="231"/></clipPath></g><g class="gradients"/><g class="patterns"/></defs><g class="bglayer"><rect class="bg" x="25" y="2" width="296.875" height="231" style="fill: rgb(229, 236, 246); fill-opacity: 1; stroke-width: 0;"/><rect class="bg" x="353.125" y="2" width="296.875" height="231" style="fill: rgb(229, 236, 246); fill-opacity: 1; stroke-width: 0;"/></g><g class="layer-below"><g class="imagelayer"/><g class="shapelayer"/></g><g class="cartesianlayer"><g class="subplot xy"><g class="layer-subplot"><g class="shapelayer"/><g class="imagelayer"/></g><g class="minor-gridlayer"><g class="x"/><g class="y"/></g><g class="gridlayer"><g class="x"/><g class="y"><path class="ygrid crisp" transform="translate(0,187.11)" d="M25,0h296.875" style="stroke: rgb(255, 255, 255); stroke-opacity: 1; stroke-width: 1px;"/><path class="ygrid crisp" transform="translate(0,151.43)" d="M25,0h296.875" style="stroke: rgb(255, 255, 255); stroke-opacity: 1; stroke-width: 1px;"/><path class="ygrid crisp" transform="translate(0,115.75)" d="M25,0h296.875" style="stroke: rgb(255, 255, 255); stroke-opacity: 1; stroke-width: 1px;"/><path class="ygrid crisp" transform="translate(0,80.07)" d="M25,0h296.875" style="stroke: rgb(255, 255, 255); stroke-opacity: 1; stroke-width: 1px;"/><path class="ygrid crisp" transform="translate(0,44.38)" d="M25,0h296.875" style="stroke: rgb(255, 255, 255); stroke-opacity: 1; stroke-width: 1px;"/><path class="ygrid crisp" transform="translate(0,8.7)" d="M25,0h296.875" style="stroke: rgb(255, 255, 255); stroke-opacity: 1; stroke-width: 1px;"/></g></g><g class="zerolinelayer"><path class="yzl zl crisp" transform="translate(0,222.79)" d="M25,0h296.875" style="stroke: rgb(255, 255, 255); stroke-opacity: 1; stroke-width: 2px;"/></g><path class="xlines-below"/><path class="ylines-below"/><g class="overlines-below"/><g class="xaxislayer-below"/><g class="yaxislayer-below"/><g class="overaxes-below"/><g class="plot" transform="translate(25,2)" clip-path="url(#clip2b2e4bxyplot)"><g class="boxlayer mlayer"><g class="trace boxes" style="opacity: 1;"><path class="box" d="M18.93,73.58H55.29M18.93,167.41H55.29V48.1H18.93ZM37.11,167.41V219.45M37.11,48.1V11.55M28.02,219.45H46.2M28.02,11.55H46.2" style="vector-effect: non-scaling-stroke; stroke-width: 2px; stroke: rgb(99, 110, 250); stroke-opacity: 1; fill: rgb(99, 110, 250); fill-opacity: 0.5;"/><path class="box" d="M93.14,89.84H129.51M93.14,149.13H129.51V58.52H93.14ZM111.33,149.13V186.88M111.33,58.52V33.85M102.24,186.88H120.42M102.24,33.85H120.42" style="vector-effect: non-scaling-stroke; stroke-width: 2px; stroke: rgb(99, 110, 250); stroke-opacity: 1; fill: rgb(99, 110, 250); fill-opacity: 0.5;"/><path class="box" d="M167.36,86.27H203.73M167.36,175.7H203.73V63.07H167.36ZM185.55,175.7V212.74M185.55,63.07V43.93M176.46,212.74H194.64M176.46,43.93H194.64" style="vector-effect: non-scaling-stroke; stroke-width: 2px; stroke: rgb(99, 110, 250); stroke-opacity: 1; fill: rgb(99, 110, 250); fill-opacity: 0.5;"/><path class="box" d="M241.58,114.87H277.95M241.58,176.78H277.95V71.41H241.58ZM259.77,176.78V215.29M259.77,71.41V43.56M250.67,215.29H268.86M250.67,43.56H268.86" style="vector-effect: non-scaling-stroke; stroke-width: 2px; stroke: rgb(99, 110, 250); stroke-opacity: 1; fill: rgb(99, 110, 250); fill-opacity: 0.5;"/><g class="points"/><g class="points"/><g class="points"/><g class="points"/></g></g></g><g class="overplot"/><path class="xlines-above crisp" d="M0,0" style="fill: none;"/><path class="ylines-above crisp" d="M0,0" style="fill: none;"/><g class="overlines-above"/><g class="xaxislayer-above"><g class="xtick"><text text-anchor="middle" x="0" y="246" transform="translate(62.11,0)" style="font-family: 'Open Sans', verdana, arial, sans-serif; font-size: 12px; fill: rgb(42, 63, 95); fill-opacity: 1; white-space: pre; opacity: 1;">RS</text></g><g class="xtick"><text text-anchor="middle" x="0" y="246" transform="translate(136.32999999999998,0)" style="font-family: 'Open Sans', verdana, arial, sans-serif; font-size: 12px; fill: rgb(42, 63, 95); fill-opacity: 1; white-space: pre; opacity: 1;">GP</text></g><g class="xtick"><text text-anchor="middle" x="0" y="246" transform="translate(210.55,0)" style="font-family: 'Open Sans', verdana, arial, sans-serif; font-size: 12px; fill: rgb(42, 63, 95); fill-opacity: 1; white-space: pre; opacity: 1;">ET</text></g><g class="xtick"><text text-anchor="middle" x="0" y="246" transform="translate(284.77,0)" style="font-family: 'Open Sans', verdana, arial, sans-serif; font-size: 12px; fill: rgb(42, 63, 95); fill-opacity: 1; white-space: pre; opacity: 1;">GBRT</text></g></g><g class="yaxislayer-above"><g class="ytick"><text text-anchor="end" x="24" y="4.199999999999999" transform="translate(0,222.79)" style="font-family: 'Open Sans', verdana, arial, sans-serif; font-size: 12px; fill: rgb(42, 63, 95); fill-opacity: 1; white-space: pre; opacity: 1;">0</text></g><g class="ytick"><text text-anchor="end" x="24" y="4.199999999999999" style="font-family: 'Open Sans', verdana, arial, sans-serif; font-size: 12px; fill: rgb(42, 63, 95); fill-opacity: 1; white-space: pre; opacity: 1;" transform="translate(0,187.11)">0.02</text></g><g class="ytick"><text text-anchor="end" x="24" y="4.199999999999999" style="font-family: 'Open Sans', verdana, arial, sans-serif; font-size: 12px; fill: rgb(42, 63, 95); fill-opacity: 1; white-space: pre; opacity: 1;" transform="translate(0,151.43)">0.04</text></g><g class="ytick"><text text-anchor="end" x="24" y="4.199999999999999" style="font-family: 'Open Sans', verdana, arial, sans-serif; font-size: 12px; fill: rgb(42, 63, 95); fill-opacity: 1; white-space: pre; opacity: 1;" transform="translate(0,115.75)">0.06</text></g><g class="ytick"><text text-anchor="end" x="24" y="4.199999999999999" style="font-family: 'Open Sans', verdana, arial, sans-serif; font-size: 12px; fill: rgb(42, 63, 95); fill-opacity: 1; white-space: pre; opacity: 1;" transform="translate(0,80.07)">0.08</text></g><g class="ytick"><text text-anchor="end" x="24" y="4.199999999999999" style="font-family: 'Open Sans', verdana, arial, sans-serif; font-size: 12px; fill: rgb(42, 63, 95); fill-opacity: 1; white-space: pre; opacity: 1;" transform="translate(0,44.38)">0.1</text></g><g class="ytick"><text text-anchor="end" x="24" y="4.199999999999999" style="font-family: 'Open Sans', verdana, arial, sans-serif; font-size: 12px; fill: rgb(42, 63, 95); fill-opacity: 1; white-space: pre; opacity: 0;" transform="translate(0,8.7)">0.12</text></g></g><g class="overaxes-above"/></g><g class="subplot x2y2"><g class="layer-subplot"><g class="shapelayer"/><g class="imagelayer"/></g><g class="minor-gridlayer"><g class="x2"/><g class="y2"/></g><g class="gridlayer"><g class="x2"/><g class="y2"><path class="y2grid crisp" transform="translate(0,192.97)" d="M353.125,0h296.875" style="stroke: rgb(255, 255, 255); stroke-opacity: 1; stroke-width: 1px;"/><path class="y2grid crisp" transform="translate(0,154.15)" d="M353.125,0h296.875" style="stroke: rgb(255, 255, 255); stroke-opacity: 1; stroke-width: 1px;"/><path class="y2grid crisp" transform="translate(0,115.33)" d="M353.125,0h296.875" style="stroke: rgb(255, 255, 255); stroke-opacity: 1; stroke-width: 1px;"/><path class="y2grid crisp" transform="translate(0,76.5)" d="M353.125,0h296.875" style="stroke: rgb(255, 255, 255); stroke-opacity: 1; stroke-width: 1px;"/><path class="y2grid crisp" transform="translate(0,37.68)" d="M353.125,0h296.875" style="stroke: rgb(255, 255, 255); stroke-opacity: 1; stroke-width: 1px;"/></g></g><g class="zerolinelayer"><path class="y2zl zl crisp" transform="translate(0,231.8)" d="M353.125,0h296.875" style="stroke: rgb(255, 255, 255); stroke-opacity: 1; stroke-width: 2px;"/></g><path class="xlines-below"/><path class="ylines-below"/><g class="overlines-below"/><g class="xaxislayer-below"/><g class="yaxislayer-below"/><g class="overaxes-below"/><g class="plot" transform="translate(353.125,2)" clip-path="url(#clip2b2e4bx2y2plot)"><g class="boxlayer mlayer"><g class="trace boxes" style="opacity: 1;"><path class="box" d="M18.93,93.77H55.29M18.93,174.15H55.29V62H18.93ZM37.11,174.15V217.43M37.11,62V11.55M28.02,217.43H46.2M28.02,11.55H46.2" style="vector-effect: non-scaling-stroke; stroke-width: 2px; stroke: rgb(99, 110, 250); stroke-opacity: 1; fill: rgb(99, 110, 250); fill-opacity: 0.5;"/><path class="box" d="M93.14,121.51H129.51M93.14,164.4H129.51V95.61H93.14ZM111.33,164.4V189.85M111.33,95.61V75.21M102.24,189.85H120.42M102.24,75.21H120.42" style="vector-effect: non-scaling-stroke; stroke-width: 2px; stroke: rgb(99, 110, 250); stroke-opacity: 1; fill: rgb(99, 110, 250); fill-opacity: 0.5;"/><path class="box" d="M167.36,109.83H203.73M167.36,172.1H203.73V87.93H167.36ZM185.55,172.1V217.09M185.55,87.93V60.37M176.46,217.09H194.64M176.46,60.37H194.64" style="vector-effect: non-scaling-stroke; stroke-width: 2px; stroke: rgb(99, 110, 250); stroke-opacity: 1; fill: rgb(99, 110, 250); fill-opacity: 0.5;"/><path class="box" d="M241.58,115.33H277.95M241.58,191.03H277.95V91.23H241.58ZM259.77,191.03V219.45M259.77,91.23V53.07M250.67,219.45H268.86M250.67,53.07H268.86" style="vector-effect: non-scaling-stroke; stroke-width: 2px; stroke: rgb(99, 110, 250); stroke-opacity: 1; fill: rgb(99, 110, 250); fill-opacity: 0.5;"/><g class="points"/><g class="points"/><g class="points"/><g class="points"/></g></g></g><g class="overplot"/><path class="xlines-above crisp" d="M0,0" style="fill: none;"/><path class="ylines-above crisp" d="M0,0" style="fill: none;"/><g class="overlines-above"/><g class="xaxislayer-above"><g class="x2tick"><text text-anchor="middle" x="0" y="246" transform="translate(390.235,0)" style="font-family: 'Open Sans', verdana, arial, sans-serif; font-size: 12px; fill: rgb(42, 63, 95); fill-opacity: 1; white-space: pre; opacity: 1;">RS</text></g><g class="x2tick"><text text-anchor="middle" x="0" y="246" transform="translate(464.455,0)" style="font-family: 'Open Sans', verdana, arial, sans-serif; font-size: 12px; fill: rgb(42, 63, 95); fill-opacity: 1; white-space: pre; opacity: 1;">GP</text></g><g class="x2tick"><text text-anchor="middle" x="0" y="246" transform="translate(538.675,0)" style="font-family: 'Open Sans', verdana, arial, sans-serif; font-size: 12px; fill: rgb(42, 63, 95); fill-opacity: 1; white-space: pre; opacity: 1;">ET</text></g><g class="x2tick"><text text-anchor="middle" x="0" y="246" transform="translate(612.895,0)" style="font-family: 'Open Sans', verdana, arial, sans-serif; font-size: 12px; fill: rgb(42, 63, 95); fill-opacity: 1; white-space: pre; opacity: 1;">GBRT</text></g></g><g class="yaxislayer-above"><g class="y2tick"><text text-anchor="end" x="352.125" y="4.199999999999999" transform="translate(0,231.8)" style="font-family: 'Open Sans', verdana, arial, sans-serif; font-size: 12px; fill: rgb(42, 63, 95); fill-opacity: 1; white-space: pre; opacity: 1;">0</text></g><g class="y2tick"><text text-anchor="end" x="352.125" y="4.199999999999999" style="font-family: 'Open Sans', verdana, arial, sans-serif; font-size: 12px; fill: rgb(42, 63, 95); fill-opacity: 1; white-space: pre; opacity: 1;" transform="translate(0,192.97)">0.5</text></g><g class="y2tick"><text text-anchor="end" x="352.125" y="4.199999999999999" style="font-family: 'Open Sans', verdana, arial, sans-serif; font-size: 12px; fill: rgb(42, 63, 95); fill-opacity: 1; white-space: pre; opacity: 1;" transform="translate(0,154.15)">1</text></g><g class="y2tick"><text text-anchor="end" x="352.125" y="4.199999999999999" style="font-family: 'Open Sans', verdana, arial, sans-serif; font-size: 12px; fill: rgb(42, 63, 95); fill-opacity: 1; white-space: pre; opacity: 1;" transform="translate(0,115.33)">1.5</text></g><g class="y2tick"><text text-anchor="end" x="352.125" y="4.199999999999999" style="font-family: 'Open Sans', verdana, arial, sans-serif; font-size: 12px; fill: rgb(42, 63, 95); fill-opacity: 1; white-space: pre; opacity: 1;" transform="translate(0,76.5)">2</text></g><g class="y2tick"><text text-anchor="end" x="352.125" y="4.199999999999999" style="font-family: 'Open Sans', verdana, arial, sans-serif; font-size: 12px; fill: rgb(42, 63, 95); fill-opacity: 1; white-space: pre; opacity: 1;" transform="translate(0,37.68)">2.5</text></g></g><g class="overaxes-above"/></g></g><g class="polarlayer"/><g class="smithlayer"/><g class="ternarylayer"/><g class="geolayer"/><g class="funnelarealayer"/><g class="pielayer"/><g class="iciclelayer"/><g class="treemaplayer"/><g class="sunburstlayer"/><g class="glimages"/><defs id="topdefs-2b2e4b"><g class="clips"/></defs><g class="layer-above"><g class="imagelayer"/><g class="shapelayer"/></g><g class="infolayer"><g class="g-gtitle"/><g class="g-xtitle"/><g class="g-x2title"/><g class="g-ytitle"/><g class="g-y2title"/></g></svg>