<svg class="main-svg" xmlns="http://www.w3.org/2000/svg" xmlns:xlink="http://www.w3.org/1999/xlink" width="650" height="450" style="" viewBox="0 0 650 450"><rect x="0" y="0" width="650" height="450" style="fill: rgb(255, 255, 255); fill-opacity: 1;"/><defs id="defs-a1a259"><g class="clips"><clipPath id="clipa1a259xyplot" class="plotclip"><rect width="475" height="194.85"/></clipPath><clipPath id="clipa1a259x2y2plot" class="plotclip"><rect width="475" height="194.85"/></clipPath><clipPath class="axesclip" id="clipa1a259x"><rect x="19" y="0" width="475" height="450"/></clipPath><clipPath class="axesclip" id="clipa1a259y"><rect x="0" y="0" width="650" height="194.85"/></clipPath><clipPath class="axesclip" id="clipa1a259xy"><rect x="19" y="0" width="475" height="194.85"/></clipPath><clipPath class="axesclip" id="clipa1a259y2"><rect x="0" y="238.15" width="650" height="194.85"/></clipPath><clipPath class="axesclip" id="clipa1a259xy2"><rect x="19" y="238.15" width="475" height="194.85"/></clipPath><clipPath class="axesclip" id="clipa1a259x2"><rect x="19" y="0" width="475" height="450"/></clipPath><clipPath class="axesclip" id="clipa1a259x2y"><rect x="19" y="0" width="475" height="194.85"/></clipPath><clipPath class="axesclip" id="clipa1a259x2y2"><rect x="19" y="238.15" width="475" height="194.85"/></clipPath></g><g class="gradients"/><g class="patterns"/></defs><g class="bglayer"><rect class="bg" x="19" y="0" width="475" height="194.85" style="fill: rgb(229, 236, 246); fill-opacity: 1; stroke-width: 0;"/><rect class="bg" x="19" y="238.15" width="475" height="194.85" style="fill: rgb(229, 236, 246); fill-opacity: 1; stroke-width: 0;"/></g><g class="layer-below"><g class="imagelayer"/><g class="shapelayer"/></g><g class="cartesianlayer"><g class="subplot xy"><g class="layer-subplot"><g class="shapelayer"/><g class="imagelayer"/></g><g class="minor-gridlayer"><g class="x"/><g class="y"/></g><g class="gridlayer"><g class="x"/><g class="y"><path class="ygrid crisp" transform="translate(0,165.62)" d="M19,0h475" style="stroke: rgb(255, 255, 255); stroke-opacity: 1; stroke-width: 1px;"/><path class="ygrid crisp" transform="translate(0,126.65)" d="M19,0h475" style="stroke: rgb(255, 255, 255); stroke-opacity: 1; stroke-width: 1px;"/><path class="ygrid crisp" transform="translate(0,87.68)" d="M19,0h475" style="stroke: rgb(255, 255, 255); stroke-opacity: 1; stroke-width: 1px;"/><path class="ygrid crisp" transform="translate(0,48.71)" d="M19,0h475" style="stroke: rgb(255, 255, 255); stroke-opacity: 1; stroke-width: 1px;"/><path class="ygrid crisp" transform="translate(0,9.74)" d="M19,0h475" style="stroke: rgb(255, 255, 255); stroke-opacity: 1; stroke-width: 1px;"/></g></g><g class="zerolinelayer"/><path class="xlines-below"/><path class="ylines-below"/><g class="overlines-below"/><g class="xaxislayer-below"/><g class="yaxislayer-below"/><g class="overaxes-below"/><g class="plot" transform="translate(19,0)" clip-path="url(#clipa1a259xyplot)"><g class="boxlayer mlayer"><g class="trace boxes" style="opacity: 1;"><path class="box" d="M32.7,165.62H82.73M32.7,165.62H82.73V165.62H32.7ZM57.72,165.62V165.62M57.72,165.62V165.62M45.21,165.62H70.22M45.21,165.62H70.22" style="vector-effect: non-scaling-stroke; stroke-width: 2px; stroke: rgb(99, 110, 250); stroke-opacity: 1; fill: rgb(99, 110, 250); fill-opacity: 0.5;"/><path class="box" d="M267.2,19.49H317.23M267.2,68.2H317.23V9.74H267.2ZM292.22,68.2V126.65M292.22,9.74V9.74M279.71,126.65H304.72M279.71,9.74H304.72" style="vector-effect: non-scaling-stroke; stroke-width: 2px; stroke: rgb(99, 110, 250); stroke-opacity: 1; fill: rgb(99, 110, 250); fill-opacity: 0.5;"/><g class="points"><path class="point" transform="translate(57.72,185.11)" d="M3,0A3,3 0 1,1 0,-3A3,3 0 0,1 3,0Z" style="opacity: 1; stroke-width: 0px; fill: rgb(99, 110, 250); fill-opacity: 1;"/><path class="point" transform="translate(57.72,185.11)" d="M3,0A3,3 0 1,1 0,-3A3,3 0 0,1 3,0Z" style="opacity: 1; stroke-width: 0px; fill: rgb(99, 110, 250); fill-opacity: 1;"/><path class="point" transform="translate(57.72,185.11)" d="M3,0A3,3 0 1,1 0,-3A3,3 0 0,1 3,0Z" style="opacity: 1; stroke-width: 0px; fill: rgb(99, 110, 250); fill-opacity: 1;"/><path class="point" transform="translate(57.72,185.11)" d="M3,0A3,3 0 1,1 0,-3A3,3 0 0,1 3,0Z" style="opacity: 1; stroke-width: 0px; fill: rgb(99, 110, 250); fill-opacity: 1;"/><path class="point" transform="translate(57.72,185.11)" d="M3,0A3,3 0 1,1 0,-3A3,3 0 0,1 3,0Z" style="opacity: 1; stroke-width: 0px; fill: rgb(99, 110, 250); fill-opacity: 1;"/><path class="point" transform="translate(57.72,185.11)" d="M3,0A3,3 0 1,1 0,-3A3,3 0 0,1 3,0Z" style="opacity: 1; stroke-width: 0px; fill: rgb(99, 110, 250); fill-opacity: 1;"/><path class="point" transform="translate(57.72,146.14)" d="M3,0A3,3 0 1,1 0,-3A3,3 0 0,1 3,0Z" style="opacity: 1; stroke-width: 0px; fill: rgb(99, 110, 250); fill-opacity: 1;"/><path class="point" transform="translate(57.72,146.14)" d="M3,0A3,3 0 1,1 0,-3A3,3 0 0,1 3,0Z" style="opacity: 1; stroke-width: 0px; fill: rgb(99, 110, 250); fill-opacity: 1;"/><path class="point" transform="translate(57.72,146.14)" d="M3,0A3,3 0 1,1 0,-3A3,3 0 0,1 3,0Z" style="opacity: 1; stroke-width: 0px; fill: rgb(99, 110, 250); fill-opacity: 1;"/><path class="point" transform="translate(57.72,146.14)" d="M3,0A3,3 0 1,1 0,-3A3,3 0 0,1 3,0Z" style="opacity: 1; stroke-width: 0px; fill: rgb(99, 110, 250); fill-opacity: 1;"/><path class="point" transform="translate(57.72,126.65)" d="M3,0A3,3 0 1,1 0,-3A3,3 0 0,1 3,0Z" style="opacity: 1; stroke-width: 0px; fill: rgb(99, 110, 250); fill-opacity: 1;"/><path class="point" transform="translate(57.72,126.65)" d="M3,0A3,3 0 1,1 0,-3A3,3 0 0,1 3,0Z" style="opacity: 1; stroke-width: 0px; fill: rgb(99, 110, 250); fill-opacity: 1;"/><path class="point" transform="translate(57.72,107.17)" d="M3,0A3,3 0 1,1 0,-3A3,3 0 0,1 3,0Z" style="opacity: 1; stroke-width: 0px; fill: rgb(99, 110, 250); fill-opacity: 1;"/></g><g class="points"/></g><g class="trace boxes" style="opacity: 1;"><path class="box" d="M95.24,166.62H145.26M95.24,185.11H145.26V165.62H95.24ZM120.25,185.11V185.11M120.25,165.62V146.14M107.74,185.11H132.76M107.74,146.14H132.76" style="vector-effect: non-scaling-stroke; stroke-width: 2px; stroke: rgb(239, 85, 59); stroke-opacity: 1; fill: rgb(239, 85, 59); fill-opacity: 0.5;"/><path class="box" d="M329.74,29.23H379.76M329.74,48.71H379.76V9.74H329.74ZM354.75,48.71V68.2M354.75,9.74V9.74M342.24,68.2H367.26M342.24,9.74H367.26" style="vector-effect: non-scaling-stroke; stroke-width: 2px; stroke: rgb(239, 85, 59); stroke-opacity: 1; fill: rgb(239, 85, 59); fill-opacity: 0.5;"/><g class="points"/><g class="points"/></g><g class="trace boxes" style="opacity: 1;"><path class="box" d="M157.77,184.11H207.8M157.77,185.11H207.8V165.62H157.77ZM182.78,185.11V185.11M182.78,165.62V146.14M170.28,185.11H195.29M170.28,146.14H195.29" style="vector-effect: non-scaling-stroke; stroke-width: 2px; stroke: rgb(0, 204, 150); stroke-opacity: 1; fill: rgb(0, 204, 150); fill-opacity: 0.5;"/><path class="box" d="M392.27,19.49H442.3M392.27,29.23H442.3V9.74H392.27ZM417.28,29.23V48.71M417.28,9.74V9.74M404.78,48.71H429.79M404.78,9.74H429.79" style="vector-effect: non-scaling-stroke; stroke-width: 2px; stroke: rgb(0, 204, 150); stroke-opacity: 1; fill: rgb(0, 204, 150); fill-opacity: 0.5;"/><g class="points"/><g class="points"><path class="point" transform="translate(417.28,87.68)" d="M3,0A3,3 0 1,1 0,-3A3,3 0 0,1 3,0Z" style="opacity: 1; stroke-width: 0px; fill: rgb(0, 204, 150); fill-opacity: 1;"/><path class="point" transform="translate(417.28,68.2)" d="M3,0A3,3 0 1,1 0,-3A3,3 0 0,1 3,0Z" style="opacity: 1; stroke-width: 0px; fill: rgb(0, 204, 150); fill-opacity: 1;"/><path class="point" transform="translate(417.28,68.2)" d="M3,0A3,3 0 1,1 0,-3A3,3 0 0,1 3,0Z" style="opacity: 1; stroke-width: 0px; fill: rgb(0, 204, 150); fill-opacity: 1;"/></g></g></g></g><g class="overplot"/><path class="xlines-above crisp" d="M0,0" style="fill: none;"/><path class="ylines-above crisp" d="M0,0" style="fill: none;"/><g class="overlines-above"/><g class="xaxislayer-above"><g class="xtick"><text text-anchor="middle" x="0" y="208.85" transform="translate(139.25,0)" style="font-family: Helvetica; font-size: 13px; fill: rgb(42, 63, 95); fill-opacity: 1; white-space: pre; opacity: 1;">alpha</text></g><g class="xtick"><text text-anchor="middle" x="0" y="208.85" transform="translate(373.75,0)" style="font-family: Helvetica; font-size: 13px; fill: rgb(42, 63, 95); fill-opacity: 1; white-space: pre; opacity: 1;">beta</text></g></g><g class="yaxislayer-above"><g class="ytick"><text text-anchor="end" x="18" y="4.55" transform="translate(0,165.62)" style="font-family: Helvetica; font-size: 13px; fill: rgb(42, 63, 95); fill-opacity: 1; white-space: pre; opacity: 1;">2</text></g><g class="ytick"><text text-anchor="end" x="18" y="4.55" style="font-family: Helvetica; font-size: 13px; fill: rgb(42, 63, 95); fill-opacity: 1; white-space: pre; opacity: 1;" transform="translate(0,126.65)">4</text></g><g class="ytick"><text text-anchor="end" x="18" y="4.55" style="font-family: Helvetica; font-size: 13px; fill: rgb(42, 63, 95); fill-opacity: 1; white-space: pre; opacity: 1;" transform="translate(0,87.68)">6</text></g><g class="ytick"><text text-anchor="end" x="18" y="4.55" style="font-family: Helvetica; font-size: 13px; fill: rgb(42, 63, 95); fill-opacity: 1; white-space: pre; opacity: 1;" transform="translate(0,48.71)">8</text></g><g class="ytick"><text text-anchor="end" x="18" y="4.55" style="font-family: Helvetica; font-size: 13px; fill: rgb(42, 63, 95); fill-opacity: 1; white-space: pre; opacity: 1;" transform="translate(0,9.74)">10</text></g></g><g class="overaxes-above"/></g><g class="subplot x2y2"><g class="layer-subplot"><g class="shapelayer"/><g class="imagelayer"/></g><g class="minor-gridlayer"><g class="x2"/><g class="y2"/></g><g class="gridlayer"><g class="x2"/><g class="y2"><path class="y2grid crisp" transform="translate(0,387.99)" d="M19,0h475" style="stroke: rgb(255, 255, 255); stroke-opacity: 1; stroke-width: 1px;"/><path class="y2grid crisp" transform="translate(0,352.5)" d="M19,0h475" style="stroke: rgb(255, 255, 255); stroke-opacity: 1; stroke-width: 1px;"/><path class="y2grid crisp" transform="translate(0,317.01)" d="M19,0h475" style="stroke: rgb(255, 255, 255); stroke-opacity: 1; stroke-width: 1px;"/><path class="y2grid crisp" transform="translate(0,281.51)" d="M19,0h475" style="stroke: rgb(255, 255, 255); stroke-opacity: 1; stroke-width: 1px;"/><path class="y2grid crisp" transform="translate(0,246.02)" d="M19,0h475" style="stroke: rgb(255, 255, 255); stroke-opacity: 1; stroke-width: 1px;"/></g></g><g class="zerolinelayer"><path class="y2zl zl crisp" transform="translate(0,423.49)" d="M19,0h475" style="stroke: rgb(255, 255, 255); stroke-opacity: 1; stroke-width: 2px;"/></g><path class="xlines-below"/><path class="ylines-below"/><g class="overlines-below"/><g class="xaxislayer-below"/><g class="yaxislayer-below"/><g class="overaxes-below"/><g class="plot" transform="translate(19,238.15)" clip-path="url(#clipa1a259x2y2plot)"><g class="boxlayer mlayer"><g class="trace boxes" style="opacity: 1;"><path class="box" d="M15.04,140.54H40.38M15.04,167.68H40.38V60.27H15.04ZM27.71,167.68V185.03M27.71,60.27V11.36M21.37,185.03H34.04M21.37,11.36H34.04" style="vector-effect: non-scaling-stroke; stroke-width: 2px; stroke: rgb(99, 110, 250); stroke-opacity: 1; fill: rgb(99, 110, 250); fill-opacity: 0.5;"/><path class="box" d="M133.79,107.97H159.13M133.79,167.9H159.13V62.37H133.79ZM146.46,167.9V183.84M146.46,62.37V11M140.13,183.84H152.79M140.13,11H152.79" style="vector-effect: non-scaling-stroke; stroke-width: 2px; stroke: rgb(99, 110, 250); stroke-opacity: 1; fill: rgb(99, 110, 250); fill-opacity: 0.5;"/><path class="box" d="M252.54,66.21H277.88M252.54,111.25H277.88V40.55H252.54ZM265.21,111.25V153.14M265.21,40.55V10.03M258.88,153.14H271.54M258.88,10.03H271.54" style="vector-effect: non-scaling-stroke; stroke-width: 2px; stroke: rgb(99, 110, 250); stroke-opacity: 1; fill: rgb(99, 110, 250); fill-opacity: 0.5;"/><path class="box" d="M371.29,123.44H396.63M371.29,138.73H396.63V105.91H371.29ZM383.96,138.73V166.53M383.96,105.91V97.89M377.63,166.53H390.29M377.63,97.89H390.29" style="vector-effect: non-scaling-stroke; stroke-width: 2px; stroke: rgb(99, 110, 250); stroke-opacity: 1; fill: rgb(99, 110, 250); fill-opacity: 0.5;"/><g class="points"/><g class="points"/><g class="points"/><g class="points"/></g><g class="trace boxes" style="opacity: 1;"><path class="box" d="M46.71,135.49H72.04M46.71,172.24H72.04V38.78H46.71ZM59.38,172.24V184.91M59.38,38.78V10.74M53.04,184.91H65.71M53.04,10.74H65.71" style="vector-effect: non-scaling-stroke; stroke-width: 2px; stroke: rgb(239, 85, 59); stroke-opacity: 1; fill: rgb(239, 85, 59); fill-opacity: 0.5;"/><path class="box" d="M165.46,144.45H190.79M165.46,175.66H190.79V92.67H165.46ZM178.13,175.66V185.11M178.13,92.67V12.31M171.79,185.11H184.46M171.79,12.31H184.46" style="vector-effect: non-scaling-stroke; stroke-width: 2px; stroke: rgb(239, 85, 59); stroke-opacity: 1; fill: rgb(239, 85, 59); fill-opacity: 0.5;"/><path class="box" d="M284.21,87.81H309.54M284.21,132.76H309.54V18.7H284.21ZM296.88,132.76V162.34M296.88,18.7V10.34M290.54,162.34H303.21M290.54,10.34H303.21" style="vector-effect: non-scaling-stroke; stroke-width: 2px; stroke: rgb(239, 85, 59); stroke-opacity: 1; fill: rgb(239, 85, 59); fill-opacity: 0.5;"/><path class="box" d="M402.96,123.46H428.29M402.96,142.99H428.29V110.74H402.96ZM415.63,142.99V167.52M415.63,110.74V97.22M409.29,167.52H421.96M409.29,97.22H421.96" style="vector-effect: non-scaling-stroke; stroke-width: 2px; stroke: rgb(239, 85, 59); stroke-opacity: 1; fill: rgb(239, 85, 59); fill-opacity: 0.5;"/><g class="points"/><g class="points"/><g class="points"/><g class="points"/></g><g class="trace boxes" style="opacity: 1;"><path class="box" d="M78.38,106.81H103.71M78.38,148.03H103.71V26.87H78.38ZM91.04,148.03V183.82M91.04,26.87V11.07M84.71,183.82H97.38M84.71,11.07H97.38" style="vector-effect: non-scaling-stroke; stroke-width: 2px; stroke: rgb(0, 204, 150); stroke-opacity: 1; fill: rgb(0, 204, 150); fill-opacity: 0.5;"/><path class="box" d="M197.13,117.58H222.46M197.13,162.78H222.46V58.77H197.13ZM209.79,162.78V184.73M209.79,58.77V13.74M203.46,184.73H216.12M203.46,13.74H216.12" style="vector-effect: non-scaling-stroke; stroke-width: 2px; stroke: rgb(0, 204, 150); stroke-opacity: 1; fill: rgb(0, 204, 150); fill-opacity: 0.5;"/><path class="box" d="M315.88,66.91H341.21M315.88,98.95H341.21V13.45H315.88ZM328.54,98.95V181.02M328.54,13.45V9.74M322.21,181.02H334.88M322.21,9.74H334.88" style="vector-effect: non-scaling-stroke; stroke-width: 2px; stroke: rgb(0, 204, 150); stroke-opacity: 1; fill: rgb(0, 204, 150); fill-opacity: 0.5;"/><path class="box" d="M434.63,138.13H459.96M434.63,154.97H459.96V125.4H434.63ZM447.29,154.97V167.58M447.29,125.4V98.26M440.96,167.58H453.63M440.96,98.26H453.63" style="vector-effect: non-scaling-stroke; stroke-width: 2px; stroke: rgb(0, 204, 150); stroke-opacity: 1; fill: rgb(0, 204, 150); fill-opacity: 0.5;"/><g class="points"/><g class="points"/><g class="points"/><g class="points"/></g></g></g><g class="overplot"/><path class="xlines-above crisp" d="M0,0" style="fill: none;"/><path class="ylines-above crisp" d="M0,0" style="fill: none;"/><g class="overlines-above"/><g class="xaxislayer-above"><g class="x2tick"><text text-anchor="middle" x="0" y="447" transform="translate(78.38,0)" style="font-family: Helvetica; font-size: 13px; fill: rgb(42, 63, 95); fill-opacity: 1; white-space: pre; opacity: 1;">w_pers_best</text></g><g class="x2tick"><text text-anchor="middle" x="0" y="447" transform="translate(197.13,0)" style="font-family: Helvetica; font-size: 13px; fill: rgb(42, 63, 95); fill-opacity: 1; white-space: pre; opacity: 1;">w_pers_prev</text></g><g class="x2tick"><text text-anchor="middle" x="0" y="447" transform="translate(315.88,0)" style="font-family: Helvetica; font-size: 13px; fill: rgb(42, 63, 95); fill-opacity: 1; white-space: pre; opacity: 1;">w_parent_best</text></g><g class="x2tick"><text text-anchor="middle" x="0" y="447" transform="translate(434.63,0)" style="font-family: Helvetica; font-size: 13px; fill: rgb(42, 63, 95); fill-opacity: 1; white-space: pre; opacity: 1;">detection_threshold</text></g></g><g class="yaxislayer-above"><g class="y2tick"><text text-anchor="end" x="18" y="4.55" transform="translate(0,423.49)" style="font-family: Helvetica; font-size: 13px; fill: rgb(42, 63, 95); fill-opacity: 1; white-space: pre; opacity: 1;">0</text></g><g class="y2tick"><text text-anchor="end" x="18" y="4.55" style="font-family: Helvetica; font-size: 13px; fill: rgb(42, 63, 95); fill-opacity: 1; white-space: pre; opacity: 1;" transform="translate(0,387.99)">0.2</text></g><g class="y2tick"><text text-anchor="end" x="18" y="4.55" style="font-family: Helvetica; font-size: 13px; fill: rgb(42, 63, 95); fill-opacity: 1; white-space: pre; opacity: 1;" transform="translate(0,352.5)">0.4</text></g><g class="y2tick"><text text-anchor="end" x="18" y="4.55" style="font-family: Helvetica; font-size: 13px; fill: rgb(42, 63, 95); fill-opacity: 1; white-space: pre; opacity: 1;" transform="translate(0,317.01)">0.6</text></g><g class="y2tick"><text text-anchor="end" x="18" y="4.55" style="font-family: Helvetica; font-size: 13px; fill: rgb(42, 63, 95); fill-opacity: 1; white-space: pre; opacity: 1;" transform="translate(0,281.51)">0.8</text></g><g class="y2tick"><text text-anchor="end" x="18" y="4.55" style="font-family: Helvetica; font-size: 13px; fill: rgb(42, 63, 95); fill-opacity: 1; white-space: pre; opacity: 1;" transform="translate(0,246.02)">1</text></g></g><g class="overaxes-above"/></g></g><g class="polarlayer"/><g class="smithlayer"/><g class="ternarylayer"/><g class="geolayer"/><g class="funnelarealayer"/><g class="pielayer"/><g class="iciclelayer"/><g class="treemaplayer"/><g class="sunburstlayer"/><g class="glimages"/><defs id="topdefs-a1a259"><g class="clips"/><clipPath id="legenda1a259"><rect width="146" height="91" x="0" y="0"/></clipPath></defs><g class="layer-above"><g class="imagelayer"/><g class="shapelayer"/></g><g class="infolayer"><g class="legend" pointer-events="all" transform="translate(503.5,0)"><rect class="bg" shape-rendering="crispEdges" style="stroke: rgb(68, 68, 68); stroke-opacity: 1; fill: rgb(255, 255, 255); fill-opacity: 1; stroke-width: 0px;" width="146" height="91" x="0" y="0"/><g class="scrollbox" transform="" clip-path="url(#legenda1a259)"><text class="legendtitletext" text-anchor="start" x="2" y="20.8" style="font-family: Helvetica; font-size: 16px; fill: rgb(42, 63, 95); fill-opacity: 1; white-space: pre;">Dynamic intensity C</text><g class="groups" transform=""><g class="traces" transform="translate(0,35.75)" style="opacity: 1;"><text class="legendtext" text-anchor="start" x="40" y="5.07" style="font-family: Helvetica; font-size: 13px; fill: rgb(42, 63, 95); fill-opacity: 1; white-space: pre;">0.1</text><g class="layers" style="opacity: 1;"><g class="legendfill"/><g class="legendlines"/><g class="legendsymbols"><g class="legendpoints"><path class="legendbox" d="M6,6H-6V-6H6Z" transform="translate(20,0)" style="stroke-width: 2px; fill: rgb(99, 110, 250); fill-opacity: 0.5; stroke: rgb(99, 110, 250); stroke-opacity: 1;"/></g></g></g><rect class="legendtoggle" x="0" y="-9.950000000000001" width="65.3125" height="19.900000000000002" style="fill: rgb(0, 0, 0); fill-opacity: 0;"/></g><g class="traces" transform="translate(0,55.650000000000006)" style="opacity: 1;"><text class="legendtext" text-anchor="start" x="40" y="5.07" style="font-family: Helvetica; font-size: 13px; fill: rgb(42, 63, 95); fill-opacity: 1; white-space: pre;">0.25</text><g class="layers" style="opacity: 1;"><g class="legendfill"/><g class="legendlines"/><g class="legendsymbols"><g class="legendpoints"><path class="legendbox" d="M6,6H-6V-6H6Z" transform="translate(20,0)" style="stroke-width: 2px; fill: rgb(239, 85, 59); fill-opacity: 0.5; stroke: rgb(239, 85, 59); stroke-opacity: 1;"/></g></g></g><rect class="legendtoggle" x="0" y="-9.950000000000001" width="65.3125" height="19.900000000000002" style="fill: rgb(0, 0, 0); fill-opacity: 0;"/></g><g class="traces" transform="translate(0,75.55000000000001)" style="opacity: 1;"><text class="legendtext" text-anchor="start" x="40" y="5.07" style="font-family: Helvetica; font-size: 13px; fill: rgb(42, 63, 95); fill-opacity: 1; white-space: pre;">0.5</text><g class="layers" style="opacity: 1;"><g class="legendfill"/><g class="legendlines"/><g class="legendsymbols"><g class="legendpoints"><path class="legendbox" d="M6,6H-6V-6H6Z" transform="translate(20,0)" style="stroke-width: 2px; fill: rgb(0, 204, 150); fill-opacity: 0.5; stroke: rgb(0, 204, 150); stroke-opacity: 1;"/></g></g></g><rect class="legendtoggle" x="0" y="-9.950000000000001" width="65.3125" height="19.900000000000002" style="fill: rgb(0, 0, 0); fill-opacity: 0;"/></g></g></g><rect class="scrollbar" rx="20" ry="3" width="0" height="0" style="fill: rgb(128, 139, 164); fill-opacity: 1;" x="0" y="0"/></g><g class="g-gtitle"/><g class="g-xtitle"/><g class="g-x2title"/><g class="g-ytitle"/><g class="g-y2title"/></g></svg>