<svg class="main-svg" xmlns="http://www.w3.org/2000/svg" xmlns:xlink="http://www.w3.org/1999/xlink" width="650" height="450" style="" viewBox="0 0 650 450"><rect x="0" y="0" width="650" height="450" style="fill: rgb(255, 255, 255); fill-opacity: 1;"/><defs id="defs-d66a15"><g class="clips"><clipPath id="clipd66a15xyplot" class="plotclip"><rect width="493" height="194.85"/></clipPath><clipPath id="clipd66a15x2y2plot" class="plotclip"><rect width="493" height="194.85"/></clipPath><clipPath class="axesclip" id="clipd66a15x"><rect x="19" y="0" width="493" height="450"/></clipPath><clipPath class="axesclip" id="clipd66a15y"><rect x="0" y="0" width="650" height="194.85"/></clipPath><clipPath class="axesclip" id="clipd66a15xy"><rect x="19" y="0" width="493" height="194.85"/></clipPath><clipPath class="axesclip" id="clipd66a15y2"><rect x="0" y="238.15" width="650" height="194.85"/></clipPath><clipPath class="axesclip" id="clipd66a15xy2"><rect x="19" y="238.15" width="493" height="194.85"/></clipPath><clipPath class="axesclip" id="clipd66a15x2"><rect x="19" y="0" width="493" height="450"/></clipPath><clipPath class="axesclip" id="clipd66a15x2y"><rect x="19" y="0" width="493" height="194.85"/></clipPath><clipPath class="axesclip" id="clipd66a15x2y2"><rect x="19" y="238.15" width="493" height="194.85"/></clipPath></g><g class="gradients"/><g class="patterns"/></defs><g class="bglayer"><rect class="bg" x="19" y="0" width="493" height="194.85" style="fill: rgb(229, 236, 246); fill-opacity: 1; stroke-width: 0;"/><rect class="bg" x="19" y="238.15" width="493" height="194.85" style="fill: rgb(229, 236, 246); fill-opacity: 1; stroke-width: 0;"/></g><g class="layer-below"><g class="imagelayer"/><g class="shapelayer"/></g><g class="cartesianlayer"><g class="subplot xy"><g class="layer-subplot"><g class="shapelayer"/><g class="imagelayer"/></g><g class="minor-gridlayer"><g class="x"/><g class="y"/></g><g class="gridlayer"><g class="x"/><g class="y"><path class="ygrid crisp" transform="translate(0,165.62)" d="M19,0h493" style="stroke: rgb(255, 255, 255); stroke-opacity: 1; stroke-width: 1px;"/><path class="ygrid crisp" transform="translate(0,126.65)" d="M19,0h493" style="stroke: rgb(255, 255, 255); stroke-opacity: 1; stroke-width: 1px;"/><path class="ygrid crisp" transform="translate(0,87.68)" d="M19,0h493" style="stroke: rgb(255, 255, 255); stroke-opacity: 1; stroke-width: 1px;"/><path class="ygrid crisp" transform="translate(0,48.71)" d="M19,0h493" style="stroke: rgb(255, 255, 255); stroke-opacity: 1; stroke-width: 1px;"/><path class="ygrid crisp" transform="translate(0,9.74)" d="M19,0h493" style="stroke: rgb(255, 255, 255); stroke-opacity: 1; stroke-width: 1px;"/></g></g><g class="zerolinelayer"/><path class="xlines-below"/><path class="ylines-below"/><g class="overlines-below"/><g class="xaxislayer-below"/><g class="yaxislayer-below"/><g class="overaxes-below"/><g class="plot" transform="translate(19,0)" clip-path="url(#clipd66a15xyplot)"><g class="boxlayer mlayer"><g class="trace boxes" style="opacity: 1;"><path class="box" d="M31.25,166.62H62.41M31.25,185.11H62.41V165.62H31.25ZM46.83,185.11V185.11M46.83,165.62V146.14M39.04,185.11H54.62M39.04,146.14H54.62" style="vector-effect: non-scaling-stroke; stroke-width: 2px; stroke: rgb(99, 110, 250); stroke-opacity: 1; fill: rgb(99, 110, 250); fill-opacity: 0.5;"/><path class="box" d="M274.75,38.97H305.91M274.75,68.2H305.91V9.74H274.75ZM290.33,68.2V107.17M290.33,9.74V9.74M282.54,107.17H298.12M282.54,9.74H298.12" style="vector-effect: non-scaling-stroke; stroke-width: 2px; stroke: rgb(99, 110, 250); stroke-opacity: 1; fill: rgb(99, 110, 250); fill-opacity: 0.5;"/><g class="points"><path class="point" transform="translate(46.83,107.17)" d="M3,0A3,3 0 1,1 0,-3A3,3 0 0,1 3,0Z" style="opacity: 1; stroke-width: 0px; fill: rgb(99, 110, 250); fill-opacity: 1;"/></g><g class="points"/></g><g class="trace boxes" style="opacity: 1;"><path class="box" d="M70.21,175.37H101.37M70.21,185.11H101.37V165.62H70.21ZM85.79,185.11V185.11M85.79,165.62V146.14M78,185.11H93.58M78,146.14H93.58" style="vector-effect: non-scaling-stroke; stroke-width: 2px; stroke: rgb(239, 85, 59); stroke-opacity: 1; fill: rgb(239, 85, 59); fill-opacity: 0.5;"/><path class="box" d="M313.71,28.23H344.87M313.71,29.23H344.87V9.74H313.71ZM329.29,29.23V48.71M329.29,9.74V9.74M321.5,48.71H337.08M321.5,9.74H337.08" style="vector-effect: non-scaling-stroke; stroke-width: 2px; stroke: rgb(239, 85, 59); stroke-opacity: 1; fill: rgb(239, 85, 59); fill-opacity: 0.5;"/><g class="points"/><g class="points"><path class="point" transform="translate(329.29,126.65)" d="M3,0A3,3 0 1,1 0,-3A3,3 0 0,1 3,0Z" style="opacity: 1; stroke-width: 0px; fill: rgb(239, 85, 59); fill-opacity: 1;"/><path class="point" transform="translate(329.29,68.2)" d="M3,0A3,3 0 1,1 0,-3A3,3 0 0,1 3,0Z" style="opacity: 1; stroke-width: 0px; fill: rgb(239, 85, 59); fill-opacity: 1;"/></g></g><g class="trace boxes" style="opacity: 1;"><path class="box" d="M109.17,165.62H140.33M109.17,165.62H140.33V165.62H109.17ZM124.75,165.62V165.62M124.75,165.62V165.62M116.96,165.62H132.54M116.96,165.62H132.54" style="vector-effect: non-scaling-stroke; stroke-width: 2px; stroke: rgb(0, 204, 150); stroke-opacity: 1; fill: rgb(0, 204, 150); fill-opacity: 0.5;"/><path class="box" d="M352.67,29.23H383.83M352.67,48.71H383.83V9.74H352.67ZM368.25,48.71V68.2M368.25,9.74V9.74M360.46,68.2H376.04M360.46,9.74H376.04" style="vector-effect: non-scaling-stroke; stroke-width: 2px; stroke: rgb(0, 204, 150); stroke-opacity: 1; fill: rgb(0, 204, 150); fill-opacity: 0.5;"/><g class="points"><path class="point" transform="translate(124.75,185.11)" d="M3,0A3,3 0 1,1 0,-3A3,3 0 0,1 3,0Z" style="opacity: 1; stroke-width: 0px; fill: rgb(0, 204, 150); fill-opacity: 1;"/><path class="point" transform="translate(124.75,185.11)" d="M3,0A3,3 0 1,1 0,-3A3,3 0 0,1 3,0Z" style="opacity: 1; stroke-width: 0px; fill: rgb(0, 204, 150); fill-opacity: 1;"/><path class="point" transform="translate(124.75,185.11)" d="M3,0A3,3 0 1,1 0,-3A3,3 0 0,1 3,0Z" style="opacity: 1; stroke-width: 0px; fill: rgb(0, 204, 150); fill-opacity: 1;"/><path class="point" transform="translate(124.75,185.11)" d="M3,0A3,3 0 1,1 0,-3A3,3 0 0,1 3,0Z" style="opacity: 1; stroke-width: 0px; fill: rgb(0, 204, 150); fill-opacity: 1;"/><path class="point" transform="translate(124.75,146.14)" d="M3,0A3,3 0 1,1 0,-3A3,3 0 0,1 3,0Z" style="opacity: 1; stroke-width: 0px; fill: rgb(0, 204, 150); fill-opacity: 1;"/></g><g class="points"/></g><g class="trace boxes" style="opacity: 1;"><path class="box" d="M148.13,166.62H179.29M148.13,185.11H179.29V165.62H148.13ZM163.71,185.11V185.11M163.71,165.62V146.14M155.92,185.11H171.5M155.92,146.14H171.5" style="vector-effect: non-scaling-stroke; stroke-width: 2px; stroke: rgb(171, 99, 250); stroke-opacity: 1; fill: rgb(171, 99, 250); fill-opacity: 0.5;"/><path class="box" d="M391.63,10.74H422.79M391.63,29.23H422.79V9.74H391.63ZM407.21,29.23V48.71M407.21,9.74V9.74M399.42,48.71H415M399.42,9.74H415" style="vector-effect: non-scaling-stroke; stroke-width: 2px; stroke: rgb(171, 99, 250); stroke-opacity: 1; fill: rgb(171, 99, 250); fill-opacity: 0.5;"/><g class="points"/><g class="points"/></g><g class="trace boxes" style="opacity: 1;"><path class="box" d="M187.09,164.62H218.25M187.09,165.62H218.25V146.14H187.09ZM202.67,165.62V185.11M202.67,146.14V126.65M194.88,185.11H210.46M194.88,126.65H210.46" style="vector-effect: non-scaling-stroke; stroke-width: 2px; stroke: rgb(255, 161, 90); stroke-opacity: 1; fill: rgb(255, 161, 90); fill-opacity: 0.5;"/><path class="box" d="M430.59,10.74H461.75M430.59,29.23H461.75V9.74H430.59ZM446.17,29.23V29.23M446.17,9.74V9.74M438.38,29.23H453.96M438.38,9.74H453.96" style="vector-effect: non-scaling-stroke; stroke-width: 2px; stroke: rgb(255, 161, 90); stroke-opacity: 1; fill: rgb(255, 161, 90); fill-opacity: 0.5;"/><g class="points"/><g class="points"><path class="point" transform="translate(446.17,68.2)" d="M3,0A3,3 0 1,1 0,-3A3,3 0 0,1 3,0Z" style="opacity: 1; stroke-width: 0px; fill: rgb(255, 161, 90); fill-opacity: 1;"/></g></g></g></g><g class="overplot"/><path class="xlines-above crisp" d="M0,0" style="fill: none;"/><path class="ylines-above crisp" d="M0,0" style="fill: none;"/><g class="overlines-above"/><g class="xaxislayer-above"><g class="xtick"><text text-anchor="middle" x="0" y="208.85" transform="translate(143.75,0)" style="font-family: Helvetica; font-size: 13px; fill: rgb(42, 63, 95); fill-opacity: 1; white-space: pre; opacity: 1;">alpha</text></g><g class="xtick"><text text-anchor="middle" x="0" y="208.85" transform="translate(387.25,0)" style="font-family: Helvetica; font-size: 13px; fill: rgb(42, 63, 95); fill-opacity: 1; white-space: pre; opacity: 1;">beta</text></g></g><g class="yaxislayer-above"><g class="ytick"><text text-anchor="end" x="18" y="4.55" transform="translate(0,165.62)" style="font-family: Helvetica; font-size: 13px; fill: rgb(42, 63, 95); fill-opacity: 1; white-space: pre; opacity: 1;">2</text></g><g class="ytick"><text text-anchor="end" x="18" y="4.55" style="font-family: Helvetica; font-size: 13px; fill: rgb(42, 63, 95); fill-opacity: 1; white-space: pre; opacity: 1;" transform="translate(0,126.65)">4</text></g><g class="ytick"><text text-anchor="end" x="18" y="4.55" style="font-family: Helvetica; font-size: 13px; fill: rgb(42, 63, 95); fill-opacity: 1; white-space: pre; opacity: 1;" transform="translate(0,87.68)">6</text></g><g class="ytick"><text text-anchor="end" x="18" y="4.55" style="font-family: Helvetica; font-size: 13px; fill: rgb(42, 63, 95); fill-opacity: 1; white-space: pre; opacity: 1;" transform="translate(0,48.71)">8</text></g><g class="ytick"><text text-anchor="end" x="18" y="4.55" style="font-family: Helvetica; font-size: 13px; fill: rgb(42, 63, 95); fill-opacity: 1; white-space: pre; opacity: 1;" transform="translate(0,9.74)">10</text></g></g><g class="overaxes-above"/></g><g class="subplot x2y2"><g class="layer-subplot"><g class="shapelayer"/><g class="imagelayer"/></g><g class="minor-gridlayer"><g class="x2"/><g class="y2"/></g><g class="gridlayer"><g class="x2"/><g class="y2"><path class="y2grid crisp" transform="translate(0,387.99)" d="M19,0h493" style="stroke: rgb(255, 255, 255); stroke-opacity: 1; stroke-width: 1px;"/><path class="y2grid crisp" transform="translate(0,352.5)" d="M19,0h493" style="stroke: rgb(255, 255, 255); stroke-opacity: 1; stroke-width: 1px;"/><path class="y2grid crisp" transform="translate(0,317.01)" d="M19,0h493" style="stroke: rgb(255, 255, 255); stroke-opacity: 1; stroke-width: 1px;"/><path class="y2grid crisp" transform="translate(0,281.51)" d="M19,0h493" style="stroke: rgb(255, 255, 255); stroke-opacity: 1; stroke-width: 1px;"/><path class="y2grid crisp" transform="translate(0,246.02)" d="M19,0h493" style="stroke: rgb(255, 255, 255); stroke-opacity: 1; stroke-width: 1px;"/></g></g><g class="zerolinelayer"><path class="y2zl zl crisp" transform="translate(0,423.49)" d="M19,0h493" style="stroke: rgb(255, 255, 255); stroke-opacity: 1; stroke-width: 2px;"/></g><path class="xlines-below"/><path class="ylines-below"/><g class="overlines-below"/><g class="xaxislayer-below"/><g class="yaxislayer-below"/><g class="overaxes-below"/><g class="plot" transform="translate(19,238.15)" clip-path="url(#clipd66a15x2y2plot)"><g class="boxlayer mlayer"><g class="trace boxes" style="opacity: 1;"><path class="box" d="M17.12,150.72H32.71M17.12,167.68H32.71V14.74H17.12ZM24.92,167.68V183.82M24.92,14.74V10.74M21.02,183.82H28.81M21.02,10.74H28.81" style="vector-effect: non-scaling-stroke; stroke-width: 2px; stroke: rgb(99, 110, 250); stroke-opacity: 1; fill: rgb(99, 110, 250); fill-opacity: 0.5;"/><path class="box" d="M138.87,95.98H154.46M138.87,143.01H154.46V41.26H138.87ZM146.66,143.01V185.11M146.66,41.26V13.74M142.77,185.11H150.56M142.77,13.74H150.56" style="vector-effect: non-scaling-stroke; stroke-width: 2px; stroke: rgb(99, 110, 250); stroke-opacity: 1; fill: rgb(99, 110, 250); fill-opacity: 0.5;"/><path class="box" d="M260.62,79.38H276.21M260.62,136.85H276.21V27.67H260.62ZM268.41,136.85V155.18M268.41,27.67V9.74M264.52,155.18H272.31M264.52,9.74H272.31" style="vector-effect: non-scaling-stroke; stroke-width: 2px; stroke: rgb(99, 110, 250); stroke-opacity: 1; fill: rgb(99, 110, 250); fill-opacity: 0.5;"/><path class="box" d="M382.37,126.25H397.96M382.37,151.85H397.96V112.75H382.37ZM390.16,151.85V167.5M390.16,112.75V102.4M386.27,167.5H394.06M386.27,102.4H394.06" style="vector-effect: non-scaling-stroke; stroke-width: 2px; stroke: rgb(99, 110, 250); stroke-opacity: 1; fill: rgb(99, 110, 250); fill-opacity: 0.5;"/><g class="points"/><g class="points"/><g class="points"/><g class="points"/></g><g class="trace boxes" style="opacity: 1;"><path class="box" d="M36.6,122.48H52.19M36.6,158.8H52.19V49.04H36.6ZM44.4,158.8V177.37M44.4,49.04V12.79M40.5,177.37H48.29M40.5,12.79H48.29" style="vector-effect: non-scaling-stroke; stroke-width: 2px; stroke: rgb(239, 85, 59); stroke-opacity: 1; fill: rgb(239, 85, 59); fill-opacity: 0.5;"/><path class="box" d="M158.35,152.05H173.94M158.35,171.95H173.94V79.23H158.35ZM166.15,171.95V184.73M166.15,79.23V14.57M162.25,184.73H170.04M162.25,14.57H170.04" style="vector-effect: non-scaling-stroke; stroke-width: 2px; stroke: rgb(239, 85, 59); stroke-opacity: 1; fill: rgb(239, 85, 59); fill-opacity: 0.5;"/><path class="box" d="M280.1,47.87H295.69M280.1,115.46H295.69V31.07H280.1ZM287.9,115.46V150.61M287.9,31.07V10.34M284,150.61H291.79M284,10.34H291.79" style="vector-effect: non-scaling-stroke; stroke-width: 2px; stroke: rgb(239, 85, 59); stroke-opacity: 1; fill: rgb(239, 85, 59); fill-opacity: 0.5;"/><path class="box" d="M401.85,113.61H417.44M401.85,132.51H417.44V106.09H401.85ZM409.64,132.51V167.52M409.64,106.09V97.22M405.75,167.52H413.54M405.75,97.22H413.54" style="vector-effect: non-scaling-stroke; stroke-width: 2px; stroke: rgb(239, 85, 59); stroke-opacity: 1; fill: rgb(239, 85, 59); fill-opacity: 0.5;"/><g class="points"/><g class="points"/><g class="points"/><g class="points"/></g><g class="trace boxes" style="opacity: 1;"><path class="box" d="M56.08,123.4H71.67M56.08,170.91H71.67V60.27H56.08ZM63.88,170.91V184.91M63.88,60.27V11.56M59.98,184.91H67.77M59.98,11.56H67.77" style="vector-effect: non-scaling-stroke; stroke-width: 2px; stroke: rgb(0, 204, 150); stroke-opacity: 1; fill: rgb(0, 204, 150); fill-opacity: 0.5;"/><path class="box" d="M177.83,136.41H193.42M177.83,168.87H193.42V117.87H177.83ZM185.63,168.87V183.84M185.63,117.87V46.19M181.73,183.84H189.52M181.73,46.19H189.52" style="vector-effect: non-scaling-stroke; stroke-width: 2px; stroke: rgb(0, 204, 150); stroke-opacity: 1; fill: rgb(0, 204, 150); fill-opacity: 0.5;"/><path class="box" d="M299.58,96.11H315.17M299.58,126.29H315.17V42.49H299.58ZM307.38,126.29V154.38M307.38,42.49V10.4M303.48,154.38H311.27M303.48,10.4H311.27" style="vector-effect: non-scaling-stroke; stroke-width: 2px; stroke: rgb(0, 204, 150); stroke-opacity: 1; fill: rgb(0, 204, 150); fill-opacity: 0.5;"/><path class="box" d="M421.33,132.38H436.92M421.33,154.47H436.92V113.28H421.33ZM429.12,154.47V167.58M429.12,113.28V102.33M425.23,167.58H433.02M425.23,102.33H433.02" style="vector-effect: non-scaling-stroke; stroke-width: 2px; stroke: rgb(0, 204, 150); stroke-opacity: 1; fill: rgb(0, 204, 150); fill-opacity: 0.5;"/><g class="points"/><g class="points"><path class="point" transform="translate(185.63,11)" d="M3,0A3,3 0 1,1 0,-3A3,3 0 0,1 3,0Z" style="opacity: 1; stroke-width: 0px; fill: rgb(0, 204, 150); fill-opacity: 1;"/></g><g class="points"/><g class="points"/></g><g class="trace boxes" style="opacity: 1;"><path class="box" d="M75.56,146.83H91.15M75.56,173.97H91.15V36.04H75.56ZM83.35,173.97V184.78M83.35,36.04V11.07M79.46,184.78H87.25M79.46,11.07H87.25" style="vector-effect: non-scaling-stroke; stroke-width: 2px; stroke: rgb(171, 99, 250); stroke-opacity: 1; fill: rgb(171, 99, 250); fill-opacity: 0.5;"/><path class="box" d="M197.31,106.82H212.9M197.31,158.14H212.9V70.01H197.31ZM205.1,158.14V182.91M205.1,70.01V23.54M201.21,182.91H209M201.21,23.54H209" style="vector-effect: non-scaling-stroke; stroke-width: 2px; stroke: rgb(171, 99, 250); stroke-opacity: 1; fill: rgb(171, 99, 250); fill-opacity: 0.5;"/><path class="box" d="M319.06,58.82H334.65M319.06,122.86H334.65V15.62H319.06ZM326.85,122.86V181.02M326.85,15.62V10.03M322.96,181.02H330.75M322.96,10.03H330.75" style="vector-effect: non-scaling-stroke; stroke-width: 2px; stroke: rgb(171, 99, 250); stroke-opacity: 1; fill: rgb(171, 99, 250); fill-opacity: 0.5;"/><path class="box" d="M440.81,145.93H456.4M440.81,158.62H456.4V133.63H440.81ZM448.6,158.62V166.53M448.6,133.63V100.93M444.71,166.53H452.5M444.71,100.93H452.5" style="vector-effect: non-scaling-stroke; stroke-width: 2px; stroke: rgb(171, 99, 250); stroke-opacity: 1; fill: rgb(171, 99, 250); fill-opacity: 0.5;"/><g class="points"/><g class="points"/><g class="points"/><g class="points"/></g><g class="trace boxes" style="opacity: 1;"><path class="box" d="M95.04,77.71H110.63M95.04,143.5H110.63V42.41H95.04ZM102.84,143.5V185.03M102.84,42.41V19.36M98.94,185.03H106.73M98.94,19.36H106.73" style="vector-effect: non-scaling-stroke; stroke-width: 2px; stroke: rgb(255, 161, 90); stroke-opacity: 1; fill: rgb(255, 161, 90); fill-opacity: 0.5;"/><path class="box" d="M216.79,167.16H232.38M216.79,175.66H232.38V58.77H216.79ZM224.58,175.66V182.41M224.58,58.77V12.31M220.69,182.41H228.48M220.69,12.31H228.48" style="vector-effect: non-scaling-stroke; stroke-width: 2px; stroke: rgb(255, 161, 90); stroke-opacity: 1; fill: rgb(255, 161, 90); fill-opacity: 0.5;"/><path class="box" d="M338.54,63.61H354.13M338.54,80.28H354.13V27.08H338.54ZM346.34,80.28V111.25M346.34,27.08V10.6M342.44,111.25H350.23M342.44,10.6H350.23" style="vector-effect: non-scaling-stroke; stroke-width: 2px; stroke: rgb(255, 161, 90); stroke-opacity: 1; fill: rgb(255, 161, 90); fill-opacity: 0.5;"/><path class="box" d="M460.29,121.13H475.88M460.29,146.95H475.88V103.78H460.29ZM468.09,146.95V161.03M468.09,103.78V97.89M464.19,161.03H471.98M464.19,97.89H471.98" style="vector-effect: non-scaling-stroke; stroke-width: 2px; stroke: rgb(255, 161, 90); stroke-opacity: 1; fill: rgb(255, 161, 90); fill-opacity: 0.5;"/><g class="points"/><g class="points"/><g class="points"/><g class="points"/></g></g></g><g class="overplot"/><path class="xlines-above crisp" d="M0,0" style="fill: none;"/><path class="ylines-above crisp" d="M0,0" style="fill: none;"/><g class="overlines-above"/><g class="xaxislayer-above"><g class="x2tick"><text text-anchor="middle" x="0" y="447" transform="translate(82.88,0)" style="font-family: Helvetica; font-size: 13px; fill: rgb(42, 63, 95); fill-opacity: 1; white-space: pre; opacity: 1;">w_pers_best</text></g><g class="x2tick"><text text-anchor="middle" x="0" y="447" transform="translate(204.63,0)" style="font-family: Helvetica; font-size: 13px; fill: rgb(42, 63, 95); fill-opacity: 1; white-space: pre; opacity: 1;">w_pers_prev</text></g><g class="x2tick"><text text-anchor="middle" x="0" y="447" transform="translate(326.38,0)" style="font-family: Helvetica; font-size: 13px; fill: rgb(42, 63, 95); fill-opacity: 1; white-space: pre; opacity: 1;">w_parent_best</text></g><g class="x2tick"><text text-anchor="middle" x="0" y="447" transform="translate(448.12,0)" style="font-family: Helvetica; font-size: 13px; fill: rgb(42, 63, 95); fill-opacity: 1; white-space: pre; opacity: 1;">detection_threshold</text></g></g><g class="yaxislayer-above"><g class="y2tick"><text text-anchor="end" x="18" y="4.55" transform="translate(0,423.49)" style="font-family: Helvetica; font-size: 13px; fill: rgb(42, 63, 95); fill-opacity: 1; white-space: pre; opacity: 1;">0</text></g><g class="y2tick"><text text-anchor="end" x="18" y="4.55" style="font-family: Helvetica; font-size: 13px; fill: rgb(42, 63, 95); fill-opacity: 1; white-space: pre; opacity: 1;" transform="translate(0,387.99)">0.2</text></g><g class="y2tick"><text text-anchor="end" x="18" y="4.55" style="font-family: Helvetica; font-size: 13px; fill: rgb(42, 63, 95); fill-opacity: 1; white-space: pre; opacity: 1;" transform="translate(0,352.5)">0.4</text></g><g class="y2tick"><text text-anchor="end" x="18" y="4.55" style="font-family: Helvetica; font-size: 13px; fill: rgb(42, 63, 95); fill-opacity: 1; white-space: pre; opacity: 1;" transform="translate(0,317.01)">0.6</text></g><g class="y2tick"><text text-anchor="end" x="18" y="4.55" style="font-family: Helvetica; font-size: 13px; fill: rgb(42, 63, 95); fill-opacity: 1; white-space: pre; opacity: 1;" transform="translate(0,281.51)">0.8</text></g><g class="y2tick"><text text-anchor="end" x="18" y="4.55" style="font-family: Helvetica; font-size: 13px; fill: rgb(42, 63, 95); fill-opacity: 1; white-space: pre; opacity: 1;" transform="translate(0,246.02)">1</text></g></g><g class="overaxes-above"/></g></g><g class="polarlayer"/><g class="smithlayer"/><g class="ternarylayer"/><g class="geolayer"/><g class="funnelarealayer"/><g class="pielayer"/><g class="iciclelayer"/><g class="treemaplayer"/><g class="sunburstlayer"/><g class="glimages"/><defs id="topdefs-d66a15"><g class="clips"/><clipPath id="legendd66a15"><rect width="128" height="131" x="0" y="0"/></clipPath></defs><g class="layer-above"><g class="imagelayer"/><g class="shapelayer"/></g><g class="infolayer"><g class="legend" pointer-events="all" transform="translate(521.86,0)"><rect class="bg" shape-rendering="crispEdges" style="stroke: rgb(68, 68, 68); stroke-opacity: 1; fill: rgb(255, 255, 255); fill-opacity: 1; stroke-width: 0px;" width="128" height="131" x="0" y="0"/><g class="scrollbox" transform="" clip-path="url(#legendd66a15)"><text class="legendtitletext" text-anchor="start" x="2" y="20.8" style="font-family: Helvetica; font-size: 16px; fill: rgb(42, 63, 95); fill-opacity: 1; white-space: pre;">Problem instance</text><g class="groups" transform=""><g class="traces" transform="translate(0,35.75)" style="opacity: 1;"><text class="legendtext" text-anchor="start" x="40" y="5.07" style="font-family: Helvetica; font-size: 13px; fill: rgb(42, 63, 95); fill-opacity: 1; white-space: pre;">eil51</text><g class="layers" style="opacity: 1;"><g class="legendfill"/><g class="legendlines"/><g class="legendsymbols"><g class="legendpoints"><path class="legendbox" d="M6,6H-6V-6H6Z" transform="translate(20,0)" style="stroke-width: 2px; fill: rgb(99, 110, 250); fill-opacity: 0.5; stroke: rgb(99, 110, 250); stroke-opacity: 1;"/></g></g></g><rect class="legendtoggle" x="0" y="-9.950000000000001" width="86.265625" height="19.900000000000002" style="fill: rgb(0, 0, 0); fill-opacity: 0;"/></g><g class="traces" transform="translate(0,55.650000000000006)" style="opacity: 1;"><text class="legendtext" text-anchor="start" x="40" y="5.07" style="font-family: Helvetica; font-size: 13px; fill: rgb(42, 63, 95); fill-opacity: 1; white-space: pre;">berlin52</text><g class="layers" style="opacity: 1;"><g class="legendfill"/><g class="legendlines"/><g class="legendsymbols"><g class="legendpoints"><path class="legendbox" d="M6,6H-6V-6H6Z" transform="translate(20,0)" style="stroke-width: 2px; fill: rgb(239, 85, 59); fill-opacity: 0.5; stroke: rgb(239, 85, 59); stroke-opacity: 1;"/></g></g></g><rect class="legendtoggle" x="0" y="-9.950000000000001" width="86.265625" height="19.900000000000002" style="fill: rgb(0, 0, 0); fill-opacity: 0;"/></g><g class="traces" transform="translate(0,75.55000000000001)" style="opacity: 1;"><text class="legendtext" text-anchor="start" x="40" y="5.07" style="font-family: Helvetica; font-size: 13px; fill: rgb(42, 63, 95); fill-opacity: 1; white-space: pre;">pr136</text><g class="layers" style="opacity: 1;"><g class="legendfill"/><g class="legendlines"/><g class="legendsymbols"><g class="legendpoints"><path class="legendbox" d="M6,6H-6V-6H6Z" transform="translate(20,0)" style="stroke-width: 2px; fill: rgb(0, 204, 150); fill-opacity: 0.5; stroke: rgb(0, 204, 150); stroke-opacity: 1;"/></g></g></g><rect class="legendtoggle" x="0" y="-9.950000000000001" width="86.265625" height="19.900000000000002" style="fill: rgb(0, 0, 0); fill-opacity: 0;"/></g><g class="traces" transform="translate(0,95.45)" style="opacity: 1;"><text class="legendtext" text-anchor="start" x="40" y="5.07" style="font-family: Helvetica; font-size: 13px; fill: rgb(42, 63, 95); fill-opacity: 1; white-space: pre;">pr226</text><g class="layers" style="opacity: 1;"><g class="legendfill"/><g class="legendlines"/><g class="legendsymbols"><g class="legendpoints"><path class="legendbox" d="M6,6H-6V-6H6Z" transform="translate(20,0)" style="stroke-width: 2px; fill: rgb(171, 99, 250); fill-opacity: 0.5; stroke: rgb(171, 99, 250); stroke-opacity: 1;"/></g></g></g><rect class="legendtoggle" x="0" y="-9.950000000000001" width="86.265625" height="19.900000000000002" style="fill: rgb(0, 0, 0); fill-opacity: 0;"/></g><g class="traces" transform="translate(0,115.35000000000001)" style="opacity: 1;"><text class="legendtext" text-anchor="start" x="40" y="5.07" style="font-family: Helvetica; font-size: 13px; fill: rgb(42, 63, 95); fill-opacity: 1; white-space: pre;">d198</text><g class="layers" style="opacity: 1;"><g class="legendfill"/><g class="legendlines"/><g class="legendsymbols"><g class="legendpoints"><path class="legendbox" d="M6,6H-6V-6H6Z" transform="translate(20,0)" style="stroke-width: 2px; fill: rgb(255, 161, 90); fill-opacity: 0.5; stroke: rgb(255, 161, 90); stroke-opacity: 1;"/></g></g></g><rect class="legendtoggle" x="0" y="-9.950000000000001" width="86.265625" height="19.900000000000002" style="fill: rgb(0, 0, 0); fill-opacity: 0;"/></g></g></g><rect class="scrollbar" rx="20" ry="3" width="0" height="0" style="fill: rgb(128, 139, 164); fill-opacity: 1;" x="0" y="0"/></g><g class="g-gtitle"/><g class="g-xtitle"/><g class="g-x2title"/><g class="g-ytitle"/><g class="g-y2title"/></g></svg>