<svg class="main-svg" xmlns="http://www.w3.org/2000/svg" xmlns:xlink="http://www.w3.org/1999/xlink" width="700" height="650" style="" viewBox="0 0 700 650"><rect x="0" y="0" width="700" height="650" style="fill: rgb(255, 255, 255); fill-opacity: 1;"/><defs id="defs-14830f"><g class="clips"><clipPath id="clip14830fxyplot" class="plotclip"><rect width="406" height="605"/></clipPath><clipPath class="axesclip" id="clip14830fx"><rect x="150" y="0" width="406" height="650"/></clipPath><clipPath class="axesclip" id="clip14830fy"><rect x="0" y="0" width="700" height="605"/></clipPath><clipPath class="axesclip" id="clip14830fxy"><rect x="150" y="0" width="406" height="605"/></clipPath></g><g class="gradients"/><g class="patterns"/></defs><g class="bglayer"><rect class="bg" x="150" y="0" width="406" height="605" style="fill: rgb(229, 236, 246); fill-opacity: 1; stroke-width: 0;"/></g><g class="layer-below"><g class="imagelayer"/><g class="shapelayer"/></g><g class="cartesianlayer"><g class="subplot xy"><g class="layer-subplot"><g class="shapelayer"/><g class="imagelayer"/></g><g class="minor-gridlayer"><g class="x"/><g class="y"/></g><g class="gridlayer"><g class="x"><path class="xgrid crisp" transform="translate(252.61,0)" d="M0,0v605" style="stroke: rgb(255, 255, 255); stroke-opacity: 1; stroke-width: 1px;"/><path class="xgrid crisp" transform="translate(355.22,0)" d="M0,0v605" style="stroke: rgb(255, 255, 255); stroke-opacity: 1; stroke-width: 1px;"/><path class="xgrid crisp" transform="translate(457.83,0)" d="M0,0v605" style="stroke: rgb(255, 255, 255); stroke-opacity: 1; stroke-width: 1px;"/></g><g class="y"/></g><g class="zerolinelayer"><path class="xzl zl crisp" transform="translate(150,0)" d="M0,0v605" style="stroke: rgb(255, 255, 255); stroke-opacity: 1; stroke-width: 2px;"/></g><path class="xlines-below"/><path class="ylines-below"/><g class="overlines-below"/><g class="xaxislayer-below"/><g class="yaxislayer-below"/><g class="overaxes-below"/><g class="plot" transform="translate(150,0)" clip-path="url(#clip14830fxyplot)"><g class="barlayer mlayer"><g class="trace bars" style="opacity: 1;"><g class="points"><g class="point"><path d="M0,8.64V22.47H181.07V8.64Z" style="vector-effect: non-scaling-stroke; opacity: 1; stroke-width: 0.5px; fill: rgb(99, 110, 250); fill-opacity: 1; stroke: rgb(229, 236, 246); stroke-opacity: 1;"/></g><g class="point"><path d="M0,95.07V108.9H265.62V95.07Z" style="vector-effect: non-scaling-stroke; opacity: 1; stroke-width: 0.5px; fill: rgb(99, 110, 250); fill-opacity: 1; stroke: rgb(229, 236, 246); stroke-opacity: 1;"/></g><g class="point"><path d="M0,181.5V195.33H138.16V181.5Z" style="vector-effect: non-scaling-stroke; opacity: 1; stroke-width: 0.5px; fill: rgb(99, 110, 250); fill-opacity: 1; stroke: rgb(229, 236, 246); stroke-opacity: 1;"/></g><g class="point"><path d="M0,267.93V281.76H148.32V267.93Z" style="vector-effect: non-scaling-stroke; opacity: 1; stroke-width: 0.5px; fill: rgb(99, 110, 250); fill-opacity: 1; stroke: rgb(229, 236, 246); stroke-opacity: 1;"/></g><g class="point"><path d="M0,354.36V368.19H136.4V354.36Z" style="vector-effect: non-scaling-stroke; opacity: 1; stroke-width: 0.5px; fill: rgb(99, 110, 250); fill-opacity: 1; stroke: rgb(229, 236, 246); stroke-opacity: 1;"/></g><g class="point"><path d="M0,440.79V454.61H134.3V440.79Z" style="vector-effect: non-scaling-stroke; opacity: 1; stroke-width: 0.5px; fill: rgb(99, 110, 250); fill-opacity: 1; stroke: rgb(229, 236, 246); stroke-opacity: 1;"/></g><g class="point"><path d="M0,527.21V541.04H22.22V527.21Z" style="vector-effect: non-scaling-stroke; opacity: 1; stroke-width: 0.5px; fill: rgb(99, 110, 250); fill-opacity: 1; stroke: rgb(229, 236, 246); stroke-opacity: 1;"/></g></g><g class="errorbar" style="opacity: 1;"><path class="xerror" d="M193.53,11.56v8m0,-4H168.6m0,-4v8" style="vector-effect: non-scaling-stroke; stroke-width: 2px; stroke: rgb(42, 63, 95); stroke-opacity: 1;"/></g><g class="errorbar" style="opacity: 1;"><path class="xerror" d="M283,97.99v8m0,-4H248.25m0,-4v8" style="vector-effect: non-scaling-stroke; stroke-width: 2px; stroke: rgb(42, 63, 95); stroke-opacity: 1;"/></g><g class="errorbar" style="opacity: 1;"><path class="xerror" d="M147.86,184.41v8m0,-4H128.47m0,-4v8" style="vector-effect: non-scaling-stroke; stroke-width: 2px; stroke: rgb(42, 63, 95); stroke-opacity: 1;"/></g><g class="errorbar" style="opacity: 1;"><path class="xerror" d="M156.3,270.84v8m0,-4H140.35m0,-4v8" style="vector-effect: non-scaling-stroke; stroke-width: 2px; stroke: rgb(42, 63, 95); stroke-opacity: 1;"/></g><g class="errorbar" style="opacity: 1;"><path class="xerror" d="M144.92,357.27v8m0,-4H127.87m0,-4v8" style="vector-effect: non-scaling-stroke; stroke-width: 2px; stroke: rgb(42, 63, 95); stroke-opacity: 1;"/></g><g class="errorbar" style="opacity: 1;"><path class="xerror" d="M145.19,443.7v8m0,-4H123.41m0,-4v8" style="vector-effect: non-scaling-stroke; stroke-width: 2px; stroke: rgb(42, 63, 95); stroke-opacity: 1;"/></g><g class="errorbar" style="opacity: 1;"><path class="xerror" d="M26.56,530.13v8m0,-4H17.88m0,-4v8" style="vector-effect: non-scaling-stroke; stroke-width: 2px; stroke: rgb(42, 63, 95); stroke-opacity: 1;"/></g></g><g class="trace bars" style="opacity: 1;"><g class="points"><g class="point"><path d="M0,22.47V36.3H198.63V22.47Z" style="vector-effect: non-scaling-stroke; opacity: 1; stroke-width: 0.5px; fill: rgb(239, 85, 59); fill-opacity: 1; stroke: rgb(229, 236, 246); stroke-opacity: 1;"/></g><g class="point"><path d="M0,108.9V122.73H286.61V108.9Z" style="vector-effect: non-scaling-stroke; opacity: 1; stroke-width: 0.5px; fill: rgb(239, 85, 59); fill-opacity: 1; stroke: rgb(229, 236, 246); stroke-opacity: 1;"/></g><g class="point"><path d="M0,195.33V209.16H117.3V195.33Z" style="vector-effect: non-scaling-stroke; opacity: 1; stroke-width: 0.5px; fill: rgb(239, 85, 59); fill-opacity: 1; stroke: rgb(229, 236, 246); stroke-opacity: 1;"/></g><g class="point"><path d="M0,281.76V295.59H114.85V281.76Z" style="vector-effect: non-scaling-stroke; opacity: 1; stroke-width: 0.5px; fill: rgb(239, 85, 59); fill-opacity: 1; stroke: rgb(229, 236, 246); stroke-opacity: 1;"/></g><g class="point"><path d="M0,368.19V382.01H140.69V368.19Z" style="vector-effect: non-scaling-stroke; opacity: 1; stroke-width: 0.5px; fill: rgb(239, 85, 59); fill-opacity: 1; stroke: rgb(229, 236, 246); stroke-opacity: 1;"/></g><g class="point"><path d="M0,454.61V468.44H149.46V454.61Z" style="vector-effect: non-scaling-stroke; opacity: 1; stroke-width: 0.5px; fill: rgb(239, 85, 59); fill-opacity: 1; stroke: rgb(229, 236, 246); stroke-opacity: 1;"/></g><g class="point"><path d="M0,541.04V554.87H18.55V541.04Z" style="vector-effect: non-scaling-stroke; opacity: 1; stroke-width: 0.5px; fill: rgb(239, 85, 59); fill-opacity: 1; stroke: rgb(229, 236, 246); stroke-opacity: 1;"/></g></g><g class="errorbar" style="opacity: 1;"><path class="xerror" d="M215.61,25.39v8m0,-4H181.65m0,-4v8" style="vector-effect: non-scaling-stroke; stroke-width: 2px; stroke: rgb(42, 63, 95); stroke-opacity: 1;"/></g><g class="errorbar" style="opacity: 1;"><path class="xerror" d="M302.42,111.81v8m0,-4H270.81m0,-4v8" style="vector-effect: non-scaling-stroke; stroke-width: 2px; stroke: rgb(42, 63, 95); stroke-opacity: 1;"/></g><g class="errorbar" style="opacity: 1;"><path class="xerror" d="M125.11,198.24v8m0,-4H109.49m0,-4v8" style="vector-effect: non-scaling-stroke; stroke-width: 2px; stroke: rgb(42, 63, 95); stroke-opacity: 1;"/></g><g class="errorbar" style="opacity: 1;"><path class="xerror" d="M125.69,284.67v8m0,-4H104.01m0,-4v8" style="vector-effect: non-scaling-stroke; stroke-width: 2px; stroke: rgb(42, 63, 95); stroke-opacity: 1;"/></g><g class="errorbar" style="opacity: 1;"><path class="xerror" d="M156.62,371.1v8m0,-4H124.75m0,-4v8" style="vector-effect: non-scaling-stroke; stroke-width: 2px; stroke: rgb(42, 63, 95); stroke-opacity: 1;"/></g><g class="errorbar" style="opacity: 1;"><path class="xerror" d="M163.19,457.53v8m0,-4H135.74m0,-4v8" style="vector-effect: non-scaling-stroke; stroke-width: 2px; stroke: rgb(42, 63, 95); stroke-opacity: 1;"/></g><g class="errorbar" style="opacity: 1;"><path class="xerror" d="M23.04,543.96v8m0,-4H14.07m0,-4v8" style="vector-effect: non-scaling-stroke; stroke-width: 2px; stroke: rgb(42, 63, 95); stroke-opacity: 1;"/></g></g><g class="trace bars" style="opacity: 1;"><g class="points"><g class="point"><path d="M0,36.3V50.13H183.16V36.3Z" style="vector-effect: non-scaling-stroke; opacity: 1; stroke-width: 0.5px; fill: rgb(0, 204, 150); fill-opacity: 1; stroke: rgb(229, 236, 246); stroke-opacity: 1;"/></g><g class="point"><path d="M0,122.73V136.56H308.38V122.73Z" style="vector-effect: non-scaling-stroke; opacity: 1; stroke-width: 0.5px; fill: rgb(0, 204, 150); fill-opacity: 1; stroke: rgb(229, 236, 246); stroke-opacity: 1;"/></g><g class="point"><path d="M0,209.16V222.99H99.47V209.16Z" style="vector-effect: non-scaling-stroke; opacity: 1; stroke-width: 0.5px; fill: rgb(0, 204, 150); fill-opacity: 1; stroke: rgb(229, 236, 246); stroke-opacity: 1;"/></g><g class="point"><path d="M0,295.59V309.41H116.46V295.59Z" style="vector-effect: non-scaling-stroke; opacity: 1; stroke-width: 0.5px; fill: rgb(0, 204, 150); fill-opacity: 1; stroke: rgb(229, 236, 246); stroke-opacity: 1;"/></g><g class="point"><path d="M0,382.01V395.84H129.36V382.01Z" style="vector-effect: non-scaling-stroke; opacity: 1; stroke-width: 0.5px; fill: rgb(0, 204, 150); fill-opacity: 1; stroke: rgb(229, 236, 246); stroke-opacity: 1;"/></g><g class="point"><path d="M0,468.44V482.27H152.45V468.44Z" style="vector-effect: non-scaling-stroke; opacity: 1; stroke-width: 0.5px; fill: rgb(0, 204, 150); fill-opacity: 1; stroke: rgb(229, 236, 246); stroke-opacity: 1;"/></g><g class="point"><path d="M0,554.87V568.7H36.82V554.87Z" style="vector-effect: non-scaling-stroke; opacity: 1; stroke-width: 0.5px; fill: rgb(0, 204, 150); fill-opacity: 1; stroke: rgb(229, 236, 246); stroke-opacity: 1;"/></g></g><g class="errorbar" style="opacity: 1;"><path class="xerror" d="M194.35,39.21v8m0,-4H171.96m0,-4v8" style="vector-effect: non-scaling-stroke; stroke-width: 2px; stroke: rgb(42, 63, 95); stroke-opacity: 1;"/></g><g class="errorbar" style="opacity: 1;"><path class="xerror" d="M318.92,125.63999999999999v8m0,-4H297.83m0,-4v8" style="vector-effect: non-scaling-stroke; stroke-width: 2px; stroke: rgb(42, 63, 95); stroke-opacity: 1;"/></g><g class="errorbar" style="opacity: 1;"><path class="xerror" d="M106.63,212.07v8m0,-4H92.31m0,-4v8" style="vector-effect: non-scaling-stroke; stroke-width: 2px; stroke: rgb(42, 63, 95); stroke-opacity: 1;"/></g><g class="errorbar" style="opacity: 1;"><path class="xerror" d="M125.07,298.5v8m0,-4H107.86m0,-4v8" style="vector-effect: non-scaling-stroke; stroke-width: 2px; stroke: rgb(42, 63, 95); stroke-opacity: 1;"/></g><g class="errorbar" style="opacity: 1;"><path class="xerror" d="M140.03,384.93v8m0,-4H118.7m0,-4v8" style="vector-effect: non-scaling-stroke; stroke-width: 2px; stroke: rgb(42, 63, 95); stroke-opacity: 1;"/></g><g class="errorbar" style="opacity: 1;"><path class="xerror" d="M163.78,471.36v8m0,-4H141.12m0,-4v8" style="vector-effect: non-scaling-stroke; stroke-width: 2px; stroke: rgb(42, 63, 95); stroke-opacity: 1;"/></g><g class="errorbar" style="opacity: 1;"><path class="xerror" d="M43.09,557.79v8m0,-4H30.54m0,-4v8" style="vector-effect: non-scaling-stroke; stroke-width: 2px; stroke: rgb(42, 63, 95); stroke-opacity: 1;"/></g></g><g class="trace bars" style="opacity: 1;"><g class="points"><g class="point"><path d="M0,50.13V63.96H203.57V50.13Z" style="vector-effect: non-scaling-stroke; opacity: 1; stroke-width: 0.5px; fill: rgb(171, 99, 250); fill-opacity: 1; stroke: rgb(229, 236, 246); stroke-opacity: 1;"/></g><g class="point"><path d="M0,136.56V150.39H375.38V136.56Z" style="vector-effect: non-scaling-stroke; opacity: 1; stroke-width: 0.5px; fill: rgb(171, 99, 250); fill-opacity: 1; stroke: rgb(229, 236, 246); stroke-opacity: 1;"/></g><g class="point"><path d="M0,222.99V236.81H92.05V222.99Z" style="vector-effect: non-scaling-stroke; opacity: 1; stroke-width: 0.5px; fill: rgb(171, 99, 250); fill-opacity: 1; stroke: rgb(229, 236, 246); stroke-opacity: 1;"/></g><g class="point"><path d="M0,309.41V323.24H96.58V309.41Z" style="vector-effect: non-scaling-stroke; opacity: 1; stroke-width: 0.5px; fill: rgb(171, 99, 250); fill-opacity: 1; stroke: rgb(229, 236, 246); stroke-opacity: 1;"/></g><g class="point"><path d="M0,395.84V409.67H124.44V395.84Z" style="vector-effect: non-scaling-stroke; opacity: 1; stroke-width: 0.5px; fill: rgb(171, 99, 250); fill-opacity: 1; stroke: rgb(229, 236, 246); stroke-opacity: 1;"/></g><g class="point"><path d="M0,482.27V496.1H111.35V482.27Z" style="vector-effect: non-scaling-stroke; opacity: 1; stroke-width: 0.5px; fill: rgb(171, 99, 250); fill-opacity: 1; stroke: rgb(229, 236, 246); stroke-opacity: 1;"/></g><g class="point"><path d="M0,568.7V582.53H22.72V568.7Z" style="vector-effect: non-scaling-stroke; opacity: 1; stroke-width: 0.5px; fill: rgb(171, 99, 250); fill-opacity: 1; stroke: rgb(229, 236, 246); stroke-opacity: 1;"/></g></g><g class="errorbar" style="opacity: 1;"><path class="xerror" d="M217.71,53.04v8m0,-4H189.42m0,-4v8" style="vector-effect: non-scaling-stroke; stroke-width: 2px; stroke: rgb(42, 63, 95); stroke-opacity: 1;"/></g><g class="errorbar" style="opacity: 1;"><path class="xerror" d="M385.7,139.47v8m0,-4H365.07m0,-4v8" style="vector-effect: non-scaling-stroke; stroke-width: 2px; stroke: rgb(42, 63, 95); stroke-opacity: 1;"/></g><g class="errorbar" style="opacity: 1;"><path class="xerror" d="M96.8,225.9v8m0,-4H87.29m0,-4v8" style="vector-effect: non-scaling-stroke; stroke-width: 2px; stroke: rgb(42, 63, 95); stroke-opacity: 1;"/></g><g class="errorbar" style="opacity: 1;"><path class="xerror" d="M103.77,312.33v8m0,-4H89.39m0,-4v8" style="vector-effect: non-scaling-stroke; stroke-width: 2px; stroke: rgb(42, 63, 95); stroke-opacity: 1;"/></g><g class="errorbar" style="opacity: 1;"><path class="xerror" d="M136.76,398.76v8m0,-4H112.13m0,-4v8" style="vector-effect: non-scaling-stroke; stroke-width: 2px; stroke: rgb(42, 63, 95); stroke-opacity: 1;"/></g><g class="errorbar" style="opacity: 1;"><path class="xerror" d="M121.88,485.19v8m0,-4H100.83m0,-4v8" style="vector-effect: non-scaling-stroke; stroke-width: 2px; stroke: rgb(42, 63, 95); stroke-opacity: 1;"/></g><g class="errorbar" style="opacity: 1;"><path class="xerror" d="M27.03,571.61v8m0,-4H18.42m0,-4v8" style="vector-effect: non-scaling-stroke; stroke-width: 2px; stroke: rgb(42, 63, 95); stroke-opacity: 1;"/></g></g><g class="trace bars" style="opacity: 1;"><g class="points"><g class="point"><path d="M0,63.96V77.79H182.91V63.96Z" style="vector-effect: non-scaling-stroke; opacity: 1; stroke-width: 0.5px; fill: rgb(255, 161, 90); fill-opacity: 1; stroke: rgb(229, 236, 246); stroke-opacity: 1;"/></g><g class="point"><path d="M0,150.39V164.21H316.94V150.39Z" style="vector-effect: non-scaling-stroke; opacity: 1; stroke-width: 0.5px; fill: rgb(255, 161, 90); fill-opacity: 1; stroke: rgb(229, 236, 246); stroke-opacity: 1;"/></g><g class="point"><path d="M0,236.81V250.64H108.24V236.81Z" style="vector-effect: non-scaling-stroke; opacity: 1; stroke-width: 0.5px; fill: rgb(255, 161, 90); fill-opacity: 1; stroke: rgb(229, 236, 246); stroke-opacity: 1;"/></g><g class="point"><path d="M0,323.24V337.07H113.51V323.24Z" style="vector-effect: non-scaling-stroke; opacity: 1; stroke-width: 0.5px; fill: rgb(255, 161, 90); fill-opacity: 1; stroke: rgb(229, 236, 246); stroke-opacity: 1;"/></g><g class="point"><path d="M0,409.67V423.5H147.32V409.67Z" style="vector-effect: non-scaling-stroke; opacity: 1; stroke-width: 0.5px; fill: rgb(255, 161, 90); fill-opacity: 1; stroke: rgb(229, 236, 246); stroke-opacity: 1;"/></g><g class="point"><path d="M0,496.1V509.93H127.92V496.1Z" style="vector-effect: non-scaling-stroke; opacity: 1; stroke-width: 0.5px; fill: rgb(255, 161, 90); fill-opacity: 1; stroke: rgb(229, 236, 246); stroke-opacity: 1;"/></g><g class="point"><path d="M0,582.53V596.36H29.26V582.53Z" style="vector-effect: non-scaling-stroke; opacity: 1; stroke-width: 0.5px; fill: rgb(255, 161, 90); fill-opacity: 1; stroke: rgb(229, 236, 246); stroke-opacity: 1;"/></g></g><g class="errorbar" style="opacity: 1;"><path class="xerror" d="M194.05,66.87v8m0,-4H171.77m0,-4v8" style="vector-effect: non-scaling-stroke; stroke-width: 2px; stroke: rgb(42, 63, 95); stroke-opacity: 1;"/></g><g class="errorbar" style="opacity: 1;"><path class="xerror" d="M327.56,153.3v8m0,-4H306.32m0,-4v8" style="vector-effect: non-scaling-stroke; stroke-width: 2px; stroke: rgb(42, 63, 95); stroke-opacity: 1;"/></g><g class="errorbar" style="opacity: 1;"><path class="xerror" d="M116.17,239.73v8m0,-4H100.3m0,-4v8" style="vector-effect: non-scaling-stroke; stroke-width: 2px; stroke: rgb(42, 63, 95); stroke-opacity: 1;"/></g><g class="errorbar" style="opacity: 1;"><path class="xerror" d="M122.04,326.16v8m0,-4H104.97m0,-4v8" style="vector-effect: non-scaling-stroke; stroke-width: 2px; stroke: rgb(42, 63, 95); stroke-opacity: 1;"/></g><g class="errorbar" style="opacity: 1;"><path class="xerror" d="M154.24,412.59v8m0,-4H140.41m0,-4v8" style="vector-effect: non-scaling-stroke; stroke-width: 2px; stroke: rgb(42, 63, 95); stroke-opacity: 1;"/></g><g class="errorbar" style="opacity: 1;"><path class="xerror" d="M139.57,499.01v8m0,-4H116.26m0,-4v8" style="vector-effect: non-scaling-stroke; stroke-width: 2px; stroke: rgb(42, 63, 95); stroke-opacity: 1;"/></g><g class="errorbar" style="opacity: 1;"><path class="xerror" d="M35.33,585.44v8m0,-4H23.19m0,-4v8" style="vector-effect: non-scaling-stroke; stroke-width: 2px; stroke: rgb(42, 63, 95); stroke-opacity: 1;"/></g></g></g></g><g class="overplot"/><path class="xlines-above crisp" d="M0,0" style="fill: none;"/><path class="ylines-above crisp" d="M0,0" style="fill: none;"/><g class="overlines-above"/><g class="xaxislayer-above"><g class="xtick"><text text-anchor="middle" x="0" y="620" transform="translate(150,0)" style="font-family: Helvetica; font-size: 14px; fill: rgb(42, 63, 95); fill-opacity: 1; white-space: pre; opacity: 1;">0</text></g><g class="xtick"><text text-anchor="middle" x="0" y="620" style="font-family: Helvetica; font-size: 14px; fill: rgb(42, 63, 95); fill-opacity: 1; white-space: pre; opacity: 1;" transform="translate(252.61,0)">0.1</text></g><g class="xtick"><text text-anchor="middle" x="0" y="620" style="font-family: Helvetica; font-size: 14px; fill: rgb(42, 63, 95); fill-opacity: 1; white-space: pre; opacity: 1;" transform="translate(355.22,0)">0.2</text></g><g class="xtick"><text text-anchor="middle" x="0" y="620" style="font-family: Helvetica; font-size: 14px; fill: rgb(42, 63, 95); fill-opacity: 1; white-space: pre; opacity: 1;" transform="translate(457.83,0)">0.3</text></g></g><g class="yaxislayer-above"><g class="ytick"><text text-anchor="end" x="149" y="4.8999999999999995" transform="translate(0,561.79)" style="font-family: Helvetica; font-size: 14px; fill: rgb(42, 63, 95); fill-opacity: 1; white-space: pre; opacity: 1;">reaction_type</text></g><g class="ytick"><text text-anchor="end" x="149" y="4.8999999999999995" transform="translate(0,475.36)" style="font-family: Helvetica; font-size: 14px; fill: rgb(42, 63, 95); fill-opacity: 1; white-space: pre; opacity: 1;">detection_threshold</text></g><g class="ytick"><text text-anchor="end" x="149" y="4.8999999999999995" transform="translate(0,388.93)" style="font-family: Helvetica; font-size: 14px; fill: rgb(42, 63, 95); fill-opacity: 1; white-space: pre; opacity: 1;">w_parent_best</text></g><g class="ytick"><text text-anchor="end" x="149" y="4.8999999999999995" transform="translate(0,302.5)" style="font-family: Helvetica; font-size: 14px; fill: rgb(42, 63, 95); fill-opacity: 1; white-space: pre; opacity: 1;">w_pers_prev</text></g><g class="ytick"><text text-anchor="end" x="149" y="4.8999999999999995" transform="translate(0,216.07)" style="font-family: Helvetica; font-size: 14px; fill: rgb(42, 63, 95); fill-opacity: 1; white-space: pre; opacity: 1;">w_pers_best</text></g><g class="ytick"><text text-anchor="end" x="149" y="4.8999999999999995" transform="translate(0,129.64)" style="font-family: Helvetica; font-size: 14px; fill: rgb(42, 63, 95); fill-opacity: 1; white-space: pre; opacity: 1;">beta</text></g><g class="ytick"><text text-anchor="end" x="149" y="4.8999999999999995" transform="translate(0,43.21)" style="font-family: Helvetica; font-size: 14px; fill: rgb(42, 63, 95); fill-opacity: 1; white-space: pre; opacity: 1;">alpha</text></g></g><g class="overaxes-above"/></g></g><g class="polarlayer"/><g class="smithlayer"/><g class="ternarylayer"/><g class="geolayer"/><g class="funnelarealayer"/><g class="pielayer"/><g class="iciclelayer"/><g class="treemaplayer"/><g class="sunburstlayer"/><g class="glimages"/><defs id="topdefs-14830f"><g class="clips"/><clipPath id="legend14830f"><rect width="136" height="139" x="0" y="0"/></clipPath></defs><g class="layer-above"><g class="imagelayer"/><g class="shapelayer"/></g><g class="infolayer"><g class="legend" pointer-events="all" transform="translate(564,0)"><rect class="bg" shape-rendering="crispEdges" style="stroke: rgb(68, 68, 68); stroke-opacity: 1; fill: rgb(255, 255, 255); fill-opacity: 1; stroke-width: 0px;" width="136" height="139" x="0" y="0"/><g class="scrollbox" transform="" clip-path="url(#legend14830f)"><text class="legendtitletext" text-anchor="start" x="2" y="22.1" style="font-family: Helvetica; font-size: 17px; fill: rgb(42, 63, 95); fill-opacity: 1; white-space: pre;">Problem instance</text><g class="groups"><g class="traces" transform="translate(0,37.7)" style="opacity: 1;"><text class="legendtext" text-anchor="start" x="40" y="5.46" style="font-family: Helvetica; font-size: 14px; fill: rgb(42, 63, 95); fill-opacity: 1; white-space: pre;">eil51</text><g class="layers" style="opacity: 1;"><g class="legendfill"/><g class="legendlines"/><g class="legendsymbols"><g class="legendpoints"><path class="legendundefined" d="M6,6H-6V-6H6Z" transform="translate(20,0)" style="stroke-width: 0.5px; fill: rgb(99, 110, 250); fill-opacity: 1; stroke: rgb(229, 236, 246); stroke-opacity: 1;"/></g></g></g><rect class="legendtoggle" x="0" y="-10.6" width="89.828125" height="21.2" style="fill: rgb(0, 0, 0); fill-opacity: 0;"/></g><g class="traces" transform="translate(0,58.9)" style="opacity: 1;"><text class="legendtext" text-anchor="start" x="40" y="5.46" style="font-family: Helvetica; font-size: 14px; fill: rgb(42, 63, 95); fill-opacity: 1; white-space: pre;">berlin52</text><g class="layers" style="opacity: 1;"><g class="legendfill"/><g class="legendlines"/><g class="legendsymbols"><g class="legendpoints"><path class="legendundefined" d="M6,6H-6V-6H6Z" transform="translate(20,0)" style="stroke-width: 0.5px; fill: rgb(239, 85, 59); fill-opacity: 1; stroke: rgb(229, 236, 246); stroke-opacity: 1;"/></g></g></g><rect class="legendtoggle" x="0" y="-10.6" width="89.828125" height="21.2" style="fill: rgb(0, 0, 0); fill-opacity: 0;"/></g><g class="traces" transform="translate(0,80.1)" style="opacity: 1;"><text class="legendtext" text-anchor="start" x="40" y="5.46" style="font-family: Helvetica; font-size: 14px; fill: rgb(42, 63, 95); fill-opacity: 1; white-space: pre;">pr136</text><g class="layers" style="opacity: 1;"><g class="legendfill"/><g class="legendlines"/><g class="legendsymbols"><g class="legendpoints"><path class="legendundefined" d="M6,6H-6V-6H6Z" transform="translate(20,0)" style="stroke-width: 0.5px; fill: rgb(0, 204, 150); fill-opacity: 1; stroke: rgb(229, 236, 246); stroke-opacity: 1;"/></g></g></g><rect class="legendtoggle" x="0" y="-10.6" width="89.828125" height="21.2" style="fill: rgb(0, 0, 0); fill-opacity: 0;"/></g><g class="traces" transform="translate(0,101.29999999999998)" style="opacity: 1;"><text class="legendtext" text-anchor="start" x="40" y="5.46" style="font-family: Helvetica; font-size: 14px; fill: rgb(42, 63, 95); fill-opacity: 1; white-space: pre;">pr226</text><g class="layers" style="opacity: 1;"><g class="legendfill"/><g class="legendlines"/><g class="legendsymbols"><g class="legendpoints"><path class="legendundefined" d="M6,6H-6V-6H6Z" transform="translate(20,0)" style="stroke-width: 0.5px; fill: rgb(171, 99, 250); fill-opacity: 1; stroke: rgb(229, 236, 246); stroke-opacity: 1;"/></g></g></g><rect class="legendtoggle" x="0" y="-10.6" width="89.828125" height="21.2" style="fill: rgb(0, 0, 0); fill-opacity: 0;"/></g><g class="traces" transform="translate(0,122.5)" style="opacity: 1;"><text class="legendtext" text-anchor="start" x="40" y="5.46" style="font-family: Helvetica; font-size: 14px; fill: rgb(42, 63, 95); fill-opacity: 1; white-space: pre;">d198</text><g class="layers" style="opacity: 1;"><g class="legendfill"/><g class="legendlines"/><g class="legendsymbols"><g class="legendpoints"><path class="legendundefined" d="M6,6H-6V-6H6Z" transform="translate(20,0)" style="stroke-width: 0.5px; fill: rgb(255, 161, 90); fill-opacity: 1; stroke: rgb(229, 236, 246); stroke-opacity: 1;"/></g></g></g><rect class="legendtoggle" x="0" y="-10.6" width="89.828125" height="21.2" style="fill: rgb(0, 0, 0); fill-opacity: 0;"/></g></g></g><rect class="scrollbar" rx="20" ry="3" width="0" height="0" style="fill: rgb(128, 139, 164); fill-opacity: 1;" x="0" y="0"/></g><g class="g-gtitle"/><g class="g-xtitle" transform="translate(0,-3.8999999999999773)"><text class="xtitle" x="353" y="649.9" text-anchor="middle" style="font-family: Helvetica; font-size: 17px; fill: rgb(42, 63, 95); opacity: 1; font-weight: normal; white-space: pre;">Relative Importance (MDI)</text></g><g class="g-ytitle" transform="translate(15.603515625,0)"><text class="ytitle" transform="rotate(-90,-0.10312500000000568,302.5)" x="-0.10312500000000568" y="302.5" text-anchor="middle" style="font-family: Helvetica; font-size: 17px; fill: rgb(42, 63, 95); opacity: 1; font-weight: normal; white-space: pre;">Parameter</text></g></g></svg>