<svg class="main-svg" xmlns="http://www.w3.org/2000/svg" xmlns:xlink="http://www.w3.org/1999/xlink" width="700" height="650" style="" viewBox="0 0 700 650"><rect x="0" y="0" width="700" height="650" style="fill: rgb(255, 255, 255); fill-opacity: 1;"/><defs id="defs-13f472"><g class="clips"><clipPath id="clip13f472xyplot" class="plotclip"><rect width="387" height="605"/></clipPath><clipPath class="axesclip" id="clip13f472x"><rect x="150" y="0" width="387" height="650"/></clipPath><clipPath class="axesclip" id="clip13f472y"><rect x="0" y="0" width="700" height="605"/></clipPath><clipPath class="axesclip" id="clip13f472xy"><rect x="150" y="0" width="387" height="605"/></clipPath></g><g class="gradients"/><g class="patterns"/></defs><g class="bglayer"><rect class="bg" x="150" y="0" width="387" height="605" style="fill: rgb(229, 236, 246); fill-opacity: 1; stroke-width: 0;"/></g><g class="layer-below"><g class="imagelayer"/><g class="shapelayer"/></g><g class="cartesianlayer"><g class="subplot xy"><g class="layer-subplot"><g class="shapelayer"/><g class="imagelayer"/></g><g class="minor-gridlayer"><g class="x"/><g class="y"/></g><g class="gridlayer"><g class="x"><path class="xgrid crisp" transform="translate(262.99,0)" d="M0,0v605" style="stroke: rgb(255, 255, 255); stroke-opacity: 1; stroke-width: 1px;"/><path class="xgrid crisp" transform="translate(375.98,0)" d="M0,0v605" style="stroke: rgb(255, 255, 255); stroke-opacity: 1; stroke-width: 1px;"/><path class="xgrid crisp" transform="translate(488.98,0)" d="M0,0v605" style="stroke: rgb(255, 255, 255); stroke-opacity: 1; stroke-width: 1px;"/></g><g class="y"/></g><g class="zerolinelayer"><path class="xzl zl crisp" transform="translate(150,0)" d="M0,0v605" style="stroke: rgb(255, 255, 255); stroke-opacity: 1; stroke-width: 2px;"/></g><path class="xlines-below"/><path class="ylines-below"/><g class="overlines-below"/><g class="xaxislayer-below"/><g class="yaxislayer-below"/><g class="overaxes-below"/><g class="plot" transform="translate(150,0)" clip-path="url(#clip13f472xyplot)"><g class="barlayer mlayer"><g class="trace bars" style="opacity: 1;"><g class="points"><g class="point"><path d="M0,8.64V31.69H203.33V8.64Z" style="vector-effect: non-scaling-stroke; opacity: 1; stroke-width: 0.5px; fill: rgb(99, 110, 250); fill-opacity: 1; stroke: rgb(229, 236, 246); stroke-opacity: 1;"/></g><g class="point"><path d="M0,95.07V118.12H334.51V95.07Z" style="vector-effect: non-scaling-stroke; opacity: 1; stroke-width: 0.5px; fill: rgb(99, 110, 250); fill-opacity: 1; stroke: rgb(229, 236, 246); stroke-opacity: 1;"/></g><g class="point"><path d="M0,181.5V204.55H126.97V181.5Z" style="vector-effect: non-scaling-stroke; opacity: 1; stroke-width: 0.5px; fill: rgb(99, 110, 250); fill-opacity: 1; stroke: rgb(229, 236, 246); stroke-opacity: 1;"/></g><g class="point"><path d="M0,267.93V290.98H138.67V267.93Z" style="vector-effect: non-scaling-stroke; opacity: 1; stroke-width: 0.5px; fill: rgb(99, 110, 250); fill-opacity: 1; stroke: rgb(229, 236, 246); stroke-opacity: 1;"/></g><g class="point"><path d="M0,354.36V377.4H161.64V354.36Z" style="vector-effect: non-scaling-stroke; opacity: 1; stroke-width: 0.5px; fill: rgb(99, 110, 250); fill-opacity: 1; stroke: rgb(229, 236, 246); stroke-opacity: 1;"/></g><g class="point"><path d="M0,440.79V463.83H131.27V440.79Z" style="vector-effect: non-scaling-stroke; opacity: 1; stroke-width: 0.5px; fill: rgb(99, 110, 250); fill-opacity: 1; stroke: rgb(229, 236, 246); stroke-opacity: 1;"/></g><g class="point"><path d="M0,527.21V550.26H33.54V527.21Z" style="vector-effect: non-scaling-stroke; opacity: 1; stroke-width: 0.5px; fill: rgb(99, 110, 250); fill-opacity: 1; stroke: rgb(229, 236, 246); stroke-opacity: 1;"/></g></g><g class="errorbar" style="opacity: 1;"><path class="xerror" d="M214.48,16.17v8m0,-4H192.18m0,-4v8" style="vector-effect: non-scaling-stroke; stroke-width: 2px; stroke: rgb(42, 63, 95); stroke-opacity: 1;"/></g><g class="errorbar" style="opacity: 1;"><path class="xerror" d="M348.56,102.6v8m0,-4H320.46m0,-4v8" style="vector-effect: non-scaling-stroke; stroke-width: 2px; stroke: rgb(42, 63, 95); stroke-opacity: 1;"/></g><g class="errorbar" style="opacity: 1;"><path class="xerror" d="M133.82,189.02v8m0,-4H120.12m0,-4v8" style="vector-effect: non-scaling-stroke; stroke-width: 2px; stroke: rgb(42, 63, 95); stroke-opacity: 1;"/></g><g class="errorbar" style="opacity: 1;"><path class="xerror" d="M146.97,275.45v8m0,-4H130.36m0,-4v8" style="vector-effect: non-scaling-stroke; stroke-width: 2px; stroke: rgb(42, 63, 95); stroke-opacity: 1;"/></g><g class="errorbar" style="opacity: 1;"><path class="xerror" d="M173.61,361.88v8m0,-4H149.67m0,-4v8" style="vector-effect: non-scaling-stroke; stroke-width: 2px; stroke: rgb(42, 63, 95); stroke-opacity: 1;"/></g><g class="errorbar" style="opacity: 1;"><path class="xerror" d="M140.93,448.31v8m0,-4H121.61m0,-4v8" style="vector-effect: non-scaling-stroke; stroke-width: 2px; stroke: rgb(42, 63, 95); stroke-opacity: 1;"/></g><g class="errorbar" style="opacity: 1;"><path class="xerror" d="M38.73,534.74v8m0,-4H28.34m0,-4v8" style="vector-effect: non-scaling-stroke; stroke-width: 2px; stroke: rgb(42, 63, 95); stroke-opacity: 1;"/></g></g><g class="trace bars" style="opacity: 1;"><g class="points"><g class="point"><path d="M0,31.69V54.74H228.29V31.69Z" style="vector-effect: non-scaling-stroke; opacity: 1; stroke-width: 0.5px; fill: rgb(239, 85, 59); fill-opacity: 1; stroke: rgb(229, 236, 246); stroke-opacity: 1;"/></g><g class="point"><path d="M0,118.12V141.17H336.16V118.12Z" style="vector-effect: non-scaling-stroke; opacity: 1; stroke-width: 0.5px; fill: rgb(239, 85, 59); fill-opacity: 1; stroke: rgb(229, 236, 246); stroke-opacity: 1;"/></g><g class="point"><path d="M0,204.55V227.6H122.93V204.55Z" style="vector-effect: non-scaling-stroke; opacity: 1; stroke-width: 0.5px; fill: rgb(239, 85, 59); fill-opacity: 1; stroke: rgb(229, 236, 246); stroke-opacity: 1;"/></g><g class="point"><path d="M0,290.98V314.02H117.25V290.98Z" style="vector-effect: non-scaling-stroke; opacity: 1; stroke-width: 0.5px; fill: rgb(239, 85, 59); fill-opacity: 1; stroke: rgb(229, 236, 246); stroke-opacity: 1;"/></g><g class="point"><path d="M0,377.4V400.45H137.76V377.4Z" style="vector-effect: non-scaling-stroke; opacity: 1; stroke-width: 0.5px; fill: rgb(239, 85, 59); fill-opacity: 1; stroke: rgb(229, 236, 246); stroke-opacity: 1;"/></g><g class="point"><path d="M0,463.83V486.88H161.63V463.83Z" style="vector-effect: non-scaling-stroke; opacity: 1; stroke-width: 0.5px; fill: rgb(239, 85, 59); fill-opacity: 1; stroke: rgb(229, 236, 246); stroke-opacity: 1;"/></g><g class="point"><path d="M0,550.26V573.31H25.91V550.26Z" style="vector-effect: non-scaling-stroke; opacity: 1; stroke-width: 0.5px; fill: rgb(239, 85, 59); fill-opacity: 1; stroke: rgb(229, 236, 246); stroke-opacity: 1;"/></g></g><g class="errorbar" style="opacity: 1;"><path class="xerror" d="M240.83,39.21v8m0,-4H215.75m0,-4v8" style="vector-effect: non-scaling-stroke; stroke-width: 2px; stroke: rgb(42, 63, 95); stroke-opacity: 1;"/></g><g class="errorbar" style="opacity: 1;"><path class="xerror" d="M349.96,125.63999999999999v8m0,-4H322.35m0,-4v8" style="vector-effect: non-scaling-stroke; stroke-width: 2px; stroke: rgb(42, 63, 95); stroke-opacity: 1;"/></g><g class="errorbar" style="opacity: 1;"><path class="xerror" d="M131.42,212.07v8m0,-4H114.44m0,-4v8" style="vector-effect: non-scaling-stroke; stroke-width: 2px; stroke: rgb(42, 63, 95); stroke-opacity: 1;"/></g><g class="errorbar" style="opacity: 1;"><path class="xerror" d="M124.62,298.5v8m0,-4H109.88m0,-4v8" style="vector-effect: non-scaling-stroke; stroke-width: 2px; stroke: rgb(42, 63, 95); stroke-opacity: 1;"/></g><g class="errorbar" style="opacity: 1;"><path class="xerror" d="M146.91,384.93v8m0,-4H128.61m0,-4v8" style="vector-effect: non-scaling-stroke; stroke-width: 2px; stroke: rgb(42, 63, 95); stroke-opacity: 1;"/></g><g class="errorbar" style="opacity: 1;"><path class="xerror" d="M174.22,471.36v8m0,-4H149.04m0,-4v8" style="vector-effect: non-scaling-stroke; stroke-width: 2px; stroke: rgb(42, 63, 95); stroke-opacity: 1;"/></g><g class="errorbar" style="opacity: 1;"><path class="xerror" d="M29.62,557.79v8m0,-4H22.2m0,-4v8" style="vector-effect: non-scaling-stroke; stroke-width: 2px; stroke: rgb(42, 63, 95); stroke-opacity: 1;"/></g></g><g class="trace bars" style="opacity: 1;"><g class="points"><g class="point"><path d="M0,54.74V77.79H195.62V54.74Z" style="vector-effect: non-scaling-stroke; opacity: 1; stroke-width: 0.5px; fill: rgb(0, 204, 150); fill-opacity: 1; stroke: rgb(229, 236, 246); stroke-opacity: 1;"/></g><g class="point"><path d="M0,141.17V164.21H355.38V141.17Z" style="vector-effect: non-scaling-stroke; opacity: 1; stroke-width: 0.5px; fill: rgb(0, 204, 150); fill-opacity: 1; stroke: rgb(229, 236, 246); stroke-opacity: 1;"/></g><g class="point"><path d="M0,227.6V250.64H116.94V227.6Z" style="vector-effect: non-scaling-stroke; opacity: 1; stroke-width: 0.5px; fill: rgb(0, 204, 150); fill-opacity: 1; stroke: rgb(229, 236, 246); stroke-opacity: 1;"/></g><g class="point"><path d="M0,314.02V337.07H133.72V314.02Z" style="vector-effect: non-scaling-stroke; opacity: 1; stroke-width: 0.5px; fill: rgb(0, 204, 150); fill-opacity: 1; stroke: rgb(229, 236, 246); stroke-opacity: 1;"/></g><g class="point"><path d="M0,400.45V423.5H148.71V400.45Z" style="vector-effect: non-scaling-stroke; opacity: 1; stroke-width: 0.5px; fill: rgb(0, 204, 150); fill-opacity: 1; stroke: rgb(229, 236, 246); stroke-opacity: 1;"/></g><g class="point"><path d="M0,486.88V509.93H153.4V486.88Z" style="vector-effect: non-scaling-stroke; opacity: 1; stroke-width: 0.5px; fill: rgb(0, 204, 150); fill-opacity: 1; stroke: rgb(229, 236, 246); stroke-opacity: 1;"/></g><g class="point"><path d="M0,573.31V596.36H26.16V573.31Z" style="vector-effect: non-scaling-stroke; opacity: 1; stroke-width: 0.5px; fill: rgb(0, 204, 150); fill-opacity: 1; stroke: rgb(229, 236, 246); stroke-opacity: 1;"/></g></g><g class="errorbar" style="opacity: 1;"><path class="xerror" d="M205.11,62.260000000000005v8m0,-4H186.13m0,-4v8" style="vector-effect: non-scaling-stroke; stroke-width: 2px; stroke: rgb(42, 63, 95); stroke-opacity: 1;"/></g><g class="errorbar" style="opacity: 1;"><path class="xerror" d="M367.65,148.69v8m0,-4H343.11m0,-4v8" style="vector-effect: non-scaling-stroke; stroke-width: 2px; stroke: rgb(42, 63, 95); stroke-opacity: 1;"/></g><g class="errorbar" style="opacity: 1;"><path class="xerror" d="M122.91,235.12v8m0,-4H110.96m0,-4v8" style="vector-effect: non-scaling-stroke; stroke-width: 2px; stroke: rgb(42, 63, 95); stroke-opacity: 1;"/></g><g class="errorbar" style="opacity: 1;"><path class="xerror" d="M141.8,321.55v8m0,-4H125.64m0,-4v8" style="vector-effect: non-scaling-stroke; stroke-width: 2px; stroke: rgb(42, 63, 95); stroke-opacity: 1;"/></g><g class="errorbar" style="opacity: 1;"><path class="xerror" d="M155.35,407.98v8m0,-4H142.06m0,-4v8" style="vector-effect: non-scaling-stroke; stroke-width: 2px; stroke: rgb(42, 63, 95); stroke-opacity: 1;"/></g><g class="errorbar" style="opacity: 1;"><path class="xerror" d="M160.49,494.4v8m0,-4H146.31m0,-4v8" style="vector-effect: non-scaling-stroke; stroke-width: 2px; stroke: rgb(42, 63, 95); stroke-opacity: 1;"/></g><g class="errorbar" style="opacity: 1;"><path class="xerror" d="M30.66,580.83v8m0,-4H21.67m0,-4v8" style="vector-effect: non-scaling-stroke; stroke-width: 2px; stroke: rgb(42, 63, 95); stroke-opacity: 1;"/></g></g></g></g><g class="overplot"/><path class="xlines-above crisp" d="M0,0" style="fill: none;"/><path class="ylines-above crisp" d="M0,0" style="fill: none;"/><g class="overlines-above"/><g class="xaxislayer-above"><g class="xtick"><text text-anchor="middle" x="0" y="620" transform="translate(150,0)" style="font-family: Helvetica; font-size: 14px; fill: rgb(42, 63, 95); fill-opacity: 1; white-space: pre; opacity: 1;">0</text></g><g class="xtick"><text text-anchor="middle" x="0" y="620" style="font-family: Helvetica; font-size: 14px; fill: rgb(42, 63, 95); fill-opacity: 1; white-space: pre; opacity: 1;" transform="translate(262.99,0)">0.1</text></g><g class="xtick"><text text-anchor="middle" x="0" y="620" style="font-family: Helvetica; font-size: 14px; fill: rgb(42, 63, 95); fill-opacity: 1; white-space: pre; opacity: 1;" transform="translate(375.98,0)">0.2</text></g><g class="xtick"><text text-anchor="middle" x="0" y="620" style="font-family: Helvetica; font-size: 14px; fill: rgb(42, 63, 95); fill-opacity: 1; white-space: pre; opacity: 1;" transform="translate(488.98,0)">0.3</text></g></g><g class="yaxislayer-above"><g class="ytick"><text text-anchor="end" x="149" y="4.8999999999999995" transform="translate(0,561.79)" style="font-family: Helvetica; font-size: 14px; fill: rgb(42, 63, 95); fill-opacity: 1; white-space: pre; opacity: 1;">reaction_type</text></g><g class="ytick"><text text-anchor="end" x="149" y="4.8999999999999995" transform="translate(0,475.36)" style="font-family: Helvetica; font-size: 14px; fill: rgb(42, 63, 95); fill-opacity: 1; white-space: pre; opacity: 1;">detection_threshold</text></g><g class="ytick"><text text-anchor="end" x="149" y="4.8999999999999995" transform="translate(0,388.93)" style="font-family: Helvetica; font-size: 14px; fill: rgb(42, 63, 95); fill-opacity: 1; white-space: pre; opacity: 1;">w_parent_best</text></g><g class="ytick"><text text-anchor="end" x="149" y="4.8999999999999995" transform="translate(0,302.5)" style="font-family: Helvetica; font-size: 14px; fill: rgb(42, 63, 95); fill-opacity: 1; white-space: pre; opacity: 1;">w_pers_prev</text></g><g class="ytick"><text text-anchor="end" x="149" y="4.8999999999999995" transform="translate(0,216.07)" style="font-family: Helvetica; font-size: 14px; fill: rgb(42, 63, 95); fill-opacity: 1; white-space: pre; opacity: 1;">w_pers_best</text></g><g class="ytick"><text text-anchor="end" x="149" y="4.8999999999999995" transform="translate(0,129.64)" style="font-family: Helvetica; font-size: 14px; fill: rgb(42, 63, 95); fill-opacity: 1; white-space: pre; opacity: 1;">beta</text></g><g class="ytick"><text text-anchor="end" x="149" y="4.8999999999999995" transform="translate(0,43.21)" style="font-family: Helvetica; font-size: 14px; fill: rgb(42, 63, 95); fill-opacity: 1; white-space: pre; opacity: 1;">alpha</text></g></g><g class="overaxes-above"/></g></g><g class="polarlayer"/><g class="smithlayer"/><g class="ternarylayer"/><g class="geolayer"/><g class="funnelarealayer"/><g class="pielayer"/><g class="iciclelayer"/><g class="treemaplayer"/><g class="sunburstlayer"/><g class="glimages"/><defs id="topdefs-13f472"><g class="clips"/><clipPath id="legend13f472"><rect width="155" height="96" x="0" y="0"/></clipPath></defs><g class="layer-above"><g class="imagelayer"/><g class="shapelayer"/></g><g class="infolayer"><g class="legend" pointer-events="all" transform="translate(544.74,0)"><rect class="bg" shape-rendering="crispEdges" style="stroke: rgb(68, 68, 68); stroke-opacity: 1; fill: rgb(255, 255, 255); fill-opacity: 1; stroke-width: 0px;" width="155" height="96" x="0" y="0"/><g class="scrollbox" transform="" clip-path="url(#legend13f472)"><text class="legendtitletext" text-anchor="start" x="2" y="22.1" style="font-family: Helvetica; font-size: 17px; fill: rgb(42, 63, 95); fill-opacity: 1; white-space: pre;">Dynamic intensity C</text><g class="groups"><g class="traces" transform="translate(0,37.7)" style="opacity: 1;"><text class="legendtext" text-anchor="start" x="40" y="5.46" style="font-family: Helvetica; font-size: 14px; fill: rgb(42, 63, 95); fill-opacity: 1; white-space: pre;">0.1</text><g class="layers" style="opacity: 1;"><g class="legendfill"/><g class="legendlines"/><g class="legendsymbols"><g class="legendpoints"><path class="legendundefined" d="M6,6H-6V-6H6Z" transform="translate(20,0)" style="stroke-width: 0.5px; fill: rgb(99, 110, 250); fill-opacity: 1; stroke: rgb(229, 236, 246); stroke-opacity: 1;"/></g></g></g><rect class="legendtoggle" x="0" y="-10.6" width="67.25" height="21.2" style="fill: rgb(0, 0, 0); fill-opacity: 0;"/></g><g class="traces" transform="translate(0,58.9)" style="opacity: 1;"><text class="legendtext" text-anchor="start" x="40" y="5.46" style="font-family: Helvetica; font-size: 14px; fill: rgb(42, 63, 95); fill-opacity: 1; white-space: pre;">0.25</text><g class="layers" style="opacity: 1;"><g class="legendfill"/><g class="legendlines"/><g class="legendsymbols"><g class="legendpoints"><path class="legendundefined" d="M6,6H-6V-6H6Z" transform="translate(20,0)" style="stroke-width: 0.5px; fill: rgb(239, 85, 59); fill-opacity: 1; stroke: rgb(229, 236, 246); stroke-opacity: 1;"/></g></g></g><rect class="legendtoggle" x="0" y="-10.6" width="67.25" height="21.2" style="fill: rgb(0, 0, 0); fill-opacity: 0;"/></g><g class="traces" transform="translate(0,80.1)" style="opacity: 1;"><text class="legendtext" text-anchor="start" x="40" y="5.46" style="font-family: Helvetica; font-size: 14px; fill: rgb(42, 63, 95); fill-opacity: 1; white-space: pre;">0.5</text><g class="layers" style="opacity: 1;"><g class="legendfill"/><g class="legendlines"/><g class="legendsymbols"><g class="legendpoints"><path class="legendundefined" d="M6,6H-6V-6H6Z" transform="translate(20,0)" style="stroke-width: 0.5px; fill: rgb(0, 204, 150); fill-opacity: 1; stroke: rgb(229, 236, 246); stroke-opacity: 1;"/></g></g></g><rect class="legendtoggle" x="0" y="-10.6" width="67.25" height="21.2" style="fill: rgb(0, 0, 0); fill-opacity: 0;"/></g></g></g><rect class="scrollbar" rx="20" ry="3" width="0" height="0" style="fill: rgb(128, 139, 164); fill-opacity: 1;" x="0" y="0"/></g><g class="g-gtitle"/><g class="g-xtitle" transform="translate(0,-3.8999999999999773)"><text class="xtitle" x="343.5" y="649.9" text-anchor="middle" style="font-family: Helvetica; font-size: 17px; fill: rgb(42, 63, 95); opacity: 1; font-weight: normal; white-space: pre;">Relative Importance (MDI)</text></g><g class="g-ytitle" transform="translate(15.603515625,0)"><text class="ytitle" transform="rotate(-90,-0.10312500000000568,302.5)" x="-0.10312500000000568" y="302.5" text-anchor="middle" style="font-family: Helvetica; font-size: 17px; fill: rgb(42, 63, 95); opacity: 1; font-weight: normal; white-space: pre;">Parameter</text></g></g></svg>