<?xml version="1.0" encoding="UTF-8"?>
<!-- Generated by Pixelmator Pro 3.3 -->
<svg width="834" height="546" viewBox="0 0 834 546" xmlns="http://www.w3.org/2000/svg" xmlns:xlink="http://www.w3.org/1999/xlink">
    <g id="graph0">
        <g id="node1">
            <path id="path1" fill="#d02424" stroke="#000000" stroke-width="1.331936" stroke-linecap="round" stroke-linejoin="round" d="M 158.709549 224.723602 C 158.709549 237.964569 142.608688 248.698456 122.747269 248.698456 C 102.885841 248.698456 86.784981 237.964569 86.784981 224.723602 C 86.784981 211.482666 102.885841 200.748749 122.747269 200.748749 C 142.608688 200.748749 158.709549 211.482666 158.709549 224.723602 Z"/>
            <text id="config" xml:space="preserve" x="123" y="228" text-anchor="middle" font-family="Helvetica" font-size="13.319364" fill="#ffffff">config</text>
        </g>
        <g id="node3">
            <path id="path2" fill="#8f773d" stroke="#000000" stroke-width="1.331936" stroke-linecap="round" stroke-linejoin="round" d="M 289.252625 420.797974 C 289.252625 434.03891 272.5495 444.772827 251.945099 444.772827 C 231.340714 444.772827 214.637573 434.03891 214.637573 420.797974 C 214.637573 407.557037 231.340714 396.82312 251.945099 396.82312 C 272.5495 396.82312 289.252625 407.557037 289.252625 420.797974 Z"/>
            <text id="hsppbo" xml:space="preserve" x="252" y="424" text-anchor="middle" font-family="Helvetica" font-size="13.319364" fill="#ffffff">hsppbo</text>
        </g>
        <g id="edge1">
            <path id="path3" fill="none" stroke="#000000" stroke-width="1.331936" stroke-linecap="round" stroke-linejoin="round" d="M 130.738892 326.230469 C 142.473236 361.460205 177.556442 386.021118 206.978928 401.058685"/>
            <path id="path4" fill="#d02424" stroke="#000000" stroke-width="1.331936" stroke-linecap="round" stroke-linejoin="round" d="M 208.590561 396.663269 L 218.593399 406.612854 L 204.568115 405.06781 L 208.590561 396.663269 Z"/>
        </g>
        <g id="node4">
            <path id="path5" fill="#a9b03a" stroke="#000000" stroke-width="1.331936" stroke-linecap="round" stroke-linejoin="round" d="M 239.957672 324.89856 C 239.957672 338.139526 223.856796 348.873413 203.995392 348.873413 C 184.133972 348.873413 168.033112 338.139526 168.033112 324.89856 C 168.033112 311.657593 184.133972 300.923706 203.995392 300.923706 C 223.856796 300.923706 239.957672 311.657593 239.957672 324.89856 Z"/>
            <text id="logger" xml:space="preserve" x="204" y="328" text-anchor="middle" font-family="Helvetica" font-size="13.319364" fill="#000000">logger</text>
        </g>
        <g id="edge2">
            <path id="path6" fill="none" stroke="#000000" stroke-width="1.331936" stroke-linecap="round" stroke-linejoin="round" d="M 139.569626 246.261047 C 150.584747 259.46051 165.169434 276.9888 177.689651 291.999725"/>
            <path id="path7" fill="#d02424" stroke="#000000" stroke-width="1.331936" stroke-linecap="round" stroke-linejoin="round" d="M 180.939575 288.616608 L 185.881042 301.842743 L 173.773743 294.583679 L 180.939575 288.616608 Z"/>
        </g>
        <g id="node5">
            <path id="path8" fill="#739640" stroke="#000000" stroke-width="1.331936" stroke-linecap="round" stroke-linejoin="round" d="M 287.907379 516.697388 C 287.907379 529.938354 271.806519 540.672241 251.945099 540.672241 C 232.083694 540.672241 215.982819 529.938354 215.982819 516.697388 C 215.982819 503.456451 232.083694 492.722534 251.945099 492.722534 C 271.806519 492.722534 287.907379 503.456451 287.907379 516.697388 Z"/>
            <text id="main" xml:space="preserve" x="254" y="520" text-anchor="middle" font-family="Helvetica" font-size="13.319364" fill="#000000">main</text>
        </g>
        <g id="edge3">
            <path id="path9" fill="none" stroke="#000000" stroke-width="1.331936" stroke-linecap="round" stroke-linejoin="round" d="M 121.588478 249.124695 C 121.282135 269.290222 122.574112 299.072327 130.738892 323.56662"/>
            <path id="path10" fill="none" stroke="#000000" stroke-width="1.331936" stroke-linecap="round" stroke-linejoin="round" d="M 130.738892 326.230469 C 143.831818 365.549255 112.171692 382.424896 130.738892 419.466034"/>
        </g>
        <g id="node11">
            <path id="path11" fill="#499aac" stroke="#000000" stroke-width="1.331936" stroke-linecap="round" stroke-linejoin="round" d="M 93.351433 324.89856 C 93.351433 338.139526 73.71434 348.873413 49.490765 348.873413 C 25.267185 348.873413 5.630095 338.139526 5.630095 324.89856 C 5.630095 311.657593 25.267185 300.923706 49.490765 300.923706 C 73.71434 300.923706 93.351433 311.657593 93.351433 324.89856 Z"/>
            <text id="optimizer" xml:space="preserve" x="52" y="328" text-anchor="middle" font-family="Helvetica" font-size="13.319364" fill="#000000">optimizer</text>
        </g>
        <g id="edge4">
            <path id="path12" fill="none" stroke="#000000" stroke-width="1.331936" stroke-linecap="round" stroke-linejoin="round" d="M 107.203568 246.727203 C 97.720177 259.353943 85.373131 275.79007 74.531166 290.228271"/>
            <path id="path13" fill="#d02424" stroke="#000000" stroke-width="1.331936" stroke-linecap="round" stroke-linejoin="round" d="M 78.44706 292.785583 L 66.7127 300.630676 L 70.98822 287.178101 L 78.44706 292.785583 Z"/>
        </g>
        <g id="node2">
            <path id="path14" fill="#c06d40" stroke="#000000" stroke-width="1.331936" stroke-linecap="round" stroke-linejoin="round" d="M 254.608978 224.723602 C 254.608978 237.964569 238.508102 248.698456 218.646683 248.698456 C 198.785278 248.698456 182.684402 237.964569 182.684402 224.723602 C 182.684402 211.482666 198.785278 200.748749 218.646683 200.748749 C 238.508102 200.748749 254.608978 211.482666 254.608978 224.723602 Z"/>
            <text id="dill" xml:space="preserve" x="221" y="228" text-anchor="middle" font-family="Helvetica" font-size="13.319364" fill="#000000">dill</text>
        </g>
        <g id="edge5">
            <path id="path15" fill="none" stroke="#000000" stroke-width="1.331936" stroke-linecap="round" stroke-linejoin="round" d="M 215.170334 249.164642 C 213.532059 260.086517 211.520828 273.41922 209.669434 285.766266"/>
            <path id="path16" fill="#c06d40" stroke="#000000" stroke-width="1.331936" stroke-linecap="round" stroke-linejoin="round" d="M 214.331207 286.152527 L 207.738129 298.632751 L 205.100891 284.767303 L 214.331207 286.152527 Z"/>
        </g>
        <g id="edge6">
            <path id="path17" fill="none" stroke="#000000" stroke-width="1.331936" stroke-linecap="round" stroke-linejoin="round" d="M 251.945099 445.172424 C 251.945099 454.882233 251.945099 466.44342 251.945099 477.35199"/>
            <path id="path18" fill="#8f773d" stroke="#000000" stroke-width="1.331936" stroke-linecap="round" stroke-linejoin="round" d="M 256.606873 477.245453 L 251.945099 490.564819 L 247.283325 477.245453 L 256.606873 477.245453 Z"/>
        </g>
        <g id="edge7">
            <path id="path19" fill="none" stroke="#000000" stroke-width="1.331936" stroke-linecap="round" stroke-linejoin="round" d="M 215.103729 347.861145 C 220.604645 358.529968 227.357544 371.676147 233.591019 383.783447"/>
            <path id="path20" fill="#a9b03a" stroke="#000000" stroke-width="1.331936" stroke-linecap="round" stroke-linejoin="round" d="M 237.680054 381.545807 L 239.624695 395.517822 L 229.382095 385.808014 L 237.680054 381.545807 Z"/>
        </g>
        <g id="edge8">
            <path id="path21" fill="none" stroke="#000000" stroke-width="1.331936" stroke-linecap="round" stroke-linejoin="round" d="M 177.516479 341.374603 C 150.77121 358.78302 115.421616 388.911407 130.738892 419.466034"/>
        </g>
        <g id="node6">
            <path id="path22" fill="#50bc2f" stroke="#000000" stroke-width="1.331936" stroke-linecap="round" stroke-linejoin="round" d="M 663.460144 324.89856 C 663.460144 338.139526 642.612549 348.873413 616.895691 348.873413 C 591.178833 348.873413 570.331177 338.139526 570.331177 324.89856 C 570.331177 311.657593 591.178833 300.923706 616.895691 300.923706 C 642.612549 300.923706 663.460144 311.657593 663.460144 324.89856 Z"/>
            <text id="matplotlib" xml:space="preserve" x="617" y="328" text-anchor="middle" font-family="Helvetica" font-size="13.319364" fill="#000000">matplotlib</text>
        </g>
        <g id="node19">
            <path id="path23" fill="#81376b" stroke="#000000" stroke-width="1.331936" stroke-linecap="round" stroke-linejoin="round" d="M 736.769897 420.797974 C 736.769897 434.03891 720.669128 444.772827 700.807617 444.772827 C 680.946289 444.772827 664.845398 434.03891 664.845398 420.797974 C 664.845398 407.557037 680.946289 396.82312 700.807617 396.82312 C 720.669128 396.82312 736.769897 407.557037 736.769897 420.797974 Z"/>
            <text id="tsp" xml:space="preserve" x="701" y="424" text-anchor="middle" font-family="Helvetica" font-size="13.319364" fill="#ffffff">tsp</text>
        </g>
        <g id="edge9">
            <path id="path24" fill="none" stroke="#000000" stroke-width="1.331936" stroke-linecap="round" stroke-linejoin="round" d="M 635.929077 347.381653 C 646.850891 359.515594 660.756348 374.97937 672.89032 388.458557"/>
            <path id="path25" fill="#50bc2f" stroke="#000000" stroke-width="1.331936" stroke-linecap="round" stroke-linejoin="round" d="M 676.193481 385.155334 L 681.641113 398.168396 L 669.254089 391.388824 L 676.193481 385.155334 Z"/>
        </g>
        <g id="node7">
            <path id="path26" fill="#5ab83d" stroke="#000000" stroke-width="1.331936" stroke-linecap="round" stroke-linejoin="round" d="M 631.120728 224.723602 C 631.120728 240.487701 605.073181 253.267029 572.941772 253.267029 C 540.810425 253.267029 514.762817 240.487701 514.762817 224.723602 C 514.762817 208.959534 540.810425 196.180206 572.941772 196.180206 C 605.073181 196.180206 631.120728 208.959534 631.120728 224.723602 Z"/>
            <text id="text1" xml:space="preserve" x="575" y="221" text-anchor="middle" font-family="Helvetica" font-size="13.319364" fill="#000000">matplotlib.</text>
            <text id="pyplot" xml:space="preserve" x="573" y="235" text-anchor="middle" font-family="Helvetica" font-size="13.319364" fill="#000000">pyplot</text>
        </g>
        <g id="edge10">
            <path id="path27" fill="none" stroke="#000000" stroke-width="1.331936" stroke-linecap="round" stroke-linejoin="round" d="M 585.182251 253.213715 C 589.963928 263.829254 595.518127 276.162994 600.632751 287.511078"/>
            <path id="path28" fill="#5ab83d" stroke="#000000" stroke-width="1.331936" stroke-linecap="round" stroke-linejoin="round" d="M 604.735107 285.260132 L 605.96051 299.312042 L 596.237305 289.082794 L 604.735107 285.260132 Z"/>
        </g>
        <g id="edge11">
            <path id="path29" fill="none" stroke="#000000" stroke-width="1.331936" stroke-linecap="round" stroke-linejoin="round" d="M 549.406433 251.375671 C 533.076904 272.127228 516.907227 301.549713 532.983704 323.56662"/>
        </g>
        <g id="node8">
            <path id="path30" fill="#40c04f" stroke="#000000" stroke-width="1.331936" stroke-linecap="round" stroke-linejoin="round" d="M 335.857086 324.89856 C 335.857086 338.139526 319.756226 348.873413 299.894806 348.873413 C 280.033386 348.873413 263.932526 338.139526 263.932526 324.89856 C 263.932526 311.657593 280.033386 300.923706 299.894806 300.923706 C 319.756226 300.923706 335.857086 311.657593 335.857086 324.89856 Z"/>
            <text id="mpire" xml:space="preserve" x="300" y="328" text-anchor="middle" font-family="Helvetica" font-size="13.319364" fill="#000000">mpire</text>
        </g>
        <g id="edge12">
            <path id="path31" fill="none" stroke="#000000" stroke-width="1.331936" stroke-linecap="round" stroke-linejoin="round" d="M 288.773132 347.861145 C 283.285553 358.529968 276.519318 371.676147 270.285858 383.783447"/>
            <path id="path32" fill="#40c04f" stroke="#000000" stroke-width="1.331936" stroke-linecap="round" stroke-linejoin="round" d="M 274.494781 385.808014 L 264.252197 395.517822 L 266.196808 381.545807 L 274.494781 385.808014 Z"/>
        </g>
        <g id="node9">
            <path id="path33" fill="#40c07c" stroke="#000000" stroke-width="1.331936" stroke-linecap="round" stroke-linejoin="round" d="M 825.916504 324.89856 C 825.916504 338.139526 806.279358 348.873413 782.055786 348.873413 C 757.832214 348.873413 738.195129 338.139526 738.195129 324.89856 C 738.195129 311.657593 757.832214 300.923706 782.055786 300.923706 C 806.279358 300.923706 825.916504 311.657593 825.916504 324.89856 Z"/>
            <text id="networkx" xml:space="preserve" x="782" y="328" text-anchor="middle" font-family="Helvetica" font-size="13.319364" fill="#000000">networkx</text>
        </g>
        <g id="edge13">
            <path id="path34" fill="none" stroke="#000000" stroke-width="1.331936" stroke-linecap="round" stroke-linejoin="round" d="M 764.021362 346.928772 C 753.459106 359.036072 739.91333 374.579773 728.072388 388.165527"/>
            <path id="path35" fill="#40c07c" stroke="#000000" stroke-width="1.331936" stroke-linecap="round" stroke-linejoin="round" d="M 731.815125 390.975922 L 719.547974 397.955261 L 724.782471 384.848999 L 731.815125 390.975922 Z"/>
        </g>
        <g id="node10">
            <path id="path36" fill="#06f9ce" stroke="#000000" stroke-width="1.331936" stroke-linecap="round" stroke-linejoin="round" d="M 609.117188 28.635925 C 609.117188 41.876892 592.920898 52.610809 572.941772 52.610809 C 552.962646 52.610809 536.766357 41.876892 536.766357 28.635925 C 536.766357 15.39502 552.962646 4.661072 572.941772 4.661072 C 592.920898 4.661072 609.117188 15.39502 609.117188 28.635925 Z"/>
            <text id="numpy" xml:space="preserve" x="573" y="32" text-anchor="middle" font-family="Helvetica" font-size="13.319364" fill="#000000">numpy</text>
        </g>
        <g id="edge14">
            <path id="path37" fill="none" stroke="#000000" stroke-width="1.331936" stroke-linecap="round" stroke-linejoin="round" d="M 575.05957 53.143555 C 576.284973 72.110321 576.897644 99.588196 572.941772 123.20343"/>
            <path id="path38" fill="none" stroke="#000000" stroke-width="1.331936" stroke-linecap="round" stroke-linejoin="round" d="M 373.151306 326.230469 C 351.693787 355.359924 318.741699 379.894226 292.609131 396.463501"/>
            <path id="path39" fill="#06f9ce" stroke="#000000" stroke-width="1.331936" stroke-linecap="round" stroke-linejoin="round" d="M 295.179749 400.366089 L 281.38089 403.349609 L 290.304871 392.414429 L 295.179749 400.366089 Z"/>
            <path id="path40" fill="none" stroke="#000000" stroke-width="1.331936" stroke-linecap="round" stroke-linejoin="round" d="M 572.941772 125.86731 C 559.076294 208.367432 451.788849 132.020844 398.458099 196.45993 C 361.723328 240.840057 407.302155 277.188568 373.151306 323.56662"/>
        </g>
        <g id="edge15">
            <path id="path41" fill="none" stroke="#000000" stroke-width="1.331936" stroke-linecap="round" stroke-linejoin="round" d="M 668.841187 226.055542 C 676.832825 249.257904 663.859741 273.632324 648.875488 292.199524"/>
            <path id="path42" fill="#06f9ce" stroke="#000000" stroke-width="1.331936" stroke-linecap="round" stroke-linejoin="round" d="M 652.564941 295.063171 L 640.271118 301.989258 L 645.572266 288.909637 L 652.564941 295.063171 Z"/>
            <path id="path43" fill="none" stroke="#000000" stroke-width="1.331936" stroke-linecap="round" stroke-linejoin="round" d="M 572.941772 125.86731 C 562.872314 185.817749 649.021973 165.91864 668.841187 223.391663"/>
        </g>
        <g id="edge16">
            <path id="path44" fill="none" stroke="#000000" stroke-width="1.331936" stroke-linecap="round" stroke-linejoin="round" d="M 572.941772 125.86731 C 569.93158 143.768524 569.438782 163.7742 569.891663 180.982849"/>
            <path id="path45" fill="#06f9ce" stroke="#000000" stroke-width="1.331936" stroke-linecap="round" stroke-linejoin="round" d="M 574.526794 180.343506 L 570.437744 193.849304 L 565.216553 180.743073 L 574.526794 180.343506 Z"/>
        </g>
        <g id="node12">
            <path id="path46" fill="#3d77b8" stroke="#000000" stroke-width="1.331936" stroke-linecap="round" stroke-linejoin="round" d="M 441.093414 124.53537 C 441.093414 137.776337 424.390228 148.510223 403.785858 148.510223 C 383.181488 148.510223 366.478302 137.776337 366.478302 124.53537 C 366.478302 111.294403 383.181488 100.560516 403.785858 100.560516 C 424.390228 100.560516 441.093414 111.294403 441.093414 124.53537 Z"/>
            <text id="pandas" xml:space="preserve" x="404" y="128" text-anchor="middle" font-family="Helvetica" font-size="13.319364" fill="#ffffff">pandas</text>
        </g>
        <g id="edge17">
            <path id="path47" fill="none" stroke="#000000" stroke-width="1.331936" stroke-linecap="round" stroke-linejoin="round" d="M 545.756958 44.952179 C 518.425659 60.016357 475.936859 83.431793 444.569733 100.720337"/>
            <path id="path48" fill="#06f9ce" stroke="#000000" stroke-width="1.331936" stroke-linecap="round" stroke-linejoin="round" d="M 447.127075 104.63623 L 433.221649 106.980469 L 442.625122 96.471466 L 447.127075 104.63623 Z"/>
        </g>
        <g id="node15">
            <path id="path49" fill="#8731c4" stroke="#000000" stroke-width="1.331936" stroke-linecap="round" stroke-linejoin="round" d="M 718.122803 124.53537 C 718.122803 137.776337 702.022034 148.510223 682.160583 148.510223 C 662.299133 148.510223 646.198303 137.776337 646.198303 124.53537 C 646.198303 111.294403 662.299133 100.560516 682.160583 100.560516 C 702.022034 100.560516 718.122803 111.294403 718.122803 124.53537 Z"/>
            <text id="scipy" xml:space="preserve" x="685" y="128" text-anchor="middle" font-family="Helvetica" font-size="13.319364" fill="#ffffff">scipy</text>
        </g>
        <g id="edge18">
            <path id="path50" fill="none" stroke="#000000" stroke-width="1.331936" stroke-linecap="round" stroke-linejoin="round" d="M 594.519165 48.38855 C 610.076172 61.667938 631.360474 79.848877 649.061951 94.953033"/>
            <path id="path51" fill="#06f9ce" stroke="#000000" stroke-width="1.331936" stroke-linecap="round" stroke-linejoin="round" d="M 651.978882 91.3302 L 659.091431 103.517426 L 645.931885 98.416077 L 651.978882 91.3302 Z"/>
        </g>
        <g id="edge19">
            <path id="path52" fill="none" stroke="#000000" stroke-width="1.331936" stroke-linecap="round" stroke-linejoin="round" d="M 668.841187 226.055542 C 683.705627 269.170349 696.319031 278.174225 700.807617 323.56662"/>
            <path id="path53" fill="none" stroke="#000000" stroke-width="1.331936" stroke-linecap="round" stroke-linejoin="round" d="M 700.807617 326.230469 C 702.579163 344.291565 702.805542 364.43042 702.485901 381.346008"/>
            <path id="path54" fill="#06f9ce" stroke="#000000" stroke-width="1.331936" stroke-linecap="round" stroke-linejoin="round" d="M 707.161011 381.226135 L 702.112976 394.398987 L 697.837463 380.946442 L 707.161011 381.226135 Z"/>
        </g>
        <g id="edge20">
            <path id="path55" fill="none" stroke="#000000" stroke-width="1.331936" stroke-linecap="round" stroke-linejoin="round" d="M 130.738892 422.129913 C 147.214935 455.015442 181.37912 479.629608 209.243225 495.279846"/>
            <path id="path56" fill="#499aac" stroke="#000000" stroke-width="1.331936" stroke-linecap="round" stroke-linejoin="round" d="M 211.360992 491.124207 L 220.924286 501.486694 L 206.978928 499.355591 L 211.360992 491.124207 Z"/>
            <path id="path57" fill="none" stroke="#000000" stroke-width="1.331936" stroke-linecap="round" stroke-linejoin="round" d="M 71.947212 345.796631 C 90.554359 363.258331 116.207451 390.483093 130.738892 419.466034"/>
        </g>
        <g id="edge21">
            <path id="path58" fill="none" stroke="#000000" stroke-width="1.331936" stroke-linecap="round" stroke-linejoin="round" d="M 384.259674 145.193665 C 349.256378 179.824005 275.600281 252.707611 234.097153 293.784515"/>
            <path id="path59" fill="#3d77b8" stroke="#000000" stroke-width="1.331936" stroke-linecap="round" stroke-linejoin="round" d="M 237.48027 296.994507 L 224.733627 303.041473 L 230.913818 290.36145 L 237.48027 296.994507 Z"/>
        </g>
        <g id="node13">
            <path id="path60" fill="#3b4cce" stroke="#000000" stroke-width="1.331936" stroke-linecap="round" stroke-linejoin="round" d="M 490.415009 224.723602 C 490.415009 237.964569 472.501312 248.698456 450.403625 248.698456 C 428.305939 248.698456 410.392242 237.964569 410.392242 224.723602 C 410.392242 211.482666 428.305939 200.748749 450.403625 200.748749 C 472.501312 200.748749 490.415009 211.482666 490.415009 224.723602 Z"/>
            <text id="problem" xml:space="preserve" x="453" y="220" text-anchor="middle" font-family="Helvetica" font-size="13.319364" fill="#ffffff">problem</text>
            <text id="interface" xml:space="preserve" x="451" y="234" text-anchor="middle" font-family="Helvetica" font-size="11" fill="#ffffff">(interface)</text>
        </g>
        <g id="edge22">
            <path id="path61" fill="none" stroke="#000000" stroke-width="1.331936" stroke-linecap="round" stroke-linejoin="round" d="M 433.394806 246.647278 C 417.438202 266.160156 393.117035 296.435059 373.151306 323.56662"/>
        </g>
        <g id="node14">
            <path id="path62" fill="#644cb3" stroke="#000000" stroke-width="1.331936" stroke-linecap="round" stroke-linejoin="round" d="M 495.130035 324.89856 C 495.130035 338.139526 476.298004 348.873413 453.067505 348.873413 C 429.836975 348.873413 411.004974 338.139526 411.004974 324.89856 C 411.004974 311.657593 429.836975 300.923706 453.067505 300.923706 C 476.298004 300.923706 495.130035 311.657593 495.130035 324.89856 Z"/>
            <text id="scetree" xml:space="preserve" x="453" y="328" text-anchor="middle" font-family="Helvetica" font-size="13.319364" fill="#ffffff">sce_tree</text>
        </g>
        <g id="edge23">
            <path id="path63" fill="none" stroke="#000000" stroke-width="1.331936" stroke-linecap="round" stroke-linejoin="round" d="M 451.029633 249.164642 C 451.322662 259.886749 451.682281 272.939728 452.015259 285.086975"/>
            <path id="path64" fill="#3b4cce" stroke="#000000" stroke-width="1.331936" stroke-linecap="round" stroke-linejoin="round" d="M 456.663757 284.833893 L 452.374908 298.273132 L 447.340179 285.086975 L 456.663757 284.833893 Z"/>
        </g>
        <g id="edge24">
            <path id="path65" fill="none" stroke="#000000" stroke-width="1.331936" stroke-linecap="round" stroke-linejoin="round" d="M 469.010773 246.274353 C 486.365906 265.520813 512.565125 295.609253 532.983704 323.56662"/>
            <path id="path66" fill="none" stroke="#000000" stroke-width="1.331936" stroke-linecap="round" stroke-linejoin="round" d="M 532.983704 326.230469 C 562.379517 366.50824 614.751221 391.561981 653.190918 405.414124"/>
            <path id="path67" fill="#3b4cce" stroke="#000000" stroke-width="1.331936" stroke-linecap="round" stroke-linejoin="round" d="M 654.669373 400.992065 L 665.764404 409.702942 L 651.659241 409.822815 L 654.669373 400.992065 Z"/>
        </g>
        <g id="edge25">
            <path id="path68" fill="none" stroke="#000000" stroke-width="1.331936" stroke-linecap="round" stroke-linejoin="round" d="M 421.194275 341.001648 C 387.203217 356.758484 333.179901 381.798889 295.326263 399.353821"/>
            <path id="path69" fill="#644cb3" stroke="#000000" stroke-width="1.331936" stroke-linecap="round" stroke-linejoin="round" d="M 297.563934 403.456177 L 283.525299 404.828064 L 293.648041 394.998352 L 297.563934 403.456177 Z"/>
        </g>
        <g id="edge26">
            <path id="path70" fill="none" stroke="#000000" stroke-width="1.331936" stroke-linecap="round" stroke-linejoin="round" d="M 685.250671 148.949738 C 689.979065 185.777771 698.68988 260.166443 700.807617 323.56662"/>
        </g>
        <g id="node17">
            <path id="path74" fill="#bb31c4" stroke="#000000" stroke-width="1.331936" stroke-linecap="round" stroke-linejoin="round" d="M 85.453049 124.53537 C 85.453049 137.776337 69.35218 148.510223 49.490765 148.510223 C 29.629341 148.510223 13.528478 137.776337 13.528478 124.53537 C 13.528478 111.294403 29.629341 100.560516 49.490765 100.560516 C 69.35218 100.560516 85.453049 111.294403 85.453049 124.53537 Z"/>
            <text id="skopt" xml:space="preserve" x="49" y="128" text-anchor="middle" font-family="Helvetica" font-size="13.319364" fill="#ffffff">skopt</text>
        </g>
        <g id="edge28">
            <path id="path75" fill="none" stroke="#000000" stroke-width="1.331936" stroke-linecap="round" stroke-linejoin="round" d="M 65.021141 146.552277 C 74.637718 159.352173 87.197884 176.067993 98.13308 190.639374"/>
            <path id="path76" fill="#bb31c4" stroke="#000000" stroke-width="1.331936" stroke-linecap="round" stroke-linejoin="round" d="M 101.742622 187.669159 L 106.01815 201.121704 L 94.283783 193.276581 L 101.742622 187.669159 Z"/>
        </g>
        <g id="edge29">
            <path id="path77" fill="none" stroke="#000000" stroke-width="1.331936" stroke-linecap="round" stroke-linejoin="round" d="M 49.490765 148.936462 C 49.490765 182.421326 49.490765 244.88913 49.490765 285.326721"/>
            <path id="path78" fill="#bb31c4" stroke="#000000" stroke-width="1.331936" stroke-linecap="round" stroke-linejoin="round" d="M 54.152542 285.313416 L 49.490765 298.632751 L 44.828983 285.313416 L 54.152542 285.313416 Z"/>
        </g>
        <g id="node18">
            <path id="path79" fill="#bb47c2" stroke="#000000" stroke-width="1.331936" stroke-linecap="round" stroke-linejoin="round" d="M 141.94046 28.635925 C 141.94046 41.876892 117.246513 52.610809 86.784981 52.610809 C 56.323444 52.610809 31.629494 41.876892 31.629494 28.635925 C 31.629494 15.39502 56.323444 4.661072 86.784981 4.661072 C 117.246513 4.661072 141.94046 15.39502 141.94046 28.635925 Z"/>
            <text id="skoptspace" xml:space="preserve" x="87" y="32" text-anchor="middle" font-family="Helvetica" font-size="13.319364" fill="#ffffff">skopt.space</text>
        </g>
        <g id="edge30">
            <path id="path80" fill="none" stroke="#000000" stroke-width="1.331936" stroke-linecap="round" stroke-linejoin="round" d="M 91.047173 52.917114 C 97.134125 85.629486 108.36235 146.08609 115.701324 185.498077"/>
            <path id="path81" fill="#bb47c2" stroke="#000000" stroke-width="1.331936" stroke-linecap="round" stroke-linejoin="round" d="M 120.256538 184.539093 L 118.112122 198.484467 L 111.092819 186.243958 L 120.256538 184.539093 Z"/>
        </g>
        <g id="edge31">
            <path id="path82" fill="none" stroke="#000000" stroke-width="1.331936" stroke-linecap="round" stroke-linejoin="round" d="M 77.754448 52.544189 C 73.62545 62.853394 68.644005 75.320313 64.008865 86.894836"/>
            <path id="path83" fill="#bb47c2" stroke="#000000" stroke-width="1.331936" stroke-linecap="round" stroke-linejoin="round" d="M 68.457535 88.333344 L 59.173943 98.975494 L 59.79995 84.8703 L 68.457535 88.333344 Z"/>
        </g>
        <g id="edge32">
            <path id="path84" fill="none" stroke="#000000" stroke-width="1.331936" stroke-linecap="round" stroke-linejoin="round" d="M 666.696777 429.21582 C 587.792847 445.598633 392.411102 486.182739 300.800507 505.216095"/>
            <path id="path85" fill="#81376b" stroke="#000000" stroke-width="1.331936" stroke-linecap="round" stroke-linejoin="round" d="M 301.95932 509.731384 L 287.960663 507.879974 L 300.054626 500.607605 L 301.95932 509.731384 Z"/>
        </g>
        <g id="node20">
            <path id="path86" fill="#c0406d" stroke="#000000" stroke-width="1.331936" stroke-linecap="round" stroke-linejoin="round" d="M 798.343323 210.89856 C 798.343323 224.139526 780.829102 234.873413 759.224243 234.873413 C 737.619446 234.873413 720.105286 224.139526 720.105286 210.89856 C 720.105286 197.657593 737.619446 186.923706 759.224243 186.923706 C 780.829102 186.923706 798.343323 197.657593 798.343323 210.89856 Z"/>
            <text id="tsplib95" xml:space="preserve" x="759" y="214" text-anchor="middle" font-family="Helvetica" font-size="13.319364" fill="#ffffff">tsplib95</text>
        </g>
        <g id="edge33">
            <path id="path87" fill="none" stroke="#000000" stroke-width="1.331936" stroke-linecap="round" stroke-linejoin="round" d="M 753.999939 235.999969 C 752.050964 243.492798 749.935364 251.529388 747.985535 258.963623 C 736.845398 301.240265 723.959595 349.578918 715.054199 382.920532"/>
            <path id="path88" fill="#c0406d" stroke="#000000" stroke-width="1.331936" stroke-linecap="round" stroke-linejoin="round" d="M 719.596375 384.018921 L 711.565247 395.623901 L 710.595825 381.552734 L 719.596375 384.018921 Z"/>
        </g>
    </g>
</svg>
