<?xml version="1.0" encoding="UTF-8"?>
<!-- Generated by Pixelmator Pro 3.3.2 -->
<svg width="692" height="874" viewBox="0 0 692 874" xmlns="http://www.w3.org/2000/svg" xmlns:xlink="http://www.w3.org/1999/xlink">
    <text id="iterations-since-dynamic-activation" xml:space="preserve" x="355" y="862" text-anchor="middle" font-family="Helvetica" font-size="36" fill="#000000">iterations since dynamic activation</text>
    <path id="Pfad-Kopie" fill="none" stroke="#000000" stroke-width="4" d="M 2 807 L 2 826 L 689 826 L 689 808"/>
    <g id="Gruppe">
        <path id="Rechteck-Kopie" fill="#f1f1f1" fill-rule="evenodd" stroke="none" d="M 346 807 L 692 807 L 692 63 L 346 63 Z"/>
        <path id="Rechteck" fill="#d1dbc9" fill-rule="evenodd" stroke="none" d="M 0 807 L 346 807 L 346 63 L 0 63 Z"/>
        <g id="g1">
            <g id="g2">
                <path id="Rechteck-Kopie-3" fill="#c9f6ab" fill-rule="evenodd" stroke="none" d="M 346 685 C 207.92894 685 96 573.071045 96 435 C 96 296.928955 207.92894 185 346 185 L 346 685 Z"/>
                <text id="true-positives" xml:space="preserve" x="113" y="445" font-family="Helvetica" font-size="36" fill="#3e9b42">true positives</text>
            </g>
            <g id="g3">
                <path id="Rechteck-Kopie-2" fill="#ffb2ac" fill-rule="evenodd" stroke="none" d="M 346 685 L 346 185 C 484.071045 185 596 296.928955 596 435 C 596 573.071045 484.071045 685 346 685 Z"/>
                <text id="false-positives" xml:space="preserve" x="360" y="445" font-family="Helvetica" font-size="36" fill="#d23e44">false positives</text>
            </g>
        </g>
        <g id="g4">
            <g id="g5">
                <path id="Ellipse-Kopie-7" fill="none" stroke="#5f4c4e" stroke-width="6" d="M 409 113.5 C 409 104.387329 401.612701 97 392.5 97 C 383.387299 97 376 104.387329 376 113.5 C 376 122.612671 383.387299 130 392.5 130 C 401.612701 130 409 122.612671 409 113.5 Z"/>
                <path id="Ellipse-Kopie-8" fill="none" stroke="#5f4c4e" stroke-width="6" d="M 459 148.5 C 459 139.387329 451.612701 132 442.5 132 C 433.387299 132 426 139.387329 426 148.5 C 426 157.612671 433.387299 165 442.5 165 C 451.612701 165 459 157.612671 459 148.5 Z"/>
                <path id="Ellipse-Kopie-9" fill="none" stroke="#5f4c4e" stroke-width="6" d="M 499 107.5 C 499 98.387329 491.612701 91 482.5 91 C 473.387299 91 466 98.387329 466 107.5 C 466 116.612671 473.387299 124 482.5 124 C 491.612701 124 499 116.612671 499 107.5 Z"/>
                <path id="Ellipse-Kopie-11" fill="none" stroke="#5f4c4e" stroke-width="6" d="M 476 765.5 C 476 756.387329 468.612701 749 459.5 749 C 450.387299 749 443 756.387329 443 765.5 C 443 774.612671 450.387299 782 459.5 782 C 468.612701 782 476 774.612671 476 765.5 Z"/>
                <path id="Ellipse-Kopie-16" fill="none" stroke="#5f4c4e" stroke-width="6" d="M 636 131.5 C 636 122.387329 628.612671 115 619.5 115 C 610.387329 115 603 122.387329 603 131.5 C 603 140.612671 610.387329 148 619.5 148 C 628.612671 148 636 140.612671 636 131.5 Z"/>
                <path id="Ellipse-Kopie-17" fill="none" stroke="#5f4c4e" stroke-width="6" d="M 549 165.5 C 549 156.387329 541.612671 149 532.5 149 C 523.387329 149 516 156.387329 516 165.5 C 516 174.612671 523.387329 182 532.5 182 C 541.612671 182 549 174.612671 549 165.5 Z"/>
                <path id="Ellipse-Kopie-18" fill="none" stroke="#5f4c4e" stroke-width="6" d="M 426 270.5 C 426 261.387329 418.612701 254 409.5 254 C 400.387299 254 393 261.387329 393 270.5 C 393 279.612671 400.387299 287 409.5 287 C 418.612701 287 426 279.612671 426 270.5 Z"/>
                <path id="Ellipse-Kopie-19" fill="none" stroke="#5f4c4e" stroke-width="6" d="M 508 324.5 C 508 315.387329 500.612701 308 491.5 308 C 482.387299 308 475 315.387329 475 324.5 C 475 333.612671 482.387299 341 491.5 341 C 500.612701 341 508 333.612671 508 324.5 Z"/>
                <path id="Ellipse-Kopie-20" fill="none" stroke="#5f4c4e" stroke-width="6" d="M 443 589.5 C 443 580.387329 435.612701 573 426.5 573 C 417.387299 573 410 580.387329 410 589.5 C 410 598.612671 417.387299 606 426.5 606 C 435.612701 606 443 598.612671 443 589.5 Z"/>
                <path id="Ellipse-Kopie-21" fill="none" stroke="#5f4c4e" stroke-width="6" d="M 655 650.5 C 655 641.387329 647.612671 634 638.5 634 C 629.387329 634 622 641.387329 622 650.5 C 622 659.612671 629.387329 667 638.5 667 C 647.612671 667 655 659.612671 655 650.5 Z"/>
                <path id="Ellipse-Kopie-22" fill="none" stroke="#5f4c4e" stroke-width="6" d="M 559 649.5 C 559 640.387329 551.612671 633 542.5 633 C 533.387329 633 526 640.387329 526 649.5 C 526 658.612671 533.387329 666 542.5 666 C 551.612671 666 559 658.612671 559 649.5 Z"/>
                <path id="Ellipse-Kopie-24" fill="none" stroke="#5f4c4e" stroke-width="6" d="M 655 515.5 C 655 506.387299 647.612671 499 638.5 499 C 629.387329 499 622 506.387299 622 515.5 C 622 524.612671 629.387329 532 638.5 532 C 647.612671 532 655 524.612671 655 515.5 Z"/>
                <path id="Ellipse-Kopie-25" fill="none" stroke="#5f4c4e" stroke-width="6" d="M 640 209.5 C 640 200.387329 632.612671 193 623.5 193 C 614.387329 193 607 200.387329 607 209.5 C 607 218.612671 614.387329 226 623.5 226 C 632.612671 226 640 218.612671 640 209.5 Z"/>
                <path id="Ellipse-Kopie-26" fill="none" stroke="#5f4c4e" stroke-width="6" d="M 639 296.5 C 639 287.387329 631.612671 280 622.5 280 C 613.387329 280 606 287.387329 606 296.5 C 606 305.612671 613.387329 313 622.5 313 C 631.612671 313 639 305.612671 639 296.5 Z"/>
                <path id="Ellipse-Kopie-27" fill="none" stroke="#5f4c4e" stroke-width="6" d="M 655 401.5 C 655 392.387299 647.612671 385 638.5 385 C 629.387329 385 622 392.387299 622 401.5 C 622 410.612701 629.387329 418 638.5 418 C 647.612671 418 655 410.612701 655 401.5 Z"/>
                <path id="Ellipse-Kopie-23" fill="none" stroke="#5f4c4e" stroke-width="6" d="M 623 589.5 C 623 580.387329 615.612671 573 606.5 573 C 597.387329 573 590 580.387329 590 589.5 C 590 598.612671 597.387329 606 606.5 606 C 615.612671 606 623 598.612671 623 589.5 Z"/>
                <path id="Ellipse-Kopie-15" fill="none" stroke="#5f4c4e" stroke-width="6" d="M 676 90.5 C 676 81.387329 668.612671 74 659.5 74 C 650.387329 74 643 81.387329 643 90.5 C 643 99.612671 650.387329 107 659.5 107 C 668.612671 107 676 99.612671 676 90.5 Z"/>
                <path id="Ellipse-Kopie-14" fill="none" stroke="#5f4c4e" stroke-width="6" d="M 603 713.5 C 603 704.387329 595.612671 697 586.5 697 C 577.387329 697 570 704.387329 570 713.5 C 570 722.612671 577.387329 730 586.5 730 C 595.612671 730 603 722.612671 603 713.5 Z"/>
                <path id="Ellipse-Kopie-13" fill="none" stroke="#5f4c4e" stroke-width="6" d="M 653 748.5 C 653 739.387329 645.612671 732 636.5 732 C 627.387329 732 620 739.387329 620 748.5 C 620 757.612671 627.387329 765 636.5 765 C 645.612671 765 653 757.612671 653 748.5 Z"/>
                <path id="Ellipse-Kopie-10" fill="none" stroke="#5f4c4e" stroke-width="6" d="M 516 724.5 C 516 715.387329 508.612701 708 499.5 708 C 490.387299 708 483 715.387329 483 724.5 C 483 733.612671 490.387299 741 499.5 741 C 508.612701 741 516 733.612671 516 724.5 Z"/>
            </g>
            <g id="g6">
                <path id="Ellipse" fill="#626d65" fill-rule="evenodd" stroke="none" d="M 155 148.5 C 155 137.178162 145.821838 128 134.5 128 C 123.178162 128 114 137.178162 114 148.5 C 114 159.821838 123.178162 169 134.5 169 C 145.821838 169 155 159.821838 155 148.5 Z"/>
                <path id="Ellipse-Kopie-2" fill="#626d65" fill-rule="evenodd" stroke="none" d="M 68 305.5 C 68 294.178162 58.821838 285 47.5 285 C 36.178162 285 27 294.178162 27 305.5 C 27 316.821838 36.178162 326 47.5 326 C 58.821838 326 68 316.821838 68 305.5 Z"/>
                <path id="Ellipse-Kopie-3" fill="#626d65" fill-rule="evenodd" stroke="none" d="M 196 356.5 C 196 345.178162 186.821838 336 175.5 336 C 164.178162 336 155 345.178162 155 356.5 C 155 367.821838 164.178162 377 175.5 377 C 186.821838 377 196 367.821838 196 356.5 Z"/>
                <path id="Ellipse-Kopie-4" fill="#626d65" fill-rule="evenodd" stroke="none" d="M 265 570.5 C 265 559.178162 255.821838 550 244.5 550 C 233.178162 550 224 559.178162 224 570.5 C 224 581.821838 233.178162 591 244.5 591 C 255.821838 591 265 581.821838 265 570.5 Z"/>
                <path id="Ellipse-Kopie-5" fill="#626d65" fill-rule="evenodd" stroke="none" d="M 68 529.5 C 68 518.178162 58.821838 509 47.5 509 C 36.178162 509 27 518.178162 27 529.5 C 27 540.821838 36.178162 550 47.5 550 C 58.821838 550 68 540.821838 68 529.5 Z"/>
                <path id="Ellipse-Kopie-6" fill="#626d65" fill-rule="evenodd" stroke="none" d="M 134 736.5 C 134 725.178162 124.821838 716 113.5 716 C 102.178162 716 93 725.178162 93 736.5 C 93 747.821838 102.178162 757 113.5 757 C 124.821838 757 134 747.821838 134 736.5 Z"/>
                <path id="Ellipse-Kopie" fill="#626d65" fill-rule="evenodd" stroke="none" d="M 285 297.5 C 285 286.178162 275.821838 277 264.5 277 C 253.178162 277 244 286.178162 244 297.5 C 244 308.821838 253.178162 318 264.5 318 C 275.821838 318 285 308.821838 285 297.5 Z"/>
            </g>
        </g>
    </g>
    <path id="path1" fill="none" stroke="#000000" stroke-width="4" d="M 596 435 C 596 296.928833 484.071198 185 346 185 C 207.928802 185 96 296.928833 96 435 C 96 573.071167 207.928802 685 346 685 C 484.071198 685 596 573.071167 596 435 Z"/>
    <defs>
        <path id="path2" d="M 596 435 C 596 296.928833 484.071167 185 346 185 C 207.928833 185 96 296.928833 96 435 C 96 573.071167 137.23941 695.581848 305 716 C 521.403076 742.33844 596 573.071167 596 435 Z"/>
    </defs>
    <text id="detected-iterations" xml:space="preserve"><textPath xlink:href="#path2" startOffset="1076.044541"><tspan font-family="Helvetica" font-size="36" fill="#000000" xml:space="preserve">detected iterations</tspan></textPath></text>
    <g id="g7">
        <text id="dynamic-events" xml:space="preserve" x="41" y="32" font-family="Helvetica" font-size="36" fill="#000000">dynamic events</text>
        <path id="Pfad" fill="none" stroke="#000000" stroke-width="4" d="M 341 63 L 341 44 L 5 44 L 5 62"/>
    </g>
</svg>
