<?xml version="1.0" encoding="UTF-8"?>
<!-- Generated by Pixelmator Pro 3.3 -->
<svg width="1096" height="719" viewBox="0 0 1096 719" xmlns="http://www.w3.org/2000/svg" xmlns:xlink="http://www.w3.org/1999/xlink">
    <g id="Gruppe">
        <g id="g1">
            <text id="Decistion-Tree-3-base" xml:space="preserve"><tspan x="691.5" y="420" text-anchor="middle" font-family="Helvetica" font-size="18" fill="#000000" xml:space="preserve">Decistion Tree 3</tspan><tspan x="691.5" y="438" text-anchor="middle" font-family="Helvetica" font-size="18" fill="#000000" xml:space="preserve">(base learner)</tspan></text>
            <g id="Gruppe-Kopie-2">
                <path id="Pfeil" fill="#000000" fill-rule="evenodd" stroke="none" d="M 745.187012 312.766632 L 732.978455 309.275116 L 735.311401 306.363525 L 697.729675 276.251129 L 699.203125 274.412201 L 736.78479 304.524597 L 739.117737 301.613007 Z"/>
                <path id="Pfeil-Kopie-3" fill="#000000" fill-rule="evenodd" stroke="none" d="M 635.398987 312.243195 L 641.607544 301.166534 L 643.903809 304.107147 L 681.860046 274.468292 L 683.310303 276.325531 L 645.354065 305.964386 L 647.65033 308.905029 Z"/>
                <path id="Pfeil-Kopie" fill="#000000" fill-rule="evenodd" stroke="none" d="M 775.179199 359.459198 L 764.033081 353.376099 L 766.947571 351.046783 L 755.211304 336.362061 L 757.052002 334.8909 L 768.78833 349.575653 L 771.70282 347.246307 Z"/>
                <path id="Pfeil-Kopie-2" fill="#000000" fill-rule="evenodd" stroke="none" d="M 718.492676 360.653015 L 729.445496 354.228485 L 726.460449 351.990326 L 738.287842 336.21582 L 736.402527 334.802246 L 724.575134 350.576752 L 721.590027 348.338593 Z"/>
                <path id="Ellipse" fill="#000000" fill-rule="evenodd" stroke="none" d="M 706 266.5 C 706 258.491882 699.508118 252 691.5 252 C 683.491882 252 677 258.491882 677 266.5 C 677 274.508118 683.491882 281 691.5 281 C 699.508118 281 706 274.508118 706 266.5 Z"/>
                <path id="Ellipse-Kopie-6" fill="#000000" fill-rule="evenodd" stroke="none" d="M 762 325.5 C 762 317.491882 755.508118 311 747.5 311 C 739.491882 311 733 317.491882 733 325.5 C 733 333.508118 739.491882 340 747.5 340 C 755.508118 340 762 333.508118 762 325.5 Z"/>
                <path id="Ellipse-Kopie-5" fill="#000000" fill-rule="evenodd" stroke="none" d="M 789 373.5 C 789 365.491882 782.508118 359 774.5 359 C 766.491882 359 760 365.491882 760 373.5 C 760 381.508118 766.491882 388 774.5 388 C 782.508118 388 789 381.508118 789 373.5 Z"/>
                <path id="Ellipse-Kopie-4" fill="#000000" fill-rule="evenodd" stroke="none" d="M 733 373.5 C 733 365.491882 726.508118 359 718.5 359 C 710.491882 359 704 365.491882 704 373.5 C 704 381.508118 710.491882 388 718.5 388 C 726.508118 388 733 381.508118 733 373.5 Z"/>
                <path id="Pfeil-Kopie-5" fill="#000000" fill-rule="evenodd" stroke="none" d="M 665.179199 359.459198 L 654.033081 353.376099 L 656.947571 351.046783 L 645.211304 336.362061 L 647.052002 334.8909 L 658.78833 349.575653 L 661.70282 347.246307 Z"/>
                <path id="Pfeil-Kopie-4" fill="#000000" fill-rule="evenodd" stroke="none" d="M 608.492676 360.653015 L 619.445496 354.228485 L 616.460449 351.990326 L 628.287842 336.21582 L 626.402527 334.802246 L 614.575134 350.576752 L 611.590027 348.338593 Z"/>
                <path id="Ellipse-Kopie-9" fill="#000000" fill-rule="evenodd" stroke="none" d="M 652 325.5 C 652 317.491882 645.508118 311 637.5 311 C 629.491882 311 623 317.491882 623 325.5 C 623 333.508118 629.491882 340 637.5 340 C 645.508118 340 652 333.508118 652 325.5 Z"/>
                <path id="Ellipse-Kopie-10" fill="#000000" fill-rule="evenodd" stroke="none" d="M 679 373.5 C 679 365.491882 672.508118 359 664.5 359 C 656.491882 359 650 365.491882 650 373.5 C 650 381.508118 656.491882 388 664.5 388 C 672.508118 388 679 381.508118 679 373.5 Z"/>
                <path id="Ellipse-Kopie-7" fill="#000000" fill-rule="evenodd" stroke="none" d="M 623 373.5 C 623 365.491882 616.508118 359 608.5 359 C 600.491882 359 594 365.491882 594 373.5 C 594 381.508118 600.491882 388 608.5 388 C 616.508118 388 623 381.508118 623 373.5 Z"/>
            </g>
        </g>
        <g id="Gruppe-Kopie-8">
            <text id="Weighted-Data" xml:space="preserve" x="627" y="18" font-family="Helvetica" font-size="18" fill="#000000">Weighted Data</text>
            <g id="g2">
                <path id="path1" fill="#393f4b" fill-rule="evenodd" stroke="none" d="M 666 40.5 C 666 36.357849 662.642151 33 658.5 33 C 654.357849 33 651 36.357849 651 40.5 C 651 44.642151 654.357849 48 658.5 48 C 662.642151 48 666 44.642151 666 40.5 Z"/>
                <path id="path2" fill="#d23e44" fill-rule="evenodd" stroke="none" d="M 693 43.5 C 693 39.357849 689.642151 36 685.5 36 C 681.357849 36 678 39.357849 678 43.5 C 678 47.642151 681.357849 51 685.5 51 C 689.642151 51 693 47.642151 693 43.5 Z"/>
                <path id="path3" fill="#3e9b42" fill-rule="evenodd" stroke="none" d="M 717 48.5 C 717 44.357849 713.642151 41 709.5 41 C 705.357849 41 702 44.357849 702 48.5 C 702 52.642151 705.357849 56 709.5 56 C 713.642151 56 717 52.642151 717 48.5 Z"/>
                <path id="path4" fill="#393f4b" fill-rule="evenodd" stroke="none" d="M 741 42.5 C 741 38.357849 737.642151 35 733.5 35 C 729.357849 35 726 38.357849 726 42.5 C 726 46.642151 729.357849 50 733.5 50 C 737.642151 50 741 46.642151 741 42.5 Z"/>
                <path id="path5" fill="#3e9b42" fill-rule="evenodd" stroke="none" d="M 761 48.5 C 761 44.357849 757.642151 41 753.5 41 C 749.357849 41 746 44.357849 746 48.5 C 746 52.642151 749.357849 56 753.5 56 C 757.642151 56 761 52.642151 761 48.5 Z"/>
                <path id="path6" fill="#d23e44" fill-rule="evenodd" stroke="none" d="M 746 64.5 C 746 60.357849 742.642151 57 738.5 57 C 734.357849 57 731 60.357849 731 64.5 C 731 68.642151 734.357849 72 738.5 72 C 742.642151 72 746 68.642151 746 64.5 Z"/>
                <path id="path7" fill="#d23e44" fill-rule="evenodd" stroke="none" d="M 729 77.5 C 729 73.357849 725.642151 70 721.5 70 C 717.357849 70 714 73.357849 714 77.5 C 714 81.642151 717.357849 85 721.5 85 C 725.642151 85 729 81.642151 729 77.5 Z"/>
                <path id="Ellipse-Kopie-11" fill="#3e9b42" fill-rule="evenodd" stroke="none" d="M 756 89.5 C 756 85.357849 752.642151 82 748.5 82 C 744.357849 82 741 85.357849 741 89.5 C 741 93.642151 744.357849 97 748.5 97 C 752.642151 97 756 93.642151 756 89.5 Z"/>
                <path id="Ellipse-Kopie-12" fill="#3e9b42" fill-rule="evenodd" stroke="none" d="M 740 105.5 C 740 101.357849 736.642151 98 732.5 98 C 728.357849 98 725 101.357849 725 105.5 C 725 109.642151 728.357849 113 732.5 113 C 736.642151 113 740 109.642151 740 105.5 Z"/>
                <path id="Ellipse-Kopie-13" fill="#393f4b" fill-rule="evenodd" stroke="none" d="M 719 106.5 C 719 102.357849 715.642151 99 711.5 99 C 707.357849 99 704 102.357849 704 106.5 C 704 110.642151 707.357849 114 711.5 114 C 715.642151 114 719 110.642151 719 106.5 Z"/>
                <path id="Ellipse-Kopie-14" fill="#393f4b" fill-rule="evenodd" stroke="none" d="M 700 68.5 C 700 64.357849 696.642151 61 692.5 61 C 688.357849 61 685 64.357849 685 68.5 C 685 72.642151 688.357849 76 692.5 76 C 696.642151 76 700 72.642151 700 68.5 Z"/>
                <path id="Ellipse-Kopie-15" fill="#3e9b42" fill-rule="evenodd" stroke="none" d="M 641 47.5 C 641 43.357849 637.642151 40 633.5 40 C 629.357849 40 626 43.357849 626 47.5 C 626 51.642151 629.357849 55 633.5 55 C 637.642151 55 641 51.642151 641 47.5 Z"/>
                <path id="Ellipse-Kopie-16" fill="#3e9b42" fill-rule="evenodd" stroke="none" d="M 672 60.5 C 672 56.357849 668.642151 53 664.5 53 C 660.357849 53 657 56.357849 657 60.5 C 657 64.642151 660.357849 68 664.5 68 C 668.642151 68 672 64.642151 672 60.5 Z"/>
                <path id="Ellipse-Kopie-17" fill="#d23e44" fill-rule="evenodd" stroke="none" d="M 681 88.5 C 681 84.357849 677.642151 81 673.5 81 C 669.357849 81 666 84.357849 666 88.5 C 666 92.642151 669.357849 96 673.5 96 C 677.642151 96 681 92.642151 681 88.5 Z"/>
                <path id="Ellipse-Kopie-18" fill="#3e9b42" fill-rule="evenodd" stroke="none" d="M 703 89.5 C 703 85.357849 699.642151 82 695.5 82 C 691.357849 82 688 85.357849 688 89.5 C 688 93.642151 691.357849 97 695.5 97 C 699.642151 97 703 93.642151 703 89.5 Z"/>
                <path id="Ellipse-Kopie-19" fill="#3e9b42" fill-rule="evenodd" stroke="none" d="M 664 105.5 C 664 101.357849 660.642151 98 656.5 98 C 652.357849 98 649 101.357849 649 105.5 C 649 109.642151 652.357849 113 656.5 113 C 660.642151 113 664 109.642151 664 105.5 Z"/>
                <path id="Ellipse-Kopie-20" fill="#393f4b" fill-rule="evenodd" stroke="none" d="M 638 104.5 C 638 100.357849 634.642151 97 630.5 97 C 626.357849 97 623 100.357849 623 104.5 C 623 108.642151 626.357849 112 630.5 112 C 634.642151 112 638 108.642151 638 104.5 Z"/>
                <path id="Ellipse-Kopie-21" fill="#d23e44" fill-rule="evenodd" stroke="none" d="M 660 85.5 C 660 81.357849 656.642151 78 652.5 78 C 648.357849 78 645 81.357849 645 85.5 C 645 89.642151 648.357849 93 652.5 93 C 656.642151 93 660 89.642151 660 85.5 Z"/>
                <path id="Ellipse-Kopie-22" fill="#393f4b" fill-rule="evenodd" stroke="none" d="M 637 72.5 C 637 68.357849 633.642151 65 629.5 65 C 625.357849 65 622 68.357849 622 72.5 C 622 76.642151 625.357849 80 629.5 80 C 633.642151 80 637 76.642151 637 72.5 Z"/>
                <path id="Rechteck" fill="none" stroke="#000000" stroke-width="2" stroke-dasharray="8 4" stroke-dashoffset="0" d="M 614 121 L 769 121 L 769 26 L 614 26 Z"/>
            </g>
        </g>
    </g>
    <g id="Gruppe-Kopie-7">
        <text id="Fitting" transform="matrix(-0 -1 1 -0 488 858)" xml:space="preserve" x="647" y="190" font-family="Helvetica" font-size="18" fill="#000000">Fitting</text>
        <path id="path8" fill="#000000" fill-rule="evenodd" stroke="none" d="M 691.5 234 L 686 220 L 689.960022 220 L 689.960022 136 L 693.039978 136 L 693.039978 220 L 697 220 Z"/>
    </g>
    <g id="g3">
        <g id="g4">
            <text id="Decistion-Tree-4-base" xml:space="preserve"><tspan x="998.5" y="420" text-anchor="middle" font-family="Helvetica" font-size="18" fill="#000000" xml:space="preserve">Decistion Tree 4</tspan><tspan x="998.5" y="438" text-anchor="middle" font-family="Helvetica" font-size="18" fill="#000000" xml:space="preserve">(base learner)</tspan></text>
            <g id="Gruppe-Kopie-3">
                <path id="path9" fill="#000000" fill-rule="evenodd" stroke="none" d="M 1052.187012 312.766632 L 1039.978394 309.275116 L 1042.311401 306.363525 L 1004.729675 276.251129 L 1006.203125 274.412201 L 1043.78479 304.524597 L 1046.117798 301.613007 Z"/>
                <path id="path10" fill="#000000" fill-rule="evenodd" stroke="none" d="M 942.398987 312.243195 L 948.607544 301.166534 L 950.903809 304.107147 L 988.860046 274.468292 L 990.310303 276.325531 L 952.354065 305.964386 L 954.65033 308.905029 Z"/>
                <path id="path11" fill="#000000" fill-rule="evenodd" stroke="none" d="M 1082.179199 359.459198 L 1071.033081 353.376099 L 1073.947632 351.046783 L 1062.211304 336.362061 L 1064.052002 334.8909 L 1075.78833 349.575653 L 1078.702881 347.246307 Z"/>
                <path id="path12" fill="#000000" fill-rule="evenodd" stroke="none" d="M 1025.492676 360.653015 L 1036.445557 354.228485 L 1033.460449 351.990326 L 1045.287842 336.21582 L 1043.402588 334.802246 L 1031.575073 350.576752 L 1028.590088 348.338593 Z"/>
                <path id="path13" fill="#000000" fill-rule="evenodd" stroke="none" d="M 1013 266.5 C 1013 258.491882 1006.508118 252 998.5 252 C 990.491882 252 984 258.491882 984 266.5 C 984 274.508118 990.491882 281 998.5 281 C 1006.508118 281 1013 274.508118 1013 266.5 Z"/>
                <path id="path14" fill="#000000" fill-rule="evenodd" stroke="none" d="M 1069 325.5 C 1069 317.491882 1062.508179 311 1054.5 311 C 1046.491821 311 1040 317.491882 1040 325.5 C 1040 333.508118 1046.491821 340 1054.5 340 C 1062.508179 340 1069 333.508118 1069 325.5 Z"/>
                <path id="path15" fill="#000000" fill-rule="evenodd" stroke="none" d="M 1096 373.5 C 1096 365.491882 1089.508179 359 1081.5 359 C 1073.491821 359 1067 365.491882 1067 373.5 C 1067 381.508118 1073.491821 388 1081.5 388 C 1089.508179 388 1096 381.508118 1096 373.5 Z"/>
                <path id="path16" fill="#000000" fill-rule="evenodd" stroke="none" d="M 1040 373.5 C 1040 365.491882 1033.508179 359 1025.5 359 C 1017.491882 359 1011 365.491882 1011 373.5 C 1011 381.508118 1017.491882 388 1025.5 388 C 1033.508179 388 1040 381.508118 1040 373.5 Z"/>
                <path id="path17" fill="#000000" fill-rule="evenodd" stroke="none" d="M 972.179199 359.459198 L 961.033081 353.376099 L 963.947571 351.046783 L 952.211304 336.362061 L 954.052002 334.8909 L 965.78833 349.575653 L 968.70282 347.246307 Z"/>
                <path id="path18" fill="#000000" fill-rule="evenodd" stroke="none" d="M 915.492676 360.653015 L 926.445496 354.228485 L 923.460449 351.990326 L 935.287842 336.21582 L 933.402527 334.802246 L 921.575134 350.576752 L 918.590027 348.338593 Z"/>
                <path id="path19" fill="#000000" fill-rule="evenodd" stroke="none" d="M 959 325.5 C 959 317.491882 952.508118 311 944.5 311 C 936.491882 311 930 317.491882 930 325.5 C 930 333.508118 936.491882 340 944.5 340 C 952.508118 340 959 333.508118 959 325.5 Z"/>
                <path id="path20" fill="#000000" fill-rule="evenodd" stroke="none" d="M 986 373.5 C 986 365.491882 979.508118 359 971.5 359 C 963.491882 359 957 365.491882 957 373.5 C 957 381.508118 963.491882 388 971.5 388 C 979.508118 388 986 381.508118 986 373.5 Z"/>
                <path id="path21" fill="#000000" fill-rule="evenodd" stroke="none" d="M 930 373.5 C 930 365.491882 923.508118 359 915.5 359 C 907.491882 359 901 365.491882 901 373.5 C 901 381.508118 907.491882 388 915.5 388 C 923.508118 388 930 381.508118 930 373.5 Z"/>
            </g>
        </g>
        <g id="Gruppe-Kopie-10">
            <text id="text1" xml:space="preserve" x="938" y="18" font-family="Helvetica" font-size="18" fill="#000000">Weighted Data</text>
            <g id="g5">
                <path id="path22" fill="#393f4b" fill-rule="evenodd" stroke="none" d="M 973 40.5 C 973 36.357849 969.642151 33 965.5 33 C 961.357849 33 958 36.357849 958 40.5 C 958 44.642151 961.357849 48 965.5 48 C 969.642151 48 973 44.642151 973 40.5 Z"/>
                <path id="path23" fill="#d23e44" fill-rule="evenodd" stroke="none" d="M 1000 43.5 C 1000 39.357849 996.642151 36 992.5 36 C 988.357849 36 985 39.357849 985 43.5 C 985 47.642151 988.357849 51 992.5 51 C 996.642151 51 1000 47.642151 1000 43.5 Z"/>
                <path id="path24" fill="#3e9b42" fill-rule="evenodd" stroke="none" d="M 1024 48.5 C 1024 44.357849 1020.642151 41 1016.5 41 C 1012.357849 41 1009 44.357849 1009 48.5 C 1009 52.642151 1012.357849 56 1016.5 56 C 1020.642151 56 1024 52.642151 1024 48.5 Z"/>
                <path id="path25" fill="#3e9b42" fill-rule="evenodd" stroke="none" d="M 1048 42.5 C 1048 38.357849 1044.64209 35 1040.5 35 C 1036.35791 35 1033 38.357849 1033 42.5 C 1033 46.642151 1036.35791 50 1040.5 50 C 1044.64209 50 1048 46.642151 1048 42.5 Z"/>
                <path id="path26" fill="#3e9b42" fill-rule="evenodd" stroke="none" d="M 1068 48.5 C 1068 44.357849 1064.64209 41 1060.5 41 C 1056.35791 41 1053 44.357849 1053 48.5 C 1053 52.642151 1056.35791 56 1060.5 56 C 1064.64209 56 1068 52.642151 1068 48.5 Z"/>
                <path id="path27" fill="#3e9b42" fill-rule="evenodd" stroke="none" d="M 1053 64.5 C 1053 60.357849 1049.64209 57 1045.5 57 C 1041.35791 57 1038 60.357849 1038 64.5 C 1038 68.642151 1041.35791 72 1045.5 72 C 1049.64209 72 1053 68.642151 1053 64.5 Z"/>
                <path id="path28" fill="#3e9b42" fill-rule="evenodd" stroke="none" d="M 1036 77.5 C 1036 73.357849 1032.64209 70 1028.5 70 C 1024.35791 70 1021 73.357849 1021 77.5 C 1021 81.642151 1024.35791 85 1028.5 85 C 1032.64209 85 1036 81.642151 1036 77.5 Z"/>
                <path id="path29" fill="#393f4b" fill-rule="evenodd" stroke="none" d="M 1063 89.5 C 1063 85.357849 1059.64209 82 1055.5 82 C 1051.35791 82 1048 85.357849 1048 89.5 C 1048 93.642151 1051.35791 97 1055.5 97 C 1059.64209 97 1063 93.642151 1063 89.5 Z"/>
                <path id="path30" fill="#3e9b42" fill-rule="evenodd" stroke="none" d="M 1047 105.5 C 1047 101.357849 1043.64209 98 1039.5 98 C 1035.35791 98 1032 101.357849 1032 105.5 C 1032 109.642151 1035.35791 113 1039.5 113 C 1043.64209 113 1047 109.642151 1047 105.5 Z"/>
                <path id="path31" fill="#393f4b" fill-rule="evenodd" stroke="none" d="M 1026 106.5 C 1026 102.357849 1022.642151 99 1018.5 99 C 1014.357849 99 1011 102.357849 1011 106.5 C 1011 110.642151 1014.357849 114 1018.5 114 C 1022.642151 114 1026 110.642151 1026 106.5 Z"/>
                <path id="path32" fill="#3e9b42" fill-rule="evenodd" stroke="none" d="M 1007 68.5 C 1007 64.357849 1003.642151 61 999.5 61 C 995.357849 61 992 64.357849 992 68.5 C 992 72.642151 995.357849 76 999.5 76 C 1003.642151 76 1007 72.642151 1007 68.5 Z"/>
                <path id="path33" fill="#3e9b42" fill-rule="evenodd" stroke="none" d="M 948 47.5 C 948 43.357849 944.642151 40 940.5 40 C 936.357849 40 933 43.357849 933 47.5 C 933 51.642151 936.357849 55 940.5 55 C 944.642151 55 948 51.642151 948 47.5 Z"/>
                <path id="path34" fill="#3e9b42" fill-rule="evenodd" stroke="none" d="M 979 60.5 C 979 56.357849 975.642151 53 971.5 53 C 967.357849 53 964 56.357849 964 60.5 C 964 64.642151 967.357849 68 971.5 68 C 975.642151 68 979 64.642151 979 60.5 Z"/>
                <path id="path35" fill="#3e9b42" fill-rule="evenodd" stroke="none" d="M 988 88.5 C 988 84.357849 984.642151 81 980.5 81 C 976.357849 81 973 84.357849 973 88.5 C 973 92.642151 976.357849 96 980.5 96 C 984.642151 96 988 92.642151 988 88.5 Z"/>
                <path id="path36" fill="#3e9b42" fill-rule="evenodd" stroke="none" d="M 1010 89.5 C 1010 85.357849 1006.642151 82 1002.5 82 C 998.357849 82 995 85.357849 995 89.5 C 995 93.642151 998.357849 97 1002.5 97 C 1006.642151 97 1010 93.642151 1010 89.5 Z"/>
                <path id="path37" fill="#3e9b42" fill-rule="evenodd" stroke="none" d="M 971 105.5 C 971 101.357849 967.642151 98 963.5 98 C 959.357849 98 956 101.357849 956 105.5 C 956 109.642151 959.357849 113 963.5 113 C 967.642151 113 971 109.642151 971 105.5 Z"/>
                <path id="path38" fill="#393f4b" fill-rule="evenodd" stroke="none" d="M 945 104.5 C 945 100.357849 941.642151 97 937.5 97 C 933.357849 97 930 100.357849 930 104.5 C 930 108.642151 933.357849 112 937.5 112 C 941.642151 112 945 108.642151 945 104.5 Z"/>
                <path id="path39" fill="#d23e44" fill-rule="evenodd" stroke="none" d="M 967 85.5 C 967 81.357849 963.642151 78 959.5 78 C 955.357849 78 952 81.357849 952 85.5 C 952 89.642151 955.357849 93 959.5 93 C 963.642151 93 967 89.642151 967 85.5 Z"/>
                <path id="path40" fill="#3e9b42" fill-rule="evenodd" stroke="none" d="M 944 72.5 C 944 68.357849 940.642151 65 936.5 65 C 932.357849 65 929 68.357849 929 72.5 C 929 76.642151 932.357849 80 936.5 80 C 940.642151 80 944 76.642151 944 72.5 Z"/>
                <path id="path41" fill="none" stroke="#000000" stroke-width="2" stroke-dasharray="8 4" stroke-dashoffset="0" d="M 921 121 L 1076 121 L 1076 26 L 921 26 Z"/>
            </g>
        </g>
        <g id="Gruppe-Kopie-9">
            <text id="text2" transform="matrix(-0 -1 1 -0 792 1168)" xml:space="preserve" x="954" y="193" font-family="Helvetica" font-size="18" fill="#000000">Fitting</text>
            <path id="path42" fill="#000000" fill-rule="evenodd" stroke="none" d="M 998.5 237 L 993 223 L 996.960022 223 L 996.960022 139 L 1000.039978 139 L 1000.039978 223 L 1004 223 Z"/>
        </g>
    </g>
    <g id="g6">
        <g id="g7">
            <path id="path43" fill="#000000" fill-rule="evenodd" stroke="none" d="M 530.080017 589.502197 L 515.629639 592.080627 L 517.621643 586.279724 L 142.590714 457.496429 L 143.239273 455.607758 L 518.270203 584.391052 L 520.262207 578.590149 Z"/>
            <defs>
                <path id="path44" d="M 557.131592 589.58905 L 542.728394 592.419312 L 544.618896 586.584534 L 167.397491 464.366028 L 168.012985 462.466339 L 545.234375 584.684814 L 547.124817 578.850037 L 557.131592 589.58905 Z"/>
            </defs>
            <text id="Prediction" transform="matrix(0.999848 0.017452 -0.017452 0.999848 8.971266 -5.757612)" xml:space="preserve"><textPath xlink:href="#path44" startOffset="548.087148"><tspan font-family="Helvetica" font-size="18" fill="#000000" xml:space="preserve">Prediction</tspan></textPath></text>
        </g>
        <g id="Gruppe-Kopie-4">
            <path id="path45" fill="#000000" fill-rule="evenodd" stroke="none" d="M 568.86438 592.15033 L 578.527405 581.101013 L 580.600952 586.873291 L 947.306396 455.141479 L 947.981506 457.020844 L 581.276062 588.752625 L 583.34967 594.524841 Z"/>
            <defs>
                <path id="path46" d="M 986.508667 579.614563 L 986.508667 579.614563 L 976.501831 568.875549 L 974.61145 574.710388 L 597.390015 452.491852 L 596.774536 454.391541 L 973.995911 576.610046 L 972.105469 582.444824 L 986.508667 579.614563 Z"/>
            </defs>
            <text id="text3" transform="matrix(-0.791096 0.611693 -0.611693 -0.791096 1674.770375 449.356209)" xml:space="preserve"><textPath xlink:href="#path46" startOffset="199.587073"><tspan font-family="Helvetica" font-size="18" fill="#000000" xml:space="preserve">Prediction</tspan></textPath></text>
        </g>
        <g id="g8">
            <path id="path47" fill="#000000" fill-rule="evenodd" stroke="none" d="M 544.145874 585.218506 L 529.999634 581.301331 L 534.302185 576.930176 L 410.363098 454.935303 L 411.763916 453.512146 L 535.703003 575.50708 L 540.005554 571.135925 Z"/>
            <defs>
                <path id="path48" d="M 708.717957 591.1474 L 694.314758 593.977661 L 696.2052 588.142883 L 318.983826 465.924377 L 319.599304 464.024658 L 696.82074 586.243164 L 698.711121 580.408386 L 708.717957 591.1474 Z"/>
            </defs>
            <text id="text4" transform="matrix(0.894194 0.44768 -0.44768 0.894194 280.934004 -163.305349)" xml:space="preserve"><textPath xlink:href="#path48" startOffset="548.087148"><tspan font-family="Helvetica" font-size="18" fill="#000000" xml:space="preserve">Prediction</tspan></textPath></text>
        </g>
        <g id="g9">
            <path id="path49" fill="#000000" fill-rule="evenodd" stroke="none" d="M 552.362366 585.219788 L 556.27301 571.071716 L 560.646118 575.372253 L 682.583557 451.376648 L 684.007385 452.776825 L 562.069946 576.7724 L 566.443054 581.072937 Z"/>
            <defs>
                <path id="path50" d="M 834.706482 583.267273 L 834.706482 583.267273 L 824.699707 572.528259 L 822.809265 578.363098 L 445.58786 456.144562 L 444.972382 458.044281 L 822.193787 580.262756 L 820.303284 586.097595 L 834.706482 583.267273 Z"/>
            </defs>
            <text id="text5" transform="matrix(-0.447265 0.894401 -0.894401 -0.447265 1341.172007 199.790695)" xml:space="preserve"><textPath xlink:href="#path50" startOffset="199.587073"><tspan font-family="Helvetica" font-size="18" fill="#000000" xml:space="preserve">Prediction</tspan></textPath></text>
        </g>
    </g>
    <g id="g10">
        <text id="Ensemble-Prediction-Surrogate-Model" xml:space="preserve"><tspan x="551.5" y="673" text-anchor="middle" font-family="Helvetica" font-size="18" fill="#000000" baseline-shift="8" xml:space="preserve">Ensemble Prediction</tspan><tspan x="551.5" y="699" text-anchor="middle" font-family="Helvetica" font-size="18" fill="#000000" baseline-shift="8" xml:space="preserve">(Surrogate Model)</tspan></text>
        <text id="text6" xml:space="preserve" x="528" y="643" font-family="Times" font-size="64" fill="#000000">Σ</text>
    </g>
    <g id="g11">
        <g id="g12">
            <text id="Decistion-Tree-2-base" xml:space="preserve"><tspan x="387.5" y="420" text-anchor="middle" font-family="Helvetica" font-size="18" fill="#000000" xml:space="preserve">Decistion Tree 2</tspan><tspan x="387.5" y="438" text-anchor="middle" font-family="Helvetica" font-size="18" fill="#000000" xml:space="preserve">(base learner)</tspan></text>
            <g id="g13">
                <path id="path51" fill="#000000" fill-rule="evenodd" stroke="none" d="M 441.187012 312.766632 L 428.978455 309.275116 L 431.311371 306.363525 L 393.729706 276.251129 L 395.203125 274.412201 L 432.784821 304.524597 L 435.117737 301.613007 Z"/>
                <path id="path52" fill="#000000" fill-rule="evenodd" stroke="none" d="M 331.398956 312.243195 L 337.607574 301.166534 L 339.903809 304.107147 L 377.860077 274.468292 L 379.310333 276.325531 L 341.354065 305.964386 L 343.65033 308.905029 Z"/>
                <path id="path53" fill="#000000" fill-rule="evenodd" stroke="none" d="M 471.179169 359.459198 L 460.033081 353.376099 L 462.947601 351.046783 L 451.211273 336.362061 L 453.052002 334.8909 L 464.78833 349.575653 L 467.70282 347.246307 Z"/>
                <path id="path54" fill="#000000" fill-rule="evenodd" stroke="none" d="M 414.492676 360.653015 L 425.445496 354.228485 L 422.460419 351.990326 L 434.287872 336.21582 L 432.402557 334.802246 L 420.575104 350.576752 L 417.590027 348.338593 Z"/>
                <path id="path55" fill="#000000" fill-rule="evenodd" stroke="none" d="M 402 266.5 C 402 258.491882 395.508118 252 387.5 252 C 379.491882 252 373 258.491882 373 266.5 C 373 274.508118 379.491882 281 387.5 281 C 395.508118 281 402 274.508118 402 266.5 Z"/>
                <path id="path56" fill="#000000" fill-rule="evenodd" stroke="none" d="M 458 325.5 C 458 317.491882 451.508118 311 443.5 311 C 435.491882 311 429 317.491882 429 325.5 C 429 333.508118 435.491882 340 443.5 340 C 451.508118 340 458 333.508118 458 325.5 Z"/>
                <path id="path57" fill="#000000" fill-rule="evenodd" stroke="none" d="M 485 373.5 C 485 365.491882 478.508118 359 470.5 359 C 462.491882 359 456 365.491882 456 373.5 C 456 381.508118 462.491882 388 470.5 388 C 478.508118 388 485 381.508118 485 373.5 Z"/>
                <path id="path58" fill="#000000" fill-rule="evenodd" stroke="none" d="M 429 373.5 C 429 365.491882 422.508118 359 414.5 359 C 406.491882 359 400 365.491882 400 373.5 C 400 381.508118 406.491882 388 414.5 388 C 422.508118 388 429 381.508118 429 373.5 Z"/>
                <path id="path59" fill="#000000" fill-rule="evenodd" stroke="none" d="M 361.179169 359.459198 L 350.033081 353.376099 L 352.947601 351.046783 L 341.211273 336.362061 L 343.052002 334.8909 L 354.78833 349.575653 L 357.70282 347.246307 Z"/>
                <path id="path60" fill="#000000" fill-rule="evenodd" stroke="none" d="M 304.492676 360.653015 L 315.445496 354.228485 L 312.460419 351.990326 L 324.287872 336.21582 L 322.402557 334.802246 L 310.575104 350.576752 L 307.590027 348.338593 Z"/>
                <path id="path61" fill="#000000" fill-rule="evenodd" stroke="none" d="M 348 325.5 C 348 317.491882 341.508118 311 333.5 311 C 325.491882 311 319 317.491882 319 325.5 C 319 333.508118 325.491882 340 333.5 340 C 341.508118 340 348 333.508118 348 325.5 Z"/>
                <path id="path62" fill="#000000" fill-rule="evenodd" stroke="none" d="M 375 373.5 C 375 365.491882 368.508118 359 360.5 359 C 352.491882 359 346 365.491882 346 373.5 C 346 381.508118 352.491882 388 360.5 388 C 368.508118 388 375 381.508118 375 373.5 Z"/>
                <path id="path63" fill="#000000" fill-rule="evenodd" stroke="none" d="M 319 373.5 C 319 365.491882 312.508118 359 304.5 359 C 296.491882 359 290 365.491882 290 373.5 C 290 381.508118 296.491882 388 304.5 388 C 312.508118 388 319 381.508118 319 373.5 Z"/>
            </g>
        </g>
        <g id="Gruppe-Kopie-6">
            <text id="text7" xml:space="preserve" x="330" y="18" font-family="Helvetica" font-size="18" fill="#000000">Weighted Data</text>
            <g id="g14">
                <path id="path64" fill="#d23e44" fill-rule="evenodd" stroke="none" d="M 362 40.5 C 362 36.357849 358.642151 33 354.5 33 C 350.357849 33 347 36.357849 347 40.5 C 347 44.642151 350.357849 48 354.5 48 C 358.642151 48 362 44.642151 362 40.5 Z"/>
                <path id="path65" fill="#d23e44" fill-rule="evenodd" stroke="none" d="M 389 43.5 C 389 39.357849 385.642151 36 381.5 36 C 377.357849 36 374 39.357849 374 43.5 C 374 47.642151 377.357849 51 381.5 51 C 385.642151 51 389 47.642151 389 43.5 Z"/>
                <path id="path66" fill="#3e9b42" fill-rule="evenodd" stroke="none" d="M 413 48.5 C 413 44.357849 409.642151 41 405.5 41 C 401.357849 41 398 44.357849 398 48.5 C 398 52.642151 401.357849 56 405.5 56 C 409.642151 56 413 52.642151 413 48.5 Z"/>
                <path id="path67" fill="#3e9b42" fill-rule="evenodd" stroke="none" d="M 437 42.5 C 437 38.357849 433.642151 35 429.5 35 C 425.357849 35 422 38.357849 422 42.5 C 422 46.642151 425.357849 50 429.5 50 C 433.642151 50 437 46.642151 437 42.5 Z"/>
                <path id="path68" fill="#3e9b42" fill-rule="evenodd" stroke="none" d="M 457 48.5 C 457 44.357849 453.642151 41 449.5 41 C 445.357849 41 442 44.357849 442 48.5 C 442 52.642151 445.357849 56 449.5 56 C 453.642151 56 457 52.642151 457 48.5 Z"/>
                <path id="path69" fill="#d23e44" fill-rule="evenodd" stroke="none" d="M 442 64.5 C 442 60.357849 438.642151 57 434.5 57 C 430.357849 57 427 60.357849 427 64.5 C 427 68.642151 430.357849 72 434.5 72 C 438.642151 72 442 68.642151 442 64.5 Z"/>
                <path id="path70" fill="#d23e44" fill-rule="evenodd" stroke="none" d="M 425 77.5 C 425 73.357849 421.642151 70 417.5 70 C 413.357849 70 410 73.357849 410 77.5 C 410 81.642151 413.357849 85 417.5 85 C 421.642151 85 425 81.642151 425 77.5 Z"/>
                <path id="path71" fill="#3e9b42" fill-rule="evenodd" stroke="none" d="M 452 89.5 C 452 85.357849 448.642151 82 444.5 82 C 440.357849 82 437 85.357849 437 89.5 C 437 93.642151 440.357849 97 444.5 97 C 448.642151 97 452 93.642151 452 89.5 Z"/>
                <path id="path72" fill="#3e9b42" fill-rule="evenodd" stroke="none" d="M 436 105.5 C 436 101.357849 432.642151 98 428.5 98 C 424.357849 98 421 101.357849 421 105.5 C 421 109.642151 424.357849 113 428.5 113 C 432.642151 113 436 109.642151 436 105.5 Z"/>
                <path id="path73" fill="#d23e44" fill-rule="evenodd" stroke="none" d="M 415 106.5 C 415 102.357849 411.642151 99 407.5 99 C 403.357849 99 400 102.357849 400 106.5 C 400 110.642151 403.357849 114 407.5 114 C 411.642151 114 415 110.642151 415 106.5 Z"/>
                <path id="path74" fill="#3e9b42" fill-rule="evenodd" stroke="none" d="M 396 68.5 C 396 64.357849 392.642151 61 388.5 61 C 384.357849 61 381 64.357849 381 68.5 C 381 72.642151 384.357849 76 388.5 76 C 392.642151 76 396 72.642151 396 68.5 Z"/>
                <path id="path75" fill="#3e9b42" fill-rule="evenodd" stroke="none" d="M 337 47.5 C 337 43.357849 333.642151 40 329.5 40 C 325.357849 40 322 43.357849 322 47.5 C 322 51.642151 325.357849 55 329.5 55 C 333.642151 55 337 51.642151 337 47.5 Z"/>
                <path id="path76" fill="#3e9b42" fill-rule="evenodd" stroke="none" d="M 368 60.5 C 368 56.357849 364.642151 53 360.5 53 C 356.357849 53 353 56.357849 353 60.5 C 353 64.642151 356.357849 68 360.5 68 C 364.642151 68 368 64.642151 368 60.5 Z"/>
                <path id="path77" fill="#d23e44" fill-rule="evenodd" stroke="none" d="M 377 88.5 C 377 84.357849 373.642151 81 369.5 81 C 365.357849 81 362 84.357849 362 88.5 C 362 92.642151 365.357849 96 369.5 96 C 373.642151 96 377 92.642151 377 88.5 Z"/>
                <path id="path78" fill="#3e9b42" fill-rule="evenodd" stroke="none" d="M 399 89.5 C 399 85.357849 395.642151 82 391.5 82 C 387.357849 82 384 85.357849 384 89.5 C 384 93.642151 387.357849 97 391.5 97 C 395.642151 97 399 93.642151 399 89.5 Z"/>
                <path id="path79" fill="#3e9b42" fill-rule="evenodd" stroke="none" d="M 360 105.5 C 360 101.357849 356.642151 98 352.5 98 C 348.357849 98 345 101.357849 345 105.5 C 345 109.642151 348.357849 113 352.5 113 C 356.642151 113 360 109.642151 360 105.5 Z"/>
                <path id="path80" fill="#d23e44" fill-rule="evenodd" stroke="none" d="M 334 104.5 C 334 100.357849 330.642151 97 326.5 97 C 322.357849 97 319 100.357849 319 104.5 C 319 108.642151 322.357849 112 326.5 112 C 330.642151 112 334 108.642151 334 104.5 Z"/>
                <path id="path81" fill="#d23e44" fill-rule="evenodd" stroke="none" d="M 356 85.5 C 356 81.357849 352.642151 78 348.5 78 C 344.357849 78 341 81.357849 341 85.5 C 341 89.642151 344.357849 93 348.5 93 C 352.642151 93 356 89.642151 356 85.5 Z"/>
                <path id="path82" fill="#d23e44" fill-rule="evenodd" stroke="none" d="M 333 72.5 C 333 68.357849 329.642151 65 325.5 65 C 321.357849 65 318 68.357849 318 72.5 C 318 76.642151 321.357849 80 325.5 80 C 329.642151 80 333 76.642151 333 72.5 Z"/>
                <path id="path83" fill="none" stroke="#000000" stroke-width="2" stroke-dasharray="8 4" stroke-dashoffset="0" d="M 310 121 L 465 121 L 465 26 L 310 26 Z"/>
            </g>
        </g>
        <g id="Gruppe-Kopie-5">
            <text id="text8" transform="matrix(-0 -1 1 -0 181 557)" xml:space="preserve" x="343" y="193" font-family="Helvetica" font-size="18" fill="#000000">Fitting</text>
            <path id="path84" fill="#000000" fill-rule="evenodd" stroke="none" d="M 387.5 237 L 382 223 L 385.959991 223 L 385.959991 139 L 389.040009 139 L 389.040009 223 L 393 223 Z"/>
        </g>
    </g>
    <g id="g15">
        <g id="g16">
            <text id="Decistion-Tree-1-base" xml:space="preserve"><tspan x="97.5" y="420" text-anchor="middle" font-family="Helvetica" font-size="18" fill="#000000" xml:space="preserve">Decistion Tree 1</tspan><tspan x="97.5" y="438" text-anchor="middle" font-family="Helvetica" font-size="18" fill="#000000" xml:space="preserve">(base learner)</tspan></text>
            <g id="Gruppe-Kopie">
                <path id="path85" fill="#000000" fill-rule="evenodd" stroke="none" d="M 151.186996 312.766632 L 138.978455 309.275116 L 141.311386 306.363525 L 103.729706 276.251129 L 105.20314 274.412201 L 142.784821 304.524597 L 145.117752 301.613007 Z"/>
                <path id="path86" fill="#000000" fill-rule="evenodd" stroke="none" d="M 41.398956 312.243195 L 47.607567 301.166534 L 49.903812 304.107147 L 87.860069 274.468292 L 89.310326 276.325531 L 51.354073 305.964386 L 53.650318 308.905029 Z"/>
                <path id="path87" fill="#000000" fill-rule="evenodd" stroke="none" d="M 181.179184 359.459198 L 170.033081 353.376099 L 172.947586 351.046783 L 161.211273 336.362061 L 163.052017 334.8909 L 174.78833 349.575653 L 177.70282 347.246307 Z"/>
                <path id="path88" fill="#000000" fill-rule="evenodd" stroke="none" d="M 124.492676 360.653015 L 135.445496 354.228485 L 132.460419 351.990326 L 144.287857 336.21582 L 142.402557 334.802246 L 130.575104 350.576752 L 127.590034 348.338593 Z"/>
                <path id="path89" fill="#000000" fill-rule="evenodd" stroke="none" d="M 112 266.5 C 112 258.491882 105.508133 252 97.5 252 C 89.491875 252 83 258.491882 83 266.5 C 83 274.508118 89.491875 281 97.5 281 C 105.508133 281 112 274.508118 112 266.5 Z"/>
                <path id="path90" fill="#000000" fill-rule="evenodd" stroke="none" d="M 168 325.5 C 168 317.491882 161.508133 311 153.5 311 C 145.491867 311 139 317.491882 139 325.5 C 139 333.508118 145.491867 340 153.5 340 C 161.508133 340 168 333.508118 168 325.5 Z"/>
                <path id="path91" fill="#000000" fill-rule="evenodd" stroke="none" d="M 195 373.5 C 195 365.491882 188.508133 359 180.5 359 C 172.491867 359 166 365.491882 166 373.5 C 166 381.508118 172.491867 388 180.5 388 C 188.508133 388 195 381.508118 195 373.5 Z"/>
                <path id="path92" fill="#000000" fill-rule="evenodd" stroke="none" d="M 139 373.5 C 139 365.491882 132.508133 359 124.5 359 C 116.491875 359 110 365.491882 110 373.5 C 110 381.508118 116.491875 388 124.5 388 C 132.508133 388 139 381.508118 139 373.5 Z"/>
                <path id="path93" fill="#000000" fill-rule="evenodd" stroke="none" d="M 71.179184 359.459198 L 60.033089 353.376099 L 62.947586 351.046783 L 51.211277 336.362061 L 53.052013 334.8909 L 64.788322 349.575653 L 67.702827 347.246307 Z"/>
                <path id="path94" fill="#000000" fill-rule="evenodd" stroke="none" d="M 14.492675 360.653015 L 25.445499 354.228485 L 22.460423 351.990326 L 34.287861 336.21582 L 32.40255 334.802246 L 20.575109 350.576752 L 17.590031 348.338593 Z"/>
                <path id="path95" fill="#000000" fill-rule="evenodd" stroke="none" d="M 58 325.5 C 58 317.491882 51.508129 311 43.5 311 C 35.491871 311 29 317.491882 29 325.5 C 29 333.508118 35.491871 340 43.5 340 C 51.508129 340 58 333.508118 58 325.5 Z"/>
                <path id="path96" fill="#000000" fill-rule="evenodd" stroke="none" d="M 85 373.5 C 85 365.491882 78.508133 359 70.5 359 C 62.491871 359 56 365.491882 56 373.5 C 56 381.508118 62.491871 388 70.5 388 C 78.508133 388 85 381.508118 85 373.5 Z"/>
                <path id="path97" fill="#000000" fill-rule="evenodd" stroke="none" d="M 29 373.5 C 29 365.491882 22.508129 359 14.5 359 C 6.491871 359 0 365.491882 0 373.5 C 0 381.508118 6.491871 388 14.5 388 C 22.508129 388 29 381.508118 29 373.5 Z"/>
            </g>
        </g>
        <g id="g17">
            <text id="Data" xml:space="preserve" x="77" y="18" font-family="Helvetica" font-size="18" fill="#000000">Data</text>
            <g id="g18">
                <path id="path98" fill="#3e9b42" fill-rule="evenodd" stroke="none" d="M 72 40.5 C 72 36.357849 68.642136 33 64.5 33 C 60.357864 33 57 36.357849 57 40.5 C 57 44.642151 60.357864 48 64.5 48 C 68.642136 48 72 44.642151 72 40.5 Z"/>
                <path id="path99" fill="#3e9b42" fill-rule="evenodd" stroke="none" d="M 99 43.5 C 99 39.357849 95.642136 36 91.5 36 C 87.357864 36 84 39.357849 84 43.5 C 84 47.642151 87.357864 51 91.5 51 C 95.642136 51 99 47.642151 99 43.5 Z"/>
                <path id="path100" fill="#3e9b42" fill-rule="evenodd" stroke="none" d="M 123 48.5 C 123 44.357849 119.642136 41 115.5 41 C 111.357864 41 108 44.357849 108 48.5 C 108 52.642151 111.357864 56 115.5 56 C 119.642136 56 123 52.642151 123 48.5 Z"/>
                <path id="path101" fill="#3e9b42" fill-rule="evenodd" stroke="none" d="M 147 42.5 C 147 38.357849 143.642136 35 139.5 35 C 135.357864 35 132 38.357849 132 42.5 C 132 46.642151 135.357864 50 139.5 50 C 143.642136 50 147 46.642151 147 42.5 Z"/>
                <path id="path102" fill="#3e9b42" fill-rule="evenodd" stroke="none" d="M 167 48.5 C 167 44.357849 163.642136 41 159.5 41 C 155.357864 41 152 44.357849 152 48.5 C 152 52.642151 155.357864 56 159.5 56 C 163.642136 56 167 52.642151 167 48.5 Z"/>
                <path id="path103" fill="#3e9b42" fill-rule="evenodd" stroke="none" d="M 152 64.5 C 152 60.357849 148.642136 57 144.5 57 C 140.357864 57 137 60.357849 137 64.5 C 137 68.642151 140.357864 72 144.5 72 C 148.642136 72 152 68.642151 152 64.5 Z"/>
                <path id="path104" fill="#3e9b42" fill-rule="evenodd" stroke="none" d="M 135 77.5 C 135 73.357849 131.642136 70 127.5 70 C 123.357864 70 120 73.357849 120 77.5 C 120 81.642151 123.357864 85 127.5 85 C 131.642136 85 135 81.642151 135 77.5 Z"/>
                <path id="path105" fill="#3e9b42" fill-rule="evenodd" stroke="none" d="M 162 89.5 C 162 85.357849 158.642136 82 154.5 82 C 150.357864 82 147 85.357849 147 89.5 C 147 93.642151 150.357864 97 154.5 97 C 158.642136 97 162 93.642151 162 89.5 Z"/>
                <path id="path106" fill="#3e9b42" fill-rule="evenodd" stroke="none" d="M 146 105.5 C 146 101.357849 142.642136 98 138.5 98 C 134.357864 98 131 101.357849 131 105.5 C 131 109.642151 134.357864 113 138.5 113 C 142.642136 113 146 109.642151 146 105.5 Z"/>
                <path id="path107" fill="#3e9b42" fill-rule="evenodd" stroke="none" d="M 125 106.5 C 125 102.357849 121.642136 99 117.5 99 C 113.357864 99 110 102.357849 110 106.5 C 110 110.642151 113.357864 114 117.5 114 C 121.642136 114 125 110.642151 125 106.5 Z"/>
                <path id="path108" fill="#3e9b42" fill-rule="evenodd" stroke="none" d="M 106 68.5 C 106 64.357849 102.642136 61 98.5 61 C 94.357864 61 91 64.357849 91 68.5 C 91 72.642151 94.357864 76 98.5 76 C 102.642136 76 106 72.642151 106 68.5 Z"/>
                <path id="path109" fill="#3e9b42" fill-rule="evenodd" stroke="none" d="M 47 47.5 C 47 43.357849 43.642136 40 39.5 40 C 35.357864 40 32 43.357849 32 47.5 C 32 51.642151 35.357864 55 39.5 55 C 43.642136 55 47 51.642151 47 47.5 Z"/>
                <path id="path110" fill="#3e9b42" fill-rule="evenodd" stroke="none" d="M 78 60.5 C 78 56.357849 74.642136 53 70.5 53 C 66.357864 53 63 56.357849 63 60.5 C 63 64.642151 66.357864 68 70.5 68 C 74.642136 68 78 64.642151 78 60.5 Z"/>
                <path id="path111" fill="#3e9b42" fill-rule="evenodd" stroke="none" d="M 87 88.5 C 87 84.357849 83.642136 81 79.5 81 C 75.357864 81 72 84.357849 72 88.5 C 72 92.642151 75.357864 96 79.5 96 C 83.642136 96 87 92.642151 87 88.5 Z"/>
                <path id="path112" fill="#3e9b42" fill-rule="evenodd" stroke="none" d="M 109 89.5 C 109 85.357849 105.642136 82 101.5 82 C 97.357864 82 94 85.357849 94 89.5 C 94 93.642151 97.357864 97 101.5 97 C 105.642136 97 109 93.642151 109 89.5 Z"/>
                <path id="path113" fill="#3e9b42" fill-rule="evenodd" stroke="none" d="M 70 105.5 C 70 101.357849 66.642136 98 62.5 98 C 58.357864 98 55 101.357849 55 105.5 C 55 109.642151 58.357864 113 62.5 113 C 66.642136 113 70 109.642151 70 105.5 Z"/>
                <path id="path114" fill="#3e9b42" fill-rule="evenodd" stroke="none" d="M 44 104.5 C 44 100.357849 40.642136 97 36.5 97 C 32.357864 97 29 100.357849 29 104.5 C 29 108.642151 32.357864 112 36.5 112 C 40.642136 112 44 108.642151 44 104.5 Z"/>
                <path id="path115" fill="#3e9b42" fill-rule="evenodd" stroke="none" d="M 66 85.5 C 66 81.357849 62.642136 78 58.5 78 C 54.357864 78 51 81.357849 51 85.5 C 51 89.642151 54.357864 93 58.5 93 C 62.642136 93 66 89.642151 66 85.5 Z"/>
                <path id="path116" fill="#3e9b42" fill-rule="evenodd" stroke="none" d="M 43 72.5 C 43 68.357849 39.642136 65 35.5 65 C 31.357864 65 28 68.357849 28 72.5 C 28 76.642151 31.357864 80 35.5 80 C 39.642136 80 43 76.642151 43 72.5 Z"/>
                <path id="path117" fill="none" stroke="#000000" stroke-width="2" stroke-dasharray="8 4" stroke-dashoffset="0" d="M 20 121 L 175 121 L 175 26 L 20 26 Z"/>
            </g>
        </g>
        <g id="g19">
            <text id="text9" transform="matrix(-0 -1 1 -0 -109 267)" xml:space="preserve" x="53" y="193" font-family="Helvetica" font-size="18" fill="#000000">Fitting</text>
            <path id="path118" fill="#000000" fill-rule="evenodd" stroke="none" d="M 97.5 237 L 92 223 L 95.959999 223 L 95.959999 139 L 99.040001 139 L 99.040001 223 L 103 223 Z"/>
        </g>
    </g>
    <g id="g20">
        <path id="path119" fill="#d23e44" fill-rule="evenodd" stroke="none" d="M 284.770325 142.962708 L 278.963959 156.129395 L 276.399139 153.479126 L 161.97731 264.2099 L 159.563354 261.715485 L 273.985168 150.98468 L 271.420349 148.334351 Z"/>
        <defs>
            <path id="path120" d="M 299 128 L 289.771545 149.610168 L 285.695099 145.260315 L 103.83667 327 L 100 322.905914 L 281.858398 141.16626 L 277.781982 136.816345 L 299 128 Z"/>
        </defs>
        <text id="Prediction-Residuals" xml:space="preserve"><textPath xlink:href="#path120" startOffset="376.45139"><tspan font-family="Helvetica" font-size="18" fill="#000000" baseline-shift="8" xml:space="preserve">Prediction Residuals</tspan></textPath></text>
    </g>
    <g id="g21">
        <path id="path121" fill="#393f4b" fill-rule="evenodd" stroke="none" d="M 606.770325 142.962708 L 600.963989 156.129395 L 598.399109 153.479126 L 483.977325 264.2099 L 481.563354 261.715485 L 595.985168 150.98468 L 593.420349 148.334351 Z"/>
        <defs>
            <path id="path122" d="M 621 128 L 611.771545 149.610168 L 607.695068 145.260315 L 425.83667 327 L 422 322.905914 L 603.858398 141.16626 L 599.781982 136.816345 L 621 128 Z"/>
        </defs>
        <text id="text10" xml:space="preserve"><textPath xlink:href="#path122" startOffset="376.45139"><tspan font-family="Helvetica" font-size="18" fill="#000000" baseline-shift="8" xml:space="preserve">Prediction Residuals</tspan></textPath></text>
    </g>
    <g id="g22">
        <text id="text11" xml:space="preserve" x="821" y="221" font-family="Gill Sans" font-size="87.747524" fill="#000000" baseline-shift="8">...</text>
        <g id="g23">
            <path id="path123" fill="#000000" fill-rule="evenodd" stroke="none" d="M 820.576294 242.429779 L 815.269104 254.464661 L 812.924744 252.042175 L 782.549316 281.437714 L 780.342896 279.157715 L 810.718262 249.762177 L 808.373962 247.339691 Z"/>
            <path id="path124" fill="#000000" fill-rule="evenodd" stroke="none" d="M 922.034424 151.940125 L 916.727173 163.975037 L 914.382813 161.552551 L 884.007385 190.948059 L 881.800964 188.668091 L 912.176331 159.272522 L 909.832031 156.850037 Z"/>
        </g>
    </g>
</svg>
