<?xml version="1.0" encoding="UTF-8"?>
<!-- Generated by Pixelmator Pro 3.3.2 -->
<svg width="572" height="430" viewBox="0 0 572 430" xmlns="http://www.w3.org/2000/svg" xmlns:xlink="http://www.w3.org/1999/xlink">
    <g id="g126">
        <path id="rect4" fill="none" stroke="#000000" stroke-dasharray="12 12" stroke-dashoffset="0" d="M 10.5 27.5 L 570.5 27.5 L 570.5 427.5 L 10.5 427.5 Z"/>
        <path id="path6" fill="none" stroke="#000000" stroke-width="2" d="M 348.01001 149.26001 L 348.019989 137.529999 L 410.5 137.529999 L 410.5 397.529999 L 348.019989 397.529999 L 348 377.5"/>
        <path id="path8" fill="#000000" stroke="#000000" stroke-width="2" d="M 348 155.26001 L 344.01001 147.26001 L 348.01001 149.26001 L 352.01001 147.27002 Z"/>
        <path id="path10" fill="#ffffff" stroke="#000000" stroke-width="2" d="M 220.5 180.5 L 220.5 157.5 L 390.5 157.5 L 390.5 180.5"/>
        <path id="path12" fill="none" stroke="#000000" stroke-width="2" d="M 220.5 180.5 L 220.5 377.5 L 390.5 377.5 L 390.5 180.5"/>
        <path id="path14" fill="none" stroke="#000000" stroke-width="2" d="M 220.5 180.5 L 390.5 180.5"/>
        <g id="g20">
            <g id="switch18">
                <text id="Optimizer" xml:space="preserve" x="305" y="172" text-anchor="middle" font-family="Helvetica" font-size="12" font-weight="700" fill="#000000">Optimizer</text>
            </g>
        </g>
        <path id="rect22" fill="#ffffff" stroke="#000000" stroke-width="2" d="M 247.699997 257.5 L 353.299988 257.5 C 357.276459 257.5 360.5 260.723541 360.5 264.700012 L 360.5 310.299988 C 360.5 314.276459 357.276459 317.5 353.299988 317.5 L 247.699997 317.5 C 243.723557 317.5 240.5 314.276459 240.5 310.299988 L 240.5 264.700012 C 240.5 260.723541 243.723557 257.5 247.699997 257.5 Z"/>
        <g id="g28">
            <g id="switch26">
                <text id="HPO" xml:space="preserve" x="300" y="297" text-anchor="middle" font-family="Helvetica" font-size="12" fill="#000000">HPO</text>
                <text id="Black-Box" xml:space="preserve" x="300" y="284" text-anchor="middle" font-family="Helvetica" font-size="13" fill="#000000">Black-Box</text>
            </g>
        </g>
        <path id="path30" fill="none" stroke="#000000" stroke-width="2" d="M 300.5 317.5 L 300.5 337.5 L 370.5 337.5 L 370.5 237.5 L 300.5 237.5 L 300.5 249.259995"/>
        <path id="path32" fill="#000000" stroke="#000000" stroke-width="2" d="M 300.5 255.259995 L 296.5 247.259995 L 300.5 249.259995 L 304.5 247.259995 Z"/>
        <g id="g38">
            <g id="switch36">
                <text id="ncalls" xml:space="preserve" x="335" y="352" text-anchor="middle" font-family="Helvetica" font-size="12" fill="#000000">n_calls</text>
            </g>
        </g>
        <g id="g44">
            <g id="switch42">
                <text id="text1" xml:space="preserve" x="377" y="409" text-anchor="middle" font-family="Helvetica" font-size="14.6667" fill="#000000">𝑟</text>
            </g>
        </g>
        <path id="path46" fill="#000000" stroke="#000000" d="M 411 271.459991 L 411 263.540009 L 435.769989 263.540009 L 435.769989 256.140015 L 460 267.5 L 435.769989 278.859985 L 435.769989 271.459991 Z"/>
        <path id="rect48" fill="#ffffff" stroke="#000000" stroke-width="2" d="M 466.5 247.5 L 544.5 247.5 C 547.813721 247.5 550.5 250.186295 550.5 253.5 L 550.5 281.5 C 550.5 284.813721 547.813721 287.5 544.5 287.5 L 466.5 287.5 C 463.186279 287.5 460.5 284.813721 460.5 281.5 L 460.5 253.5 C 460.5 250.186295 463.186279 247.5 466.5 247.5 Z"/>
        <g id="g54">
            <g id="switch52">
                <text id="Logger" xml:space="preserve" x="505" y="271" text-anchor="middle" font-family="Helvetica" font-size="12" fill="#000000">Logger</text>
            </g>
        </g>
        <path id="path56" fill="none" stroke="#000000" stroke-width="2" d="M 80.5 227.5 L 80.5 247.529999 L 80.129997 252.289993"/>
        <path id="path58" fill="#000000" stroke="#000000" stroke-width="2" d="M 79.669998 258.269989 L 76.300003 249.990005 L 80.129997 252.289993 L 84.279999 250.600006 Z"/>
        <path id="rect60" fill="#ffffff" stroke="#000000" stroke-width="2" d="M 36.5 187.5 L 124.5 187.5 C 127.813705 187.5 130.5 190.186295 130.5 193.5 L 130.5 221.5 C 130.5 224.813705 127.813705 227.5 124.5 227.5 L 36.5 227.5 C 33.186291 227.5 30.5 224.813705 30.5 221.5 L 30.5 193.5 C 30.5 190.186295 33.186291 187.5 36.5 187.5 Z"/>
        <g id="g66">
            <g id="switch64">
                <text id="Problem" xml:space="preserve" x="84" y="211" text-anchor="middle" font-family="Helvetica" font-size="13" fill="#000000">Problem</text>
            </g>
        </g>
        <path id="path68" fill="none" stroke="#000000" stroke-width="2" d="M 129.5 298 L 184.979996 298.019989 L 230.580002 298.559998"/>
        <path id="path70" fill="#000000" stroke="#000000" stroke-width="2" d="M 236.580002 298.630005 L 228.539993 302.540009 L 230.580002 298.559998 L 228.630005 294.540009 Z"/>
        <g id="g76">
            <g id="switch74"/>
            <text id="--" xml:space="preserve" x="157" y="380" font-family="Helvetica" font-size="12" fill="#000000">  </text>
            <text id="Quality-f" xml:space="preserve" x="145" y="326" font-family="Helvetica" font-size="12" fill="#000000">Quality f(𝜆)</text>
            <text id="Solution" xml:space="preserve" x="153" y="311" font-family="Helvetica" font-size="12" fill="#000000">Solution</text>
        </g>
        <path id="rect78" fill="#ffffff" stroke="#000000" stroke-width="2" d="M 37 260.5 L 122 260.5 C 126.142136 260.5 129.5 263.857849 129.5 268 L 129.5 303 C 129.5 307.142151 126.142136 310.5 122 310.5 L 37 310.5 C 32.857864 310.5 29.5 307.142151 29.5 303 L 29.5 268 C 29.5 263.857849 32.857864 260.5 37 260.5 Z"/>
        <g id="g84">
            <g id="switch82">
                <text id="H-SPPBO" xml:space="preserve" x="83" y="289" text-anchor="middle" font-family="Helvetica" font-size="13" fill="#000000">H-SPPBO</text>
            </g>
        </g>
        <path id="path86" fill="none" stroke="#000000" stroke-width="2" d="M 240.5 272.5 L 184.979996 272.5 L 137.740005 272.929993"/>
        <path id="path88" fill="#000000" stroke="#000000" stroke-width="2" d="M 131.740005 272.980011 L 139.699997 268.910004 L 137.740005 272.929993 L 139.770004 276.910004 Z"/>
        <g id="g94">
            <g id="switch92">
                <text id="Parameters-" xml:space="preserve" x="182" y="269" text-anchor="middle" font-family="Helvetica" font-size="12" fill="#000000">Parameters 𝜆</text>
            </g>
        </g>
        <path id="path96" fill="none" stroke="#000000" stroke-width="2" d="M 243.529999 87.5 L 243.529999 122.5 L 305.529999 122.5 L 305.529999 149.26001"/>
        <path id="path98" fill="#000000" stroke="#000000" stroke-width="2" d="M 305.529999 155.26001 L 301.529999 147.26001 L 305.529999 149.26001 L 309.529999 147.26001 Z"/>
        <path id="rect100" fill="#ffffff" stroke="#000000" stroke-width="2" d="M 206.5 47.5 L 280.5 47.5 C 283.813721 47.5 286.5 50.186279 286.5 53.5 L 286.5 81.5 C 286.5 84.813721 283.813721 87.5 280.5 87.5 L 206.5 87.5 C 203.186295 87.5 200.5 84.813721 200.5 81.5 L 200.5 53.5 C 200.5 50.186279 203.186295 47.5 206.5 47.5 Z"/>
        <g id="g106">
            <g id="switch104">
                <text id="Config-" xml:space="preserve"><tspan x="247" y="72" text-anchor="middle" font-family="Helvetica" font-size="13" fill="#000000" xml:space="preserve">Config </tspan><tspan font-family="Times New Roman" font-size="13" fill="#000000" xml:space="preserve">Λ</tspan></text>
            </g>
        </g>
        <path id="path108" fill="none" stroke="#000000" stroke-width="2" d="M 360.5 92.5 L 360.5 122.5 L 305.529999 122.5 L 305.51001 149.26001"/>
        <path id="path110" fill="#000000" stroke="#000000" stroke-width="2" d="M 305.5 155.26001 L 301.51001 147.26001 L 305.51001 149.26001 L 309.51001 147.27002 Z"/>
        <path id="rect112" fill="#ffffff" stroke="#000000" stroke-width="2" d="M 318 42.5 L 403 42.5 C 407.142151 42.5 410.5 45.857849 410.5 50 L 410.5 85 C 410.5 89.142151 407.142151 92.5 403 92.5 L 318 92.5 C 313.857849 92.5 310.5 89.142151 310.5 85 L 310.5 50 C 310.5 45.857849 313.857849 42.5 318 42.5 Z"/>
        <g id="g118">
            <g id="switch116">
                <text id="Algorithm" xml:space="preserve" x="363" y="78" text-anchor="middle" font-family="Helvetica" font-size="13" fill="#000000">Algorithm</text>
                <text id="Optimization" xml:space="preserve" x="363" y="65" text-anchor="middle" font-family="Helvetica" font-size="13" fill="#000000">Optimization</text>
            </g>
        </g>
        <g id="g124">
            <g id="switch122">
                <text id="constant-seed" xml:space="preserve" x="59" y="19" text-anchor="middle" font-family="Helvetica" font-size="12" fill="#000000">constant seed</text>
            </g>
        </g>
    </g>
    <text id="opt" xml:space="preserve" x="376" y="412" font-family="Helvetica" font-size="8" fill="#000000">opt</text>
</svg>
