<?xml version="1.0" encoding="UTF-8"?>
<!-- Generated by Pixelmator Pro 3.2.3 -->
<svg width="480" height="806" viewBox="0 0 480 806" xmlns="http://www.w3.org/2000/svg" xmlns:xlink="http://www.w3.org/1999/xlink">
    <g id="Gruppe">
        <g id="g1">
            <g id="g2">
                <g id="g3">
                    <g id="g4">
                        <path id="Rechteck-Kopie" fill="#38761d" fill-rule="evenodd" stroke="#000000" stroke-width="2" stroke-linecap="round" stroke-linejoin="round" d="M 0 806 L 96 806 L 96 782 L 0 782 Z"/>
                        <path id="Rechteck-Kopie-2" fill="none" stroke="none" d="M 0 782 L 96 782 L 96 758 L 0 758 Z"/>
                        <path id="Rechteck-Kopie-3" fill="none" stroke="none" d="M 0 758 L 96 758 L 96 734 L 0 734 Z"/>
                        <path id="Rechteck-Kopie-4" fill="none" stroke="none" d="M 0 734 L 96 734 L 96 710 L 0 710 Z"/>
                    </g>
                    <path id="Rechteck" fill="none" stroke="#000000" stroke-width="2" stroke-linecap="round" stroke-linejoin="round" d="M 0 806 L 96 806 L 96 710 L 0 710 Z"/>
                </g>
                <g id="Gruppe-Kopie">
                    <g id="g5">
                        <path id="path1" fill="#38761d" fill-rule="evenodd" stroke="#000000" stroke-width="2" stroke-linecap="round" stroke-linejoin="round" d="M 96 806 L 192 806 L 192 782 L 96 782 Z"/>
                        <path id="path2" fill="none" stroke="none" d="M 96 782 L 192 782 L 192 758 L 96 758 Z"/>
                        <path id="path3" fill="none" stroke="none" d="M 96 758 L 192 758 L 192 734 L 96 734 Z"/>
                        <path id="path4" fill="none" stroke="none" d="M 96 734 L 192 734 L 192 710 L 96 710 Z"/>
                    </g>
                    <path id="path5" fill="none" stroke="#000000" stroke-width="2" stroke-linecap="round" stroke-linejoin="round" d="M 96 806 L 192 806 L 192 710 L 96 710 Z"/>
                </g>
                <g id="Gruppe-Kopie-2">
                    <g id="g6">
                        <path id="path6" fill="#38761d" fill-rule="evenodd" stroke="#000000" stroke-width="2" stroke-linecap="round" stroke-linejoin="round" d="M 192 806 L 288 806 L 288 782 L 192 782 Z"/>
                        <path id="path7" fill="#45818e" fill-rule="evenodd" stroke="#000000" stroke-width="2" stroke-linecap="round" stroke-linejoin="round" d="M 192 782 L 288 782 L 288 758 L 192 758 Z"/>
                        <path id="path8" fill="#cc4125" fill-rule="evenodd" stroke="#000000" stroke-width="2" stroke-linecap="round" stroke-linejoin="round" d="M 192 758 L 288 758 L 288 734 L 192 734 Z"/>
                        <path id="path9" fill="#f1b00d" fill-rule="evenodd" stroke="#000000" stroke-width="2" stroke-linecap="round" stroke-linejoin="round" d="M 192 734 L 288 734 L 288 710 L 192 710 Z"/>
                    </g>
                    <path id="path10" fill="none" stroke="#000000" stroke-width="2" stroke-linecap="round" stroke-linejoin="round" d="M 192 806 L 288 806 L 288 710 L 192 710 Z"/>
                </g>
                <g id="Gruppe-Kopie-3">
                    <g id="g7">
                        <path id="path11" fill="#38761d" fill-rule="evenodd" stroke="#000000" stroke-width="2" stroke-linecap="round" stroke-linejoin="round" d="M 288 806 L 384 806 L 384 782 L 288 782 Z"/>
                        <path id="path12" fill="none" stroke="none" d="M 288 782 L 384 782 L 384 758 L 288 758 Z"/>
                        <path id="path13" fill="none" stroke="none" d="M 288 758 L 384 758 L 384 734 L 288 734 Z"/>
                        <path id="path14" fill="none" stroke="none" d="M 288 734 L 384 734 L 384 710 L 288 710 Z"/>
                    </g>
                    <path id="path15" fill="none" stroke="#000000" stroke-width="2" stroke-linecap="round" stroke-linejoin="round" d="M 288 806 L 384 806 L 384 710 L 288 710 Z"/>
                </g>
                <g id="Gruppe-Kopie-4">
                    <g id="g8">
                        <path id="path16" fill="#38761d" fill-rule="evenodd" stroke="#000000" stroke-width="2" stroke-linecap="round" stroke-linejoin="round" d="M 384 806 L 480 806 L 480 782 L 384 782 Z"/>
                        <path id="path17" fill="none" stroke="none" d="M 384 782 L 480 782 L 480 758 L 384 758 Z"/>
                        <path id="path18" fill="none" stroke="none" d="M 384 758 L 480 758 L 480 734 L 384 734 Z"/>
                        <path id="path19" fill="none" stroke="none" d="M 384 734 L 480 734 L 480 710 L 384 710 Z"/>
                    </g>
                    <path id="path20" fill="none" stroke="#000000" stroke-width="2" stroke-linecap="round" stroke-linejoin="round" d="M 384 806 L 480 806 L 480 710 L 384 710 Z"/>
                </g>
            </g>
            <g id="g9">
                <g id="g10">
                    <g id="g11">
                        <path id="path21" fill="#38761d" fill-rule="evenodd" stroke="#000000" stroke-width="2" stroke-linecap="round" stroke-linejoin="round" d="M 0 710 L 96 710 L 96 686 L 0 686 Z"/>
                        <path id="path22" fill="#f1b00d" fill-rule="evenodd" stroke="#000000" stroke-width="2" stroke-linecap="round" stroke-linejoin="round" d="M 0 686 L 96 686 L 96 662 L 0 662 Z"/>
                        <path id="path23" fill="none" stroke="none" d="M 0 662 L 96 662 L 96 638 L 0 638 Z"/>
                        <path id="path24" fill="none" stroke="none" d="M 0 638 L 96 638 L 96 614 L 0 614 Z"/>
                    </g>
                    <path id="path25" fill="none" stroke="#000000" stroke-width="2" stroke-linecap="round" stroke-linejoin="round" d="M 0 710 L 96 710 L 96 614 L 0 614 Z"/>
                </g>
                <g id="g12">
                    <g id="g13">
                        <path id="path26" fill="#38761d" fill-rule="evenodd" stroke="#000000" stroke-width="2" stroke-linecap="round" stroke-linejoin="round" d="M 96 710 L 192 710 L 192 686 L 96 686 Z"/>
                        <path id="path27" fill="#45818e" fill-rule="evenodd" stroke="#000000" stroke-width="2" stroke-linecap="round" stroke-linejoin="round" d="M 96 686 L 192 686 L 192 662 L 96 662 Z"/>
                        <path id="path28" fill="none" stroke="none" d="M 96 662 L 192 662 L 192 638 L 96 638 Z"/>
                        <path id="path29" fill="none" stroke="none" d="M 96 638 L 192 638 L 192 614 L 96 614 Z"/>
                    </g>
                    <path id="path30" fill="none" stroke="#000000" stroke-width="2" stroke-linecap="round" stroke-linejoin="round" d="M 96 710 L 192 710 L 192 614 L 96 614 Z"/>
                </g>
                <g id="g14">
                    <g id="g15">
                        <path id="path31" fill="#38761d" fill-rule="evenodd" stroke="#000000" stroke-width="2" stroke-linecap="round" stroke-linejoin="round" d="M 192 710 L 288 710 L 288 686 L 192 686 Z"/>
                        <path id="path32" fill="none" stroke="none" d="M 192 686 L 288 686 L 288 662 L 192 662 Z"/>
                        <path id="path33" fill="none" stroke="none" d="M 192 662 L 288 662 L 288 638 L 192 638 Z"/>
                        <path id="path34" fill="none" stroke="none" d="M 192 638 L 288 638 L 288 614 L 192 614 Z"/>
                    </g>
                    <path id="path35" fill="none" stroke="#000000" stroke-width="2" stroke-linecap="round" stroke-linejoin="round" d="M 192 710 L 288 710 L 288 614 L 192 614 Z"/>
                </g>
                <g id="g16">
                    <g id="g17">
                        <path id="path36" fill="#38761d" fill-rule="evenodd" stroke="#000000" stroke-width="2" stroke-linecap="round" stroke-linejoin="round" d="M 288 710 L 384 710 L 384 686 L 288 686 Z"/>
                        <path id="path37" fill="#cc4125" fill-rule="evenodd" stroke="#000000" stroke-width="2" stroke-linecap="round" stroke-linejoin="round" d="M 288 686 L 384 686 L 384 662 L 288 662 Z"/>
                        <path id="path38" fill="none" stroke="none" d="M 288 662 L 384 662 L 384 638 L 288 638 Z"/>
                        <path id="path39" fill="none" stroke="none" d="M 288 638 L 384 638 L 384 614 L 288 614 Z"/>
                    </g>
                    <path id="path40" fill="none" stroke="#000000" stroke-width="2" stroke-linecap="round" stroke-linejoin="round" d="M 288 710 L 384 710 L 384 614 L 288 614 Z"/>
                </g>
                <g id="g18">
                    <g id="g19">
                        <path id="path41" fill="#38761d" fill-rule="evenodd" stroke="#000000" stroke-width="2" stroke-linecap="round" stroke-linejoin="round" d="M 384 710 L 480 710 L 480 686 L 384 686 Z"/>
                        <path id="path42" fill="none" stroke="none" d="M 384 686 L 480 686 L 480 662 L 384 662 Z"/>
                        <path id="path43" fill="none" stroke="none" d="M 384 662 L 480 662 L 480 638 L 384 638 Z"/>
                        <path id="path44" fill="none" stroke="none" d="M 384 638 L 480 638 L 480 614 L 384 614 Z"/>
                    </g>
                    <path id="path45" fill="none" stroke="#000000" stroke-width="2" stroke-linecap="round" stroke-linejoin="round" d="M 384 710 L 480 710 L 480 614 L 384 614 Z"/>
                </g>
            </g>
            <g id="g20">
                <g id="g21">
                    <g id="g22">
                        <path id="path46" fill="#38761d" fill-rule="evenodd" stroke="#000000" stroke-width="2" stroke-linecap="round" stroke-linejoin="round" d="M 0 614 L 96 614 L 96 590 L 0 590 Z"/>
                        <path id="path47" fill="#45818e" fill-rule="evenodd" stroke="#000000" stroke-width="2" stroke-linecap="round" stroke-linejoin="round" d="M 0 590 L 96 590 L 96 566 L 0 566 Z"/>
                        <path id="path48" fill="none" stroke="none" d="M 0 566 L 96 566 L 96 542 L 0 542 Z"/>
                        <path id="path49" fill="none" stroke="none" d="M 0 542 L 96 542 L 96 518 L 0 518 Z"/>
                    </g>
                    <path id="path50" fill="none" stroke="#000000" stroke-width="2" stroke-linecap="round" stroke-linejoin="round" d="M 0 614 L 96 614 L 96 518 L 0 518 Z"/>
                </g>
                <g id="g23">
                    <g id="g24">
                        <path id="path51" fill="#38761d" fill-rule="evenodd" stroke="#000000" stroke-width="2" stroke-linecap="round" stroke-linejoin="round" d="M 96 614 L 192 614 L 192 590 L 96 590 Z"/>
                        <path id="path52" fill="#cc4125" fill-rule="evenodd" stroke="#000000" stroke-width="2" stroke-linecap="round" stroke-linejoin="round" d="M 96 590 L 192 590 L 192 566 L 96 566 Z"/>
                        <path id="path53" fill="#f1b00d" fill-rule="evenodd" stroke="#000000" stroke-width="2" stroke-linecap="round" stroke-linejoin="round" d="M 96 566 L 192 566 L 192 542 L 96 542 Z"/>
                        <path id="path54" fill="none" stroke="none" d="M 96 542 L 192 542 L 192 518 L 96 518 Z"/>
                    </g>
                    <path id="path55" fill="none" stroke="#000000" stroke-width="2" stroke-linecap="round" stroke-linejoin="round" d="M 96 614 L 192 614 L 192 518 L 96 518 Z"/>
                </g>
                <g id="g25">
                    <g id="g26">
                        <path id="path56" fill="#38761d" fill-rule="evenodd" stroke="#000000" stroke-width="2" stroke-linecap="round" stroke-linejoin="round" d="M 192 614 L 288 614 L 288 590 L 192 590 Z"/>
                        <path id="path57" fill="none" stroke="none" d="M 192 590 L 288 590 L 288 566 L 192 566 Z"/>
                        <path id="path58" fill="none" stroke="none" d="M 192 566 L 288 566 L 288 542 L 192 542 Z"/>
                        <path id="path59" fill="none" stroke="none" d="M 192 542 L 288 542 L 288 518 L 192 518 Z"/>
                    </g>
                    <path id="path60" fill="none" stroke="#000000" stroke-width="2" stroke-linecap="round" stroke-linejoin="round" d="M 192 614 L 288 614 L 288 518 L 192 518 Z"/>
                </g>
                <g id="g27">
                    <g id="g28">
                        <path id="path61" fill="#38761d" fill-rule="evenodd" stroke="#000000" stroke-width="2" stroke-linecap="round" stroke-linejoin="round" d="M 288 614 L 384 614 L 384 590 L 288 590 Z"/>
                        <path id="path62" fill="none" stroke="none" d="M 288 590 L 384 590 L 384 566 L 288 566 Z"/>
                        <path id="path63" fill="none" stroke="none" d="M 288 566 L 384 566 L 384 542 L 288 542 Z"/>
                        <path id="path64" fill="none" stroke="none" d="M 288 542 L 384 542 L 384 518 L 288 518 Z"/>
                    </g>
                    <path id="path65" fill="none" stroke="#000000" stroke-width="2" stroke-linecap="round" stroke-linejoin="round" d="M 288 614 L 384 614 L 384 518 L 288 518 Z"/>
                </g>
                <g id="g29">
                    <g id="g30">
                        <path id="path66" fill="#38761d" fill-rule="evenodd" stroke="#000000" stroke-width="2" stroke-linecap="round" stroke-linejoin="round" d="M 384 614 L 480 614 L 480 590 L 384 590 Z"/>
                        <path id="path67" fill="none" stroke="none" d="M 384 590 L 480 590 L 480 566 L 384 566 Z"/>
                        <path id="path68" fill="none" stroke="none" d="M 384 566 L 480 566 L 480 542 L 384 542 Z"/>
                        <path id="path69" fill="none" stroke="none" d="M 384 542 L 480 542 L 480 518 L 384 518 Z"/>
                    </g>
                    <path id="path70" fill="none" stroke="#000000" stroke-width="2" stroke-linecap="round" stroke-linejoin="round" d="M 384 614 L 480 614 L 480 518 L 384 518 Z"/>
                </g>
            </g>
            <g id="g31">
                <g id="g32">
                    <g id="g33">
                        <path id="path71" fill="#38761d" fill-rule="evenodd" stroke="#000000" stroke-width="2" stroke-linecap="round" stroke-linejoin="round" d="M 0 518 L 96 518 L 96 494 L 0 494 Z"/>
                        <path id="path72" fill="none" stroke="none" d="M 0 494 L 96 494 L 96 470 L 0 470 Z"/>
                        <path id="path73" fill="none" stroke="none" d="M 0 470 L 96 470 L 96 446 L 0 446 Z"/>
                        <path id="path74" fill="none" stroke="none" d="M 0 446 L 96 446 L 96 422 L 0 422 Z"/>
                    </g>
                    <path id="path75" fill="none" stroke="#000000" stroke-width="2" stroke-linecap="round" stroke-linejoin="round" d="M 0 518 L 96 518 L 96 422 L 0 422 Z"/>
                </g>
                <g id="g34">
                    <g id="g35">
                        <path id="path76" fill="#38761d" fill-rule="evenodd" stroke="#000000" stroke-width="2" stroke-linecap="round" stroke-linejoin="round" d="M 96 518 L 192 518 L 192 494 L 96 494 Z"/>
                        <path id="path77" fill="none" stroke="none" d="M 96 494 L 192 494 L 192 470 L 96 470 Z"/>
                        <path id="path78" fill="none" stroke="none" d="M 96 470 L 192 470 L 192 446 L 96 446 Z"/>
                        <path id="path79" fill="none" stroke="none" d="M 96 446 L 192 446 L 192 422 L 96 422 Z"/>
                    </g>
                    <path id="path80" fill="none" stroke="#000000" stroke-width="2" stroke-linecap="round" stroke-linejoin="round" d="M 96 518 L 192 518 L 192 422 L 96 422 Z"/>
                </g>
                <g id="g36">
                    <g id="g37">
                        <path id="path81" fill="#38761d" fill-rule="evenodd" stroke="#000000" stroke-width="2" stroke-linecap="round" stroke-linejoin="round" d="M 192 518 L 288 518 L 288 494 L 192 494 Z"/>
                        <path id="path82" fill="none" stroke="none" d="M 192 494 L 288 494 L 288 470 L 192 470 Z"/>
                        <path id="path83" fill="none" stroke="none" d="M 192 470 L 288 470 L 288 446 L 192 446 Z"/>
                        <path id="path84" fill="none" stroke="none" d="M 192 446 L 288 446 L 288 422 L 192 422 Z"/>
                    </g>
                    <path id="path85" fill="none" stroke="#000000" stroke-width="2" stroke-linecap="round" stroke-linejoin="round" d="M 192 518 L 288 518 L 288 422 L 192 422 Z"/>
                </g>
                <g id="g38">
                    <g id="g39">
                        <path id="path86" fill="#38761d" fill-rule="evenodd" stroke="#000000" stroke-width="2" stroke-linecap="round" stroke-linejoin="round" d="M 288 518 L 384 518 L 384 494 L 288 494 Z"/>
                        <path id="path87" fill="none" stroke="none" d="M 288 494 L 384 494 L 384 470 L 288 470 Z"/>
                        <path id="path88" fill="none" stroke="none" d="M 288 470 L 384 470 L 384 446 L 288 446 Z"/>
                        <path id="path89" fill="none" stroke="none" d="M 288 446 L 384 446 L 384 422 L 288 422 Z"/>
                    </g>
                    <path id="path90" fill="none" stroke="#000000" stroke-width="2" stroke-linecap="round" stroke-linejoin="round" d="M 288 518 L 384 518 L 384 422 L 288 422 Z"/>
                </g>
                <g id="g40">
                    <g id="g41">
                        <path id="path91" fill="#38761d" fill-rule="evenodd" stroke="#000000" stroke-width="2" stroke-linecap="round" stroke-linejoin="round" d="M 384 518 L 480 518 L 480 494 L 384 494 Z"/>
                        <path id="path92" fill="#45818e" fill-rule="evenodd" stroke="#000000" stroke-width="2" stroke-linecap="round" stroke-linejoin="round" d="M 384 494 L 480 494 L 480 470 L 384 470 Z"/>
                        <path id="path93" fill="#cc4125" fill-rule="evenodd" stroke="#000000" stroke-width="2" stroke-linecap="round" stroke-linejoin="round" d="M 384 470 L 480 470 L 480 446 L 384 446 Z"/>
                        <path id="path94" fill="#f1b00d" fill-rule="evenodd" stroke="#000000" stroke-width="2" stroke-linecap="round" stroke-linejoin="round" d="M 384 446 L 480 446 L 480 422 L 384 422 Z"/>
                    </g>
                    <path id="path95" fill="none" stroke="#000000" stroke-width="2" stroke-linecap="round" stroke-linejoin="round" d="M 384 518 L 480 518 L 480 422 L 384 422 Z"/>
                </g>
            </g>
            <g id="g42">
                <g id="g43">
                    <g id="g44">
                        <path id="path96" fill="#38761d" fill-rule="evenodd" stroke="#000000" stroke-width="2" stroke-linecap="round" stroke-linejoin="round" d="M 0 422 L 96 422 L 96 398 L 0 398 Z"/>
                        <path id="path97" fill="#cc4125" fill-rule="evenodd" stroke="#000000" stroke-width="2" stroke-linecap="round" stroke-linejoin="round" d="M 0 398 L 96 398 L 96 374 L 0 374 Z"/>
                        <path id="path98" fill="none" stroke="none" d="M 0 374 L 96 374 L 96 350 L 0 350 Z"/>
                        <path id="path99" fill="none" stroke="none" d="M 0 350 L 96 350 L 96 326 L 0 326 Z"/>
                    </g>
                    <path id="path100" fill="none" stroke="#000000" stroke-width="2" stroke-linecap="round" stroke-linejoin="round" d="M 0 422 L 96 422 L 96 326 L 0 326 Z"/>
                </g>
                <g id="g45">
                    <g id="g46">
                        <path id="path101" fill="#38761d" fill-rule="evenodd" stroke="#000000" stroke-width="2" stroke-linecap="round" stroke-linejoin="round" d="M 96 422 L 192 422 L 192 398 L 96 398 Z"/>
                        <path id="path102" fill="none" stroke="none" d="M 96 398 L 192 398 L 192 374 L 96 374 Z"/>
                        <path id="path103" fill="none" stroke="none" d="M 96 374 L 192 374 L 192 350 L 96 350 Z"/>
                        <path id="path104" fill="none" stroke="none" d="M 96 350 L 192 350 L 192 326 L 96 326 Z"/>
                    </g>
                    <path id="path105" fill="none" stroke="#000000" stroke-width="2" stroke-linecap="round" stroke-linejoin="round" d="M 96 422 L 192 422 L 192 326 L 96 326 Z"/>
                </g>
                <g id="g47">
                    <g id="g48">
                        <path id="path106" fill="#38761d" fill-rule="evenodd" stroke="#000000" stroke-width="2" stroke-linecap="round" stroke-linejoin="round" d="M 192 422 L 288 422 L 288 398 L 192 398 Z"/>
                        <path id="path107" fill="none" stroke="none" d="M 192 398 L 288 398 L 288 374 L 192 374 Z"/>
                        <path id="path108" fill="none" stroke="none" d="M 192 374 L 288 374 L 288 350 L 192 350 Z"/>
                        <path id="path109" fill="none" stroke="none" d="M 192 350 L 288 350 L 288 326 L 192 326 Z"/>
                    </g>
                    <path id="path110" fill="none" stroke="#000000" stroke-width="2" stroke-linecap="round" stroke-linejoin="round" d="M 192 422 L 288 422 L 288 326 L 192 326 Z"/>
                </g>
                <g id="g49">
                    <g id="g50">
                        <path id="path111" fill="#38761d" fill-rule="evenodd" stroke="#000000" stroke-width="2" stroke-linecap="round" stroke-linejoin="round" d="M 288 422 L 384 422 L 384 398 L 288 398 Z"/>
                        <path id="path112" fill="#45818e" fill-rule="evenodd" stroke="#000000" stroke-width="2" stroke-linecap="round" stroke-linejoin="round" d="M 288 398 L 384 398 L 384 374 L 288 374 Z"/>
                        <path id="path113" fill="#f2b00d" fill-rule="evenodd" stroke="#000000" stroke-width="2" stroke-linecap="round" stroke-linejoin="round" d="M 288 374 L 384 374 L 384 350 L 288 350 Z"/>
                        <path id="path114" fill="none" stroke="none" d="M 288 350 L 384 350 L 384 326 L 288 326 Z"/>
                    </g>
                    <path id="path115" fill="none" stroke="#000000" stroke-width="2" stroke-linecap="round" stroke-linejoin="round" d="M 288 422 L 384 422 L 384 326 L 288 326 Z"/>
                </g>
                <g id="g51">
                    <g id="g52">
                        <path id="path116" fill="#38761d" fill-rule="evenodd" stroke="#000000" stroke-width="2" stroke-linecap="round" stroke-linejoin="round" d="M 384 422 L 480 422 L 480 398 L 384 398 Z"/>
                        <path id="path117" fill="none" stroke="none" d="M 384 398 L 480 398 L 480 374 L 384 374 Z"/>
                        <path id="path118" fill="none" stroke="none" d="M 384 374 L 480 374 L 480 350 L 384 350 Z"/>
                        <path id="path119" fill="none" stroke="none" d="M 384 350 L 480 350 L 480 326 L 384 326 Z"/>
                    </g>
                    <path id="path120" fill="none" stroke="#000000" stroke-width="2" stroke-linecap="round" stroke-linejoin="round" d="M 384 422 L 480 422 L 480 326 L 384 326 Z"/>
                </g>
            </g>
            <path id="path121" fill="none" stroke="#000000" stroke-width="2" stroke-linecap="round" stroke-linejoin="round" d="M 0 806 L 480 806 L 480 326 L 0 326 Z"/>
        </g>
    </g>
    <g id="g53">
        <g id="g54">
            <path id="path122" fill="none" stroke="#000000" stroke-width="2" stroke-linecap="round" stroke-linejoin="round" d="M 125 296 L 355 296 L 355 44 L 125 44 Z"/>
            <g id="g55">
                <path id="path123" fill="#f1b00d" fill-rule="evenodd" stroke="#000000" stroke-width="2" stroke-linecap="round" stroke-linejoin="round" d="M 125 296 L 355 296 L 355 212 L 125 212 Z"/>
                <path id="path124" fill="#cc4125" fill-rule="evenodd" stroke="#000000" stroke-width="2" stroke-linecap="round" stroke-linejoin="round" d="M 125 212 L 355 212 L 355 128 L 125 128 Z"/>
                <path id="path125" fill="#45818e" fill-rule="evenodd" stroke="#000000" stroke-width="2" stroke-linecap="round" stroke-linejoin="round" d="M 125 128 L 355 128 L 355 44 L 125 44 Z"/>
                <g id="g56">
                    <text id="45123" xml:space="preserve" x="167" y="98" font-family="Helvetica" font-size="36" fill="#000000">4,5,1,2,3</text>
                    <text id="15243" xml:space="preserve" x="167" y="182" font-family="Helvetica" font-size="36" fill="#000000">1,5,2,4,3</text>
                    <text id="45213" xml:space="preserve" x="167" y="266" font-family="Helvetica" font-size="36" fill="#000000">4,5,2,1,3</text>
                </g>
            </g>
            <text id="FIFO-Queue" xml:space="preserve" x="136" y="34" font-family="Helvetica" font-size="36" fill="#000000">FIFO-Queue</text>
        </g>
    </g>
</svg>
